<ttFont>
    <TTGlyph name="A" xMin="3" yMin="-40" xMax="816" yMax="790">
      <contour>
        <pt x="472" y="532" on="1"/>
        <pt x="471" y="525" on="1"/>
        <pt x="472" y="494" on="0"/>
        <pt x="491" y="494" on="1"/>
        <pt x="542" y="494" on="0"/>
        <pt x="620" y="591" on="0"/>
        <pt x="620" y="690" on="0"/>
        <pt x="562" y="746" on="0"/>
        <pt x="501" y="746" on="1"/>
        <pt x="412" y="746" on="0"/>
        <pt x="260" y="657" on="0"/>
        <pt x="164" y="517" on="0"/>
        <pt x="111" y="352" on="0"/>
        <pt x="111" y="271" on="1"/>
        <pt x="111" y="158" on="0"/>
        <pt x="212" y="12" on="0"/>
        <pt x="309" y="12" on="1"/>
        <pt x="348" y="12" on="0"/>
        <pt x="425" y="42" on="0"/>
        <pt x="452" y="64" on="1"/>
        <pt x="508" y="107" on="0"/>
        <pt x="534" y="143" on="1"/>
        <pt x="544" y="158" on="1"/>
        <pt x="533" y="205" on="0"/>
        <pt x="533" y="313" on="0"/>
        <pt x="559" y="407" on="0"/>
        <pt x="573" y="421" on="1"/>
        <pt x="601" y="451" on="0"/>
        <pt x="632" y="451" on="1"/>
        <pt x="659" y="451" on="0"/>
        <pt x="659" y="371" on="0"/>
        <pt x="641" y="309" on="0"/>
        <pt x="619" y="267" on="1"/>
        <pt x="619" y="266" on="1"/>
        <pt x="628" y="207" on="0"/>
        <pt x="666" y="101" on="0"/>
        <pt x="683" y="78" on="1"/>
        <pt x="722" y="21" on="0"/>
        <pt x="769" y="21" on="1"/>
        <pt x="783" y="21" on="0"/>
        <pt x="802" y="28" on="0"/>
        <pt x="816" y="28" on="0"/>
        <pt x="816" y="23" on="1"/>
        <pt x="816" y="10" on="0"/>
        <pt x="748" y="-33" on="0"/>
        <pt x="669" y="-33" on="0"/>
        <pt x="585" y="37" on="0"/>
        <pt x="560" y="102" on="1"/>
        <pt x="548" y="139" on="1"/>
        <pt x="530" y="114" on="0"/>
        <pt x="462" y="46" on="0"/>
        <pt x="396" y="-1" on="0"/>
        <pt x="294" y="-40" on="0"/>
        <pt x="242" y="-40" on="1"/>
        <pt x="122" y="-40" on="0"/>
        <pt x="3" y="88" on="0"/>
        <pt x="3" y="193" on="1"/>
        <pt x="3" y="267" on="0"/>
        <pt x="59" y="432" on="0"/>
        <pt x="164" y="587" on="0"/>
        <pt x="302" y="714" on="0"/>
        <pt x="483" y="790" on="0"/>
        <pt x="577" y="790" on="1"/>
        <pt x="702" y="790" on="0"/>
        <pt x="702" y="703" on="1"/>
        <pt x="702" y="625" on="0"/>
        <pt x="526" y="452" on="0"/>
        <pt x="434" y="452" on="1"/>
        <pt x="389" y="452" on="0"/>
        <pt x="389" y="483" on="1"/>
        <pt x="389" y="502" on="0"/>
        <pt x="445" y="538" on="0"/>
        <pt x="466" y="538" on="1"/>
        <pt x="472" y="538" on="0"/>
      </contour>
    </TTGlyph>
    <TTGlyph name="AE" xMin="3" yMin="-40" xMax="1160" yMax="919">
      <contour>
        <pt x="309" y="12" on="1"/>
        <pt x="358" y="12" on="0"/>
        <pt x="483" y="94" on="0"/>
        <pt x="561" y="174" on="0"/>
        <pt x="598" y="219" on="1"/>
        <pt x="622" y="258" on="0"/>
        <pt x="710" y="326" on="0"/>
        <pt x="824" y="396" on="0"/>
        <pt x="849" y="416" on="1"/>
        <pt x="855" y="422" on="0"/>
        <pt x="855" y="430" on="0"/>
        <pt x="837" y="430" on="0"/>
        <pt x="669" y="408" on="0"/>
        <pt x="637" y="408" on="1"/>
        <pt x="480" y="408" on="0"/>
        <pt x="480" y="599" on="0"/>
        <pt x="607" y="696" on="1"/>
        <pt x="579" y="746" on="0"/>
        <pt x="412" y="746" on="0"/>
        <pt x="260" y="658" on="0"/>
        <pt x="164" y="519" on="0"/>
        <pt x="111" y="355" on="0"/>
        <pt x="111" y="274" on="1"/>
        <pt x="111" y="162" on="0"/>
        <pt x="212" y="14" on="0"/>
      </contour>
      <contour>
        <pt x="842" y="12" on="1"/>
        <pt x="893" y="12" on="0"/>
        <pt x="990" y="61" on="0"/>
        <pt x="1024" y="110" on="1"/>
        <pt x="1031" y="98" on="1"/>
        <pt x="995" y="33" on="0"/>
        <pt x="846" y="-39" on="0"/>
        <pt x="686" y="-39" on="0"/>
        <pt x="569" y="43" on="0"/>
        <pt x="569" y="119" on="1"/>
        <pt x="569" y="146" on="0"/>
        <pt x="577" y="173" on="1"/>
        <pt x="529" y="112" on="0"/>
        <pt x="467" y="60" on="1"/>
        <pt x="349" y="-40" on="0"/>
        <pt x="122" y="-40" on="0"/>
        <pt x="3" y="88" on="0"/>
        <pt x="3" y="193" on="1"/>
        <pt x="3" y="267" on="0"/>
        <pt x="59" y="432" on="0"/>
        <pt x="164" y="587" on="0"/>
        <pt x="302" y="714" on="0"/>
        <pt x="483" y="790" on="0"/>
        <pt x="658" y="790" on="0"/>
        <pt x="688" y="750" on="1"/>
        <pt x="767" y="797" on="0"/>
        <pt x="967" y="880" on="0"/>
        <pt x="1096" y="919" on="0"/>
        <pt x="1130" y="919" on="0"/>
        <pt x="1160" y="894" on="0"/>
        <pt x="1160" y="878" on="1"/>
        <pt x="1160" y="850" on="0"/>
        <pt x="1085" y="806" on="0"/>
        <pt x="1048" y="798" on="1"/>
        <pt x="1010" y="790" on="1"/>
        <pt x="1000" y="790" on="0"/>
        <pt x="1000" y="804" on="0"/>
        <pt x="1022" y="826" on="0"/>
        <pt x="1022" y="830" on="0"/>
        <pt x="1002" y="830" on="0"/>
        <pt x="849" y="780" on="0"/>
        <pt x="670" y="707" on="0"/>
        <pt x="530" y="608" on="0"/>
        <pt x="530" y="567" on="1"/>
        <pt x="530" y="509" on="0"/>
        <pt x="649" y="509" on="1"/>
        <pt x="699" y="509" on="0"/>
        <pt x="858" y="520" on="0"/>
        <pt x="888" y="520" on="1"/>
        <pt x="941" y="520" on="0"/>
        <pt x="941" y="480" on="1"/>
        <pt x="941" y="464" on="0"/>
        <pt x="894" y="422" on="0"/>
        <pt x="797" y="359" on="0"/>
        <pt x="730" y="310" on="0"/>
        <pt x="673" y="224" on="0"/>
        <pt x="673" y="174" on="1"/>
        <pt x="673" y="12" on="0"/>
      </contour>
    </TTGlyph>
    <TTGlyph name="Aacute" xMin="3" yMin="-40" xMax="816" yMax="919">
      <contour>
        <pt x="471" y="525" on="1"/>
        <pt x="472" y="532" on="1"/>
        <pt x="472" y="538" on="0"/>
        <pt x="466" y="538" on="1"/>
        <pt x="445" y="538" on="0"/>
        <pt x="389" y="502" on="0"/>
        <pt x="389" y="483" on="1"/>
        <pt x="389" y="452" on="0"/>
        <pt x="434" y="452" on="1"/>
        <pt x="526" y="452" on="0"/>
        <pt x="702" y="625" on="0"/>
        <pt x="702" y="703" on="1"/>
        <pt x="702" y="790" on="0"/>
        <pt x="577" y="790" on="1"/>
        <pt x="483" y="790" on="0"/>
        <pt x="302" y="714" on="0"/>
        <pt x="164" y="587" on="0"/>
        <pt x="59" y="432" on="0"/>
        <pt x="3" y="267" on="0"/>
        <pt x="3" y="193" on="1"/>
        <pt x="3" y="88" on="0"/>
        <pt x="122" y="-40" on="0"/>
        <pt x="242" y="-40" on="1"/>
        <pt x="294" y="-40" on="0"/>
        <pt x="394" y="-3" on="0"/>
        <pt x="430" y="23" on="1"/>
        <pt x="502" y="76" on="0"/>
        <pt x="534" y="120" on="1"/>
        <pt x="548" y="139" on="1"/>
        <pt x="560" y="102" on="1"/>
        <pt x="585" y="37" on="0"/>
        <pt x="669" y="-33" on="0"/>
        <pt x="748" y="-33" on="0"/>
        <pt x="816" y="10" on="0"/>
        <pt x="816" y="23" on="1"/>
        <pt x="816" y="28" on="0"/>
        <pt x="802" y="28" on="0"/>
        <pt x="783" y="21" on="0"/>
        <pt x="769" y="21" on="1"/>
        <pt x="722" y="21" on="0"/>
        <pt x="683" y="78" on="1"/>
        <pt x="666" y="101" on="0"/>
        <pt x="628" y="207" on="0"/>
        <pt x="619" y="266" on="1"/>
        <pt x="619" y="267" on="1"/>
        <pt x="641" y="309" on="0"/>
        <pt x="659" y="371" on="0"/>
        <pt x="659" y="451" on="0"/>
        <pt x="632" y="451" on="1"/>
        <pt x="601" y="451" on="0"/>
        <pt x="573" y="421" on="1"/>
        <pt x="559" y="407" on="0"/>
        <pt x="533" y="313" on="0"/>
        <pt x="533" y="205" on="0"/>
        <pt x="544" y="158" on="1"/>
        <pt x="484" y="68" on="0"/>
        <pt x="387" y="28" on="1"/>
        <pt x="348" y="12" on="0"/>
        <pt x="309" y="12" on="1"/>
        <pt x="212" y="12" on="0"/>
        <pt x="111" y="158" on="0"/>
        <pt x="111" y="271" on="1"/>
        <pt x="111" y="352" on="0"/>
        <pt x="164" y="517" on="0"/>
        <pt x="260" y="657" on="0"/>
        <pt x="412" y="746" on="0"/>
        <pt x="501" y="746" on="1"/>
        <pt x="562" y="746" on="0"/>
        <pt x="620" y="690" on="0"/>
        <pt x="620" y="591" on="0"/>
        <pt x="542" y="494" on="0"/>
        <pt x="491" y="494" on="1"/>
        <pt x="472" y="494" on="0"/>
      </contour>
      <contour>
        <pt x="332" y="813" on="1"/>
        <pt x="370" y="817" on="0"/>
        <pt x="425" y="856" on="0"/>
        <pt x="425" y="891" on="1"/>
        <pt x="425" y="900" on="0"/>
        <pt x="424" y="905" on="1"/>
        <pt x="424" y="919" on="0"/>
        <pt x="456" y="919" on="0"/>
        <pt x="507" y="894" on="0"/>
        <pt x="507" y="880" on="1"/>
        <pt x="507" y="855" on="0"/>
        <pt x="416" y="798" on="0"/>
        <pt x="350" y="798" on="1"/>
        <pt x="332" y="798" on="0"/>
      </contour>
    </TTGlyph>
    <TTGlyph name="Acircumflex" xMin="3" yMin="-40" xMax="816" yMax="939">
      <component glyphName="A" x="0" y="0" flags="0x1004"/>
      <component glyphName="circumflex" x="230" y="480" flags="0x1004"/>
    </TTGlyph>
    <TTGlyph name="Adieresis" xMin="3" yMin="-40" xMax="816" yMax="923">
      <component glyphName="A" x="0" y="0" flags="0x1004"/>
      <component glyphName="dieresis" x="362" y="467" flags="0x1004"/>
    </TTGlyph>
    <TTGlyph name="Agrave" xMin="3" yMin="-40" xMax="816" yMax="941">
      <component glyphName="A" x="0" y="0" flags="0x1004"/>
      <component glyphName="grave" x="197" y="482" flags="0x1004"/>
    </TTGlyph>
    <TTGlyph name="Aring" xMin="3" yMin="-40" xMax="816" yMax="925">
      <component glyphName="A" x="0" y="0" flags="0x1004"/>
      <component glyphName="ring" x="247" y="478" flags="0x1004"/>
    </TTGlyph>
    <TTGlyph name="Atilde" xMin="3" yMin="-40" xMax="816" yMax="918">
      <contour>
        <pt x="472" y="532" on="1"/>
        <pt x="471" y="525" on="1"/>
        <pt x="472" y="494" on="0"/>
        <pt x="491" y="494" on="1"/>
        <pt x="542" y="494" on="0"/>
        <pt x="620" y="591" on="0"/>
        <pt x="620" y="690" on="0"/>
        <pt x="562" y="746" on="0"/>
        <pt x="501" y="746" on="1"/>
        <pt x="412" y="746" on="0"/>
        <pt x="260" y="657" on="0"/>
        <pt x="164" y="517" on="0"/>
        <pt x="111" y="352" on="0"/>
        <pt x="111" y="271" on="1"/>
        <pt x="111" y="158" on="0"/>
        <pt x="212" y="12" on="0"/>
        <pt x="309" y="12" on="1"/>
        <pt x="348" y="12" on="0"/>
        <pt x="425" y="42" on="0"/>
        <pt x="452" y="64" on="1"/>
        <pt x="508" y="107" on="0"/>
        <pt x="534" y="143" on="1"/>
        <pt x="544" y="158" on="1"/>
        <pt x="533" y="205" on="0"/>
        <pt x="533" y="313" on="0"/>
        <pt x="559" y="407" on="0"/>
        <pt x="573" y="421" on="1"/>
        <pt x="601" y="451" on="0"/>
        <pt x="632" y="451" on="1"/>
        <pt x="659" y="451" on="0"/>
        <pt x="659" y="371" on="0"/>
        <pt x="641" y="309" on="0"/>
        <pt x="619" y="267" on="1"/>
        <pt x="619" y="266" on="1"/>
        <pt x="628" y="207" on="0"/>
        <pt x="666" y="101" on="0"/>
        <pt x="683" y="78" on="1"/>
        <pt x="722" y="21" on="0"/>
        <pt x="769" y="21" on="1"/>
        <pt x="783" y="21" on="0"/>
        <pt x="802" y="28" on="0"/>
        <pt x="816" y="28" on="0"/>
        <pt x="816" y="23" on="1"/>
        <pt x="816" y="10" on="0"/>
        <pt x="748" y="-33" on="0"/>
        <pt x="669" y="-33" on="0"/>
        <pt x="585" y="37" on="0"/>
        <pt x="560" y="102" on="1"/>
        <pt x="548" y="139" on="1"/>
        <pt x="530" y="114" on="0"/>
        <pt x="462" y="46" on="0"/>
        <pt x="396" y="-1" on="0"/>
        <pt x="294" y="-40" on="0"/>
        <pt x="242" y="-40" on="1"/>
        <pt x="122" y="-40" on="0"/>
        <pt x="3" y="88" on="0"/>
        <pt x="3" y="193" on="1"/>
        <pt x="3" y="267" on="0"/>
        <pt x="59" y="432" on="0"/>
        <pt x="164" y="587" on="0"/>
        <pt x="302" y="714" on="0"/>
        <pt x="483" y="790" on="0"/>
        <pt x="577" y="790" on="1"/>
        <pt x="702" y="790" on="0"/>
        <pt x="702" y="703" on="1"/>
        <pt x="702" y="625" on="0"/>
        <pt x="526" y="452" on="0"/>
        <pt x="434" y="452" on="1"/>
        <pt x="389" y="452" on="0"/>
        <pt x="389" y="483" on="1"/>
        <pt x="389" y="502" on="0"/>
        <pt x="445" y="538" on="0"/>
        <pt x="466" y="538" on="1"/>
        <pt x="472" y="538" on="0"/>
      </contour>
      <contour>
        <pt x="399" y="884" on="1"/>
        <pt x="484" y="874" on="1"/>
        <pt x="513" y="874" on="0"/>
        <pt x="553" y="918" on="1"/>
        <pt x="561" y="918" on="0"/>
        <pt x="561" y="906" on="1"/>
        <pt x="561" y="882" on="0"/>
        <pt x="490" y="813" on="0"/>
        <pt x="449" y="813" on="1"/>
        <pt x="437" y="813" on="0"/>
        <pt x="375" y="830" on="0"/>
        <pt x="365" y="830" on="1"/>
        <pt x="331" y="830" on="0"/>
        <pt x="317" y="795" on="1"/>
        <pt x="306" y="795" on="0"/>
        <pt x="306" y="806" on="1"/>
        <pt x="306" y="841" on="0"/>
        <pt x="369" y="884" on="0"/>
      </contour>
    </TTGlyph>
    <TTGlyph name="B" xMin="-80" yMin="-86" xMax="1008" yMax="846">
      <contour>
        <pt x="947" y="56" on="1"/>
        <pt x="947" y="106" on="0"/>
        <pt x="834" y="218" on="0"/>
        <pt x="674" y="302" on="0"/>
        <pt x="509" y="363" on="0"/>
        <pt x="453" y="370" on="1"/>
        <pt x="479" y="318" on="0"/>
        <pt x="504" y="264" on="0"/>
        <pt x="530" y="179" on="0"/>
        <pt x="530" y="146" on="1"/>
        <pt x="530" y="44" on="0"/>
        <pt x="409" y="-86" on="0"/>
        <pt x="327" y="-86" on="1"/>
        <pt x="219" y="-86" on="0"/>
        <pt x="28" y="83" on="0"/>
        <pt x="-80" y="337" on="0"/>
        <pt x="-80" y="466" on="1"/>
        <pt x="-80" y="625" on="0"/>
        <pt x="12" y="731" on="1"/>
        <pt x="58" y="785" on="0"/>
        <pt x="217" y="846" on="0"/>
        <pt x="323" y="846" on="1"/>
        <pt x="429" y="846" on="0"/>
        <pt x="540" y="802" on="1"/>
        <pt x="671" y="751" on="0"/>
        <pt x="724" y="672" on="1"/>
        <pt x="755" y="627" on="0"/>
        <pt x="755" y="519" on="0"/>
        <pt x="692" y="440" on="0"/>
        <pt x="642" y="423" on="1"/>
        <pt x="640" y="422" on="0"/>
        <pt x="623" y="422" on="0"/>
        <pt x="623" y="429" on="0"/>
        <pt x="636" y="435" on="1"/>
        <pt x="712" y="465" on="0"/>
        <pt x="712" y="519" on="1"/>
        <pt x="712" y="584" on="0"/>
        <pt x="569" y="703" on="0"/>
        <pt x="355" y="771" on="0"/>
        <pt x="248" y="771" on="1"/>
        <pt x="98" y="771" on="0"/>
        <pt x="-42" y="637" on="0"/>
        <pt x="-42" y="410" on="0"/>
        <pt x="91" y="145" on="0"/>
        <pt x="296" y="-36" on="0"/>
        <pt x="391" y="-36" on="1"/>
        <pt x="476" y="-36" on="0"/>
        <pt x="476" y="45" on="1"/>
        <pt x="476" y="85" on="0"/>
        <pt x="390" y="264" on="0"/>
        <pt x="303" y="453" on="0"/>
        <pt x="303" y="551" on="0"/>
        <pt x="361" y="627" on="0"/>
        <pt x="390" y="644" on="1"/>
        <pt x="418" y="660" on="1"/>
        <pt x="424" y="660" on="0"/>
        <pt x="424" y="649" on="0"/>
        <pt x="420" y="645" on="1"/>
        <pt x="388" y="630" on="0"/>
        <pt x="388" y="572" on="1"/>
        <pt x="393" y="500" on="0"/>
        <pt x="443" y="390" on="1"/>
        <pt x="474" y="423" on="0"/>
        <pt x="500" y="437" on="0"/>
        <pt x="564" y="437" on="0"/>
        <pt x="676" y="406" on="0"/>
        <pt x="809" y="349" on="0"/>
        <pt x="928" y="278" on="0"/>
        <pt x="1008" y="186" on="0"/>
        <pt x="1008" y="141" on="1"/>
        <pt x="1008" y="69" on="0"/>
        <pt x="883" y="-68" on="0"/>
        <pt x="788" y="-68" on="1"/>
        <pt x="720" y="-68" on="0"/>
        <pt x="622" y="-3" on="0"/>
        <pt x="573" y="56" on="1"/>
        <pt x="615" y="105" on="0"/>
        <pt x="635" y="113" on="1"/>
        <pt x="642" y="113" on="0"/>
        <pt x="654" y="102" on="1"/>
        <pt x="668" y="87" on="1"/>
        <pt x="699" y="60" on="0"/>
        <pt x="739" y="29" on="0"/>
        <pt x="831" y="-11" on="0"/>
        <pt x="905" y="-11" on="0"/>
        <pt x="947" y="24" on="0"/>
      </contour>
    </TTGlyph>
    <TTGlyph name="C" xMin="-10" yMin="-63" xMax="642" yMax="810">
      <contour>
        <pt x="261" y="534" on="1"/>
        <pt x="258" y="514" on="1"/>
        <pt x="258" y="494" on="0"/>
        <pt x="284" y="494" on="1"/>
        <pt x="334" y="494" on="0"/>
        <pt x="421" y="610" on="0"/>
        <pt x="421" y="672" on="1"/>
        <pt x="421" y="768" on="0"/>
        <pt x="354" y="768" on="1"/>
        <pt x="279" y="768" on="0"/>
        <pt x="158" y="639" on="0"/>
        <pt x="96" y="445" on="0"/>
        <pt x="96" y="241" on="0"/>
        <pt x="150" y="82" on="0"/>
        <pt x="277" y="-24" on="0"/>
        <pt x="360" y="-24" on="1"/>
        <pt x="522" y="-24" on="0"/>
        <pt x="635" y="110" on="1"/>
        <pt x="642" y="98" on="1"/>
        <pt x="595" y="23" on="0"/>
        <pt x="422" y="-63" on="0"/>
        <pt x="327" y="-63" on="1"/>
        <pt x="157" y="-63" on="0"/>
        <pt x="-10" y="122" on="0"/>
        <pt x="-10" y="265" on="1"/>
        <pt x="-10" y="358" on="0"/>
        <pt x="57" y="552" on="0"/>
        <pt x="169" y="709" on="0"/>
        <pt x="330" y="810" on="0"/>
        <pt x="416" y="810" on="1"/>
        <pt x="457" y="810" on="0"/>
        <pt x="505" y="767" on="0"/>
        <pt x="505" y="670" on="0"/>
        <pt x="414" y="538" on="0"/>
        <pt x="278" y="445" on="0"/>
        <pt x="220" y="445" on="1"/>
        <pt x="191" y="445" on="0"/>
        <pt x="185" y="460" on="1"/>
        <pt x="180" y="473" on="0"/>
        <pt x="180" y="502" on="0"/>
        <pt x="234" y="544" on="0"/>
        <pt x="261" y="544" on="0"/>
      </contour>
    </TTGlyph>
    <TTGlyph name="Ccedilla" xMin="-10" yMin="-197" xMax="642" yMax="810">
      <contour>
        <pt x="261" y="534" on="1"/>
        <pt x="258" y="514" on="1"/>
        <pt x="258" y="494" on="0"/>
        <pt x="284" y="494" on="1"/>
        <pt x="334" y="494" on="0"/>
        <pt x="421" y="610" on="0"/>
        <pt x="421" y="672" on="1"/>
        <pt x="421" y="768" on="0"/>
        <pt x="354" y="768" on="1"/>
        <pt x="279" y="768" on="0"/>
        <pt x="158" y="639" on="0"/>
        <pt x="96" y="445" on="0"/>
        <pt x="96" y="241" on="0"/>
        <pt x="150" y="82" on="0"/>
        <pt x="277" y="-24" on="0"/>
        <pt x="360" y="-24" on="1"/>
        <pt x="522" y="-24" on="0"/>
        <pt x="635" y="110" on="1"/>
        <pt x="642" y="98" on="1"/>
        <pt x="602" y="34" on="0"/>
        <pt x="467" y="-46" on="0"/>
        <pt x="387" y="-58" on="1"/>
        <pt x="390" y="-79" on="0"/>
        <pt x="455" y="-121" on="0"/>
        <pt x="455" y="-158" on="0"/>
        <pt x="394" y="-197" on="0"/>
        <pt x="327" y="-197" on="0"/>
        <pt x="303" y="-183" on="1"/>
        <pt x="311" y="-176" on="1"/>
        <pt x="332" y="-182" on="0"/>
        <pt x="370" y="-182" on="0"/>
        <pt x="391" y="-157" on="0"/>
        <pt x="391" y="-132" on="0"/>
        <pt x="357" y="-82" on="0"/>
        <pt x="357" y="-67" on="1"/>
        <pt x="357" y="-62" on="1"/>
        <pt x="347" y="-63" on="0"/>
        <pt x="327" y="-63" on="1"/>
        <pt x="157" y="-63" on="0"/>
        <pt x="-10" y="122" on="0"/>
        <pt x="-10" y="265" on="1"/>
        <pt x="-10" y="358" on="0"/>
        <pt x="57" y="552" on="0"/>
        <pt x="169" y="709" on="0"/>
        <pt x="330" y="810" on="0"/>
        <pt x="416" y="810" on="1"/>
        <pt x="457" y="810" on="0"/>
        <pt x="505" y="767" on="0"/>
        <pt x="505" y="670" on="0"/>
        <pt x="414" y="538" on="0"/>
        <pt x="278" y="445" on="0"/>
        <pt x="220" y="445" on="1"/>
        <pt x="191" y="445" on="0"/>
        <pt x="185" y="460" on="1"/>
        <pt x="180" y="473" on="0"/>
        <pt x="180" y="502" on="0"/>
        <pt x="234" y="544" on="0"/>
        <pt x="261" y="544" on="0"/>
      </contour>
    </TTGlyph>
    <TTGlyph name="D" xMin="-105" yMin="-169" xMax="824" yMax="835">
      <contour>
        <pt x="39" y="105" on="1"/>
        <pt x="38" y="105" on="1"/>
        <pt x="77" y="22" on="0"/>
        <pt x="143" y="-54" on="1"/>
        <pt x="180" y="-97" on="0"/>
        <pt x="278" y="-150" on="0"/>
        <pt x="330" y="-150" on="1"/>
        <pt x="386" y="-145" on="0"/>
        <pt x="386" y="-82" on="1"/>
        <pt x="386" y="-57" on="0"/>
        <pt x="379" y="-22" on="1"/>
        <pt x="185" y="-5" on="0"/>
      </contour>
      <contour>
        <pt x="240" y="394" on="1"/>
        <pt x="233" y="445" on="0"/>
        <pt x="233" y="505" on="0"/>
        <pt x="236" y="523" on="1"/>
        <pt x="252" y="591" on="0"/>
        <pt x="337" y="641" on="1"/>
        <pt x="343" y="643" on="0"/>
        <pt x="347" y="643" on="0"/>
        <pt x="347" y="637" on="0"/>
        <pt x="341" y="628" on="1"/>
        <pt x="323" y="608" on="0"/>
        <pt x="323" y="564" on="1"/>
        <pt x="323" y="466" on="0"/>
        <pt x="361" y="333" on="1"/>
        <pt x="514" y="265" on="0"/>
        <pt x="630" y="249" on="1"/>
        <pt x="635" y="248" on="0"/>
        <pt x="635" y="238" on="0"/>
        <pt x="616" y="224" on="0"/>
        <pt x="566" y="211" on="0"/>
        <pt x="475" y="211" on="0"/>
        <pt x="391" y="237" on="1"/>
        <pt x="443" y="76" on="0"/>
        <pt x="451" y="28" on="1"/>
        <pt x="489" y="23" on="0"/>
        <pt x="520" y="23" on="1"/>
        <pt x="648" y="23" on="0"/>
        <pt x="769" y="112" on="0"/>
        <pt x="769" y="271" on="0"/>
        <pt x="639" y="483" on="0"/>
        <pt x="445" y="664" on="0"/>
        <pt x="197" y="789" on="0"/>
        <pt x="91" y="789" on="1"/>
        <pt x="48" y="789" on="0"/>
        <pt x="14" y="776" on="1"/>
        <pt x="-49" y="753" on="0"/>
        <pt x="-49" y="697" on="1"/>
        <pt x="-49" y="624" on="0"/>
        <pt x="112" y="465" on="0"/>
      </contour>
      <contour>
        <pt x="-105" y="634" on="1"/>
        <pt x="-105" y="711" on="0"/>
        <pt x="54" y="835" on="0"/>
        <pt x="262" y="835" on="0"/>
        <pt x="466" y="761" on="0"/>
        <pt x="629" y="638" on="0"/>
        <pt x="755" y="487" on="0"/>
        <pt x="824" y="321" on="0"/>
        <pt x="824" y="246" on="1"/>
        <pt x="824" y="127" on="0"/>
        <pt x="643" y="-21" on="0"/>
        <pt x="454" y="-25" on="1"/>
        <pt x="449" y="-77" on="0"/>
        <pt x="367" y="-169" on="0"/>
        <pt x="321" y="-169" on="1"/>
        <pt x="261" y="-169" on="0"/>
        <pt x="100" y="-49" on="0"/>
        <pt x="-33" y="120" on="0"/>
        <pt x="-63" y="196" on="1"/>
        <pt x="-66" y="202" on="0"/>
        <pt x="-66" y="206" on="1"/>
        <pt x="-61" y="213" on="1"/>
        <pt x="-29" y="263" on="0"/>
        <pt x="-15" y="263" on="1"/>
        <pt x="-6" y="263" on="0"/>
        <pt x="47" y="210" on="0"/>
        <pt x="244" y="83" on="0"/>
        <pt x="358" y="48" on="1"/>
        <pt x="349" y="73" on="0"/>
        <pt x="283" y="234" on="0"/>
        <pt x="267" y="282" on="1"/>
        <pt x="113" y="349" on="0"/>
        <pt x="-105" y="539" on="0"/>
      </contour>
    </TTGlyph>
    <TTGlyph name="E" xMin="-71" yMin="-39" xMax="609" yMax="919">
      <contour>
        <pt x="291" y="12" on="1"/>
        <pt x="342" y="12" on="0"/>
        <pt x="439" y="61" on="0"/>
        <pt x="473" y="110" on="1"/>
        <pt x="480" y="98" on="1"/>
        <pt x="444" y="33" on="0"/>
        <pt x="295" y="-39" on="0"/>
        <pt x="135" y="-39" on="0"/>
        <pt x="18" y="43" on="0"/>
        <pt x="18" y="119" on="1"/>
        <pt x="18" y="206" on="0"/>
        <pt x="88" y="269" on="1"/>
        <pt x="122" y="299" on="0"/>
        <pt x="188" y="343" on="0"/>
        <pt x="232" y="370" on="1"/>
        <pt x="304" y="415" on="0"/>
        <pt x="304" y="426" on="1"/>
        <pt x="304" y="430" on="0"/>
        <pt x="286" y="430" on="0"/>
        <pt x="118" y="408" on="0"/>
        <pt x="86" y="408" on="1"/>
        <pt x="-71" y="408" on="0"/>
        <pt x="-71" y="504" on="1"/>
        <pt x="-71" y="570" on="0"/>
        <pt x="52" y="703" on="0"/>
        <pt x="227" y="801" on="0"/>
        <pt x="413" y="879" on="0"/>
        <pt x="545" y="919" on="0"/>
        <pt x="579" y="919" on="0"/>
        <pt x="609" y="894" on="0"/>
        <pt x="609" y="878" on="1"/>
        <pt x="609" y="850" on="0"/>
        <pt x="534" y="806" on="0"/>
        <pt x="496" y="798" on="1"/>
        <pt x="459" y="790" on="1"/>
        <pt x="449" y="790" on="0"/>
        <pt x="449" y="804" on="0"/>
        <pt x="471" y="826" on="0"/>
        <pt x="471" y="830" on="0"/>
        <pt x="451" y="830" on="0"/>
        <pt x="298" y="780" on="0"/>
        <pt x="119" y="707" on="0"/>
        <pt x="-21" y="608" on="0"/>
        <pt x="-21" y="567" on="1"/>
        <pt x="-21" y="509" on="0"/>
        <pt x="98" y="509" on="1"/>
        <pt x="148" y="509" on="0"/>
        <pt x="307" y="520" on="0"/>
        <pt x="337" y="520" on="1"/>
        <pt x="390" y="520" on="0"/>
        <pt x="390" y="480" on="1"/>
        <pt x="390" y="464" on="0"/>
        <pt x="343" y="422" on="0"/>
        <pt x="246" y="359" on="0"/>
        <pt x="179" y="310" on="0"/>
        <pt x="122" y="224" on="0"/>
        <pt x="122" y="174" on="1"/>
        <pt x="122" y="12" on="0"/>
      </contour>
    </TTGlyph>
    <TTGlyph name="Eacute" xMin="-71" yMin="-39" xMax="609" yMax="973">
      <component glyphName="E" x="0" y="0" flags="0x1004"/>
      <component glyphName="acute" x="-6" y="514" flags="0x1004"/>
    </TTGlyph>
    <TTGlyph name="Ecircumflex" xMin="-71" yMin="-39" xMax="609" yMax="1015">
      <contour>
        <pt x="291" y="12" on="1"/>
        <pt x="342" y="12" on="0"/>
        <pt x="439" y="61" on="0"/>
        <pt x="473" y="110" on="1"/>
        <pt x="480" y="98" on="1"/>
        <pt x="444" y="33" on="0"/>
        <pt x="295" y="-39" on="0"/>
        <pt x="135" y="-39" on="0"/>
        <pt x="18" y="43" on="0"/>
        <pt x="18" y="119" on="1"/>
        <pt x="18" y="206" on="0"/>
        <pt x="88" y="269" on="1"/>
        <pt x="122" y="299" on="0"/>
        <pt x="188" y="343" on="0"/>
        <pt x="232" y="370" on="1"/>
        <pt x="304" y="415" on="0"/>
        <pt x="304" y="426" on="1"/>
        <pt x="304" y="430" on="0"/>
        <pt x="286" y="430" on="0"/>
        <pt x="118" y="408" on="0"/>
        <pt x="86" y="408" on="1"/>
        <pt x="-71" y="408" on="0"/>
        <pt x="-71" y="504" on="1"/>
        <pt x="-71" y="570" on="0"/>
        <pt x="52" y="703" on="0"/>
        <pt x="227" y="801" on="0"/>
        <pt x="413" y="879" on="0"/>
        <pt x="545" y="919" on="0"/>
        <pt x="579" y="919" on="0"/>
        <pt x="609" y="894" on="0"/>
        <pt x="609" y="878" on="1"/>
        <pt x="609" y="850" on="0"/>
        <pt x="534" y="806" on="0"/>
        <pt x="496" y="798" on="1"/>
        <pt x="459" y="790" on="1"/>
        <pt x="449" y="790" on="0"/>
        <pt x="449" y="804" on="0"/>
        <pt x="471" y="826" on="0"/>
        <pt x="471" y="830" on="0"/>
        <pt x="451" y="830" on="0"/>
        <pt x="298" y="780" on="0"/>
        <pt x="119" y="707" on="0"/>
        <pt x="-21" y="608" on="0"/>
        <pt x="-21" y="567" on="1"/>
        <pt x="-21" y="509" on="0"/>
        <pt x="98" y="509" on="1"/>
        <pt x="148" y="509" on="0"/>
        <pt x="307" y="520" on="0"/>
        <pt x="337" y="520" on="1"/>
        <pt x="390" y="520" on="0"/>
        <pt x="390" y="480" on="1"/>
        <pt x="390" y="464" on="0"/>
        <pt x="343" y="422" on="0"/>
        <pt x="246" y="359" on="0"/>
        <pt x="179" y="310" on="0"/>
        <pt x="122" y="224" on="0"/>
        <pt x="122" y="174" on="1"/>
        <pt x="122" y="12" on="0"/>
      </contour>
      <contour>
        <pt x="356" y="909" on="1"/>
        <pt x="356" y="896" on="0"/>
        <pt x="338" y="894" on="1"/>
        <pt x="288" y="894" on="0"/>
        <pt x="212" y="926" on="0"/>
        <pt x="194" y="949" on="1"/>
        <pt x="192" y="947" on="0"/>
        <pt x="180" y="933" on="1"/>
        <pt x="154" y="901" on="0"/>
        <pt x="117" y="870" on="1"/>
        <pt x="109" y="863" on="0"/>
        <pt x="93" y="863" on="0"/>
        <pt x="93" y="869" on="1"/>
        <pt x="135" y="902" on="0"/>
        <pt x="147" y="919" on="1"/>
        <pt x="164" y="944" on="1"/>
        <pt x="168" y="950" on="0"/>
        <pt x="174" y="962" on="1"/>
        <pt x="181" y="976" on="1"/>
        <pt x="181" y="990" on="0"/>
        <pt x="232" y="1015" on="0"/>
        <pt x="264" y="1015" on="0"/>
        <pt x="264" y="1001" on="1"/>
        <pt x="263" y="996" on="0"/>
        <pt x="263" y="987" on="1"/>
        <pt x="263" y="952" on="0"/>
        <pt x="318" y="913" on="0"/>
      </contour>
    </TTGlyph>
    <TTGlyph name="Edieresis" xMin="-71" yMin="-39" xMax="609" yMax="986">
      <component glyphName="E" x="0" y="0" flags="0x1004"/>
      <component glyphName="dieresis" x="167" y="530" flags="0x1004"/>
    </TTGlyph>
    <TTGlyph name="Egrave" xMin="-71" yMin="-39" xMax="609" yMax="987">
      <contour>
        <pt x="291" y="12" on="1"/>
        <pt x="342" y="12" on="0"/>
        <pt x="439" y="61" on="0"/>
        <pt x="473" y="110" on="1"/>
        <pt x="480" y="98" on="1"/>
        <pt x="444" y="33" on="0"/>
        <pt x="295" y="-39" on="0"/>
        <pt x="135" y="-39" on="0"/>
        <pt x="18" y="43" on="0"/>
        <pt x="18" y="119" on="1"/>
        <pt x="18" y="206" on="0"/>
        <pt x="88" y="269" on="1"/>
        <pt x="122" y="299" on="0"/>
        <pt x="188" y="343" on="0"/>
        <pt x="232" y="370" on="1"/>
        <pt x="304" y="415" on="0"/>
        <pt x="304" y="426" on="1"/>
        <pt x="304" y="430" on="0"/>
        <pt x="286" y="430" on="0"/>
        <pt x="118" y="408" on="0"/>
        <pt x="86" y="408" on="1"/>
        <pt x="-71" y="408" on="0"/>
        <pt x="-71" y="504" on="1"/>
        <pt x="-71" y="570" on="0"/>
        <pt x="52" y="703" on="0"/>
        <pt x="227" y="801" on="0"/>
        <pt x="413" y="879" on="0"/>
        <pt x="545" y="919" on="0"/>
        <pt x="579" y="919" on="0"/>
        <pt x="609" y="894" on="0"/>
        <pt x="609" y="878" on="1"/>
        <pt x="609" y="850" on="0"/>
        <pt x="534" y="806" on="0"/>
        <pt x="496" y="798" on="1"/>
        <pt x="459" y="790" on="1"/>
        <pt x="449" y="790" on="0"/>
        <pt x="449" y="804" on="0"/>
        <pt x="471" y="826" on="0"/>
        <pt x="471" y="830" on="0"/>
        <pt x="451" y="830" on="0"/>
        <pt x="298" y="780" on="0"/>
        <pt x="119" y="707" on="0"/>
        <pt x="-21" y="608" on="0"/>
        <pt x="-21" y="567" on="1"/>
        <pt x="-21" y="509" on="0"/>
        <pt x="98" y="509" on="1"/>
        <pt x="148" y="509" on="0"/>
        <pt x="307" y="520" on="0"/>
        <pt x="337" y="520" on="1"/>
        <pt x="390" y="520" on="0"/>
        <pt x="390" y="480" on="1"/>
        <pt x="390" y="464" on="0"/>
        <pt x="343" y="422" on="0"/>
        <pt x="246" y="359" on="0"/>
        <pt x="179" y="310" on="0"/>
        <pt x="122" y="224" on="0"/>
        <pt x="122" y="174" on="1"/>
        <pt x="122" y="12" on="0"/>
      </contour>
      <contour>
        <pt x="313" y="881" on="1"/>
        <pt x="313" y="868" on="0"/>
        <pt x="295" y="866" on="1"/>
        <pt x="229" y="866" on="0"/>
        <pt x="138" y="923" on="0"/>
        <pt x="138" y="948" on="1"/>
        <pt x="138" y="962" on="0"/>
        <pt x="189" y="987" on="0"/>
        <pt x="221" y="987" on="0"/>
        <pt x="221" y="973" on="1"/>
        <pt x="220" y="968" on="0"/>
        <pt x="220" y="959" on="1"/>
        <pt x="220" y="924" on="0"/>
        <pt x="275" y="885" on="0"/>
      </contour>
    </TTGlyph>
    <TTGlyph name="Eth" xMin="-105" yMin="-169" xMax="824" yMax="835">
      <contour>
        <pt x="39" y="105" on="1"/>
        <pt x="38" y="105" on="1"/>
        <pt x="77" y="22" on="0"/>
        <pt x="143" y="-54" on="1"/>
        <pt x="180" y="-97" on="0"/>
        <pt x="278" y="-150" on="0"/>
        <pt x="330" y="-150" on="1"/>
        <pt x="386" y="-145" on="0"/>
        <pt x="386" y="-82" on="1"/>
        <pt x="386" y="-57" on="0"/>
        <pt x="379" y="-22" on="1"/>
        <pt x="185" y="-5" on="0"/>
      </contour>
      <contour>
        <pt x="480" y="284" on="1"/>
        <pt x="473" y="231" on="1"/>
        <pt x="452" y="225" on="0"/>
        <pt x="396" y="220" on="1"/>
        <pt x="442" y="85" on="0"/>
        <pt x="451" y="28" on="1"/>
        <pt x="489" y="23" on="0"/>
        <pt x="520" y="23" on="1"/>
        <pt x="648" y="23" on="0"/>
        <pt x="769" y="112" on="0"/>
        <pt x="769" y="271" on="0"/>
        <pt x="639" y="483" on="0"/>
        <pt x="445" y="664" on="0"/>
        <pt x="197" y="789" on="0"/>
        <pt x="91" y="789" on="1"/>
        <pt x="48" y="789" on="0"/>
        <pt x="14" y="776" on="1"/>
        <pt x="-49" y="753" on="0"/>
        <pt x="-49" y="697" on="1"/>
        <pt x="-49" y="557" on="0"/>
        <pt x="234" y="455" on="1"/>
        <pt x="233" y="465" on="0"/>
        <pt x="233" y="505" on="0"/>
        <pt x="236" y="523" on="1"/>
        <pt x="252" y="591" on="0"/>
        <pt x="337" y="641" on="1"/>
        <pt x="343" y="643" on="0"/>
        <pt x="347" y="643" on="0"/>
        <pt x="347" y="637" on="0"/>
        <pt x="341" y="628" on="1"/>
        <pt x="323" y="608" on="0"/>
        <pt x="323" y="499" on="0"/>
        <pt x="339" y="422" on="1"/>
        <pt x="473" y="384" on="0"/>
        <pt x="595" y="369" on="1"/>
        <pt x="600" y="368" on="0"/>
        <pt x="600" y="358" on="0"/>
        <pt x="581" y="344" on="0"/>
        <pt x="531" y="331" on="0"/>
        <pt x="439" y="331" on="0"/>
        <pt x="359" y="343" on="1"/>
        <pt x="368" y="311" on="0"/>
        <pt x="382" y="266" on="1"/>
        <pt x="446" y="272" on="0"/>
      </contour>
      <contour>
        <pt x="358" y="48" on="1"/>
        <pt x="292" y="215" on="1"/>
        <pt x="226" y="213" on="0"/>
        <pt x="178" y="213" on="1"/>
        <pt x="184" y="258" on="1"/>
        <pt x="247" y="258" on="0"/>
        <pt x="275" y="259" on="1"/>
        <pt x="256" y="313" on="0"/>
        <pt x="245" y="366" on="1"/>
        <pt x="151" y="390" on="0"/>
        <pt x="2" y="458" on="0"/>
        <pt x="-105" y="569" on="0"/>
        <pt x="-105" y="634" on="1"/>
        <pt x="-105" y="711" on="0"/>
        <pt x="54" y="835" on="0"/>
        <pt x="262" y="835" on="0"/>
        <pt x="466" y="761" on="0"/>
        <pt x="629" y="638" on="0"/>
        <pt x="755" y="487" on="0"/>
        <pt x="824" y="321" on="0"/>
        <pt x="824" y="246" on="1"/>
        <pt x="824" y="127" on="0"/>
        <pt x="643" y="-21" on="0"/>
        <pt x="454" y="-25" on="1"/>
        <pt x="449" y="-77" on="0"/>
        <pt x="367" y="-169" on="0"/>
        <pt x="321" y="-169" on="1"/>
        <pt x="261" y="-169" on="0"/>
        <pt x="100" y="-49" on="0"/>
        <pt x="-33" y="120" on="0"/>
        <pt x="-63" y="196" on="1"/>
        <pt x="-66" y="202" on="0"/>
        <pt x="-66" y="206" on="1"/>
        <pt x="-61" y="213" on="1"/>
        <pt x="-29" y="263" on="0"/>
        <pt x="-15" y="263" on="1"/>
        <pt x="-6" y="263" on="0"/>
        <pt x="47" y="210" on="0"/>
        <pt x="244" y="83" on="0"/>
      </contour>
    </TTGlyph>
    <TTGlyph name="Euro" xMin="-6" yMin="-46" xMax="765" yMax="807">
      <contour>
        <pt x="521" y="524" on="1"/>
        <pt x="518" y="504" on="1"/>
        <pt x="518" y="484" on="0"/>
        <pt x="544" y="484" on="1"/>
        <pt x="594" y="484" on="0"/>
        <pt x="681" y="600" on="0"/>
        <pt x="681" y="654" on="1"/>
        <pt x="681" y="768" on="0"/>
        <pt x="552" y="768" on="1"/>
        <pt x="480" y="768" on="0"/>
        <pt x="350" y="701" on="0"/>
        <pt x="304" y="645" on="1"/>
        <pt x="209" y="529" on="0"/>
        <pt x="186" y="375" on="1"/>
        <pt x="283" y="394" on="0"/>
        <pt x="405" y="416" on="1"/>
        <pt x="404" y="396" on="0"/>
        <pt x="394" y="363" on="0"/>
        <pt x="389" y="361" on="1"/>
        <pt x="267" y="340" on="0"/>
        <pt x="181" y="322" on="1"/>
        <pt x="181" y="301" on="1"/>
        <pt x="181" y="281" on="0"/>
        <pt x="182" y="271" on="1"/>
        <pt x="275" y="290" on="0"/>
        <pt x="397" y="312" on="1"/>
        <pt x="396" y="292" on="0"/>
        <pt x="386" y="259" on="0"/>
        <pt x="381" y="257" on="1"/>
        <pt x="237" y="232" on="0"/>
        <pt x="188" y="221" on="1"/>
        <pt x="207" y="117" on="0"/>
        <pt x="345" y="-9" on="0"/>
        <pt x="588" y="-9" on="0"/>
        <pt x="680" y="110" on="1"/>
        <pt x="687" y="98" on="1"/>
        <pt x="642" y="25" on="0"/>
        <pt x="501" y="-46" on="0"/>
        <pt x="420" y="-46" on="1"/>
        <pt x="263" y="-46" on="0"/>
        <pt x="96" y="87" on="0"/>
        <pt x="82" y="197" on="1"/>
        <pt x="42" y="187" on="0"/>
        <pt x="-4" y="169" on="0"/>
        <pt x="-6" y="169" on="1"/>
        <pt x="8" y="227" on="1"/>
        <pt x="21" y="234" on="0"/>
        <pt x="80" y="249" on="1"/>
        <pt x="80" y="265" on="0"/>
        <pt x="84" y="299" on="1"/>
        <pt x="26" y="283" on="0"/>
        <pt x="4" y="273" on="0"/>
        <pt x="2" y="273" on="1"/>
        <pt x="16" y="331" on="1"/>
        <pt x="30" y="338" on="0"/>
        <pt x="95" y="354" on="1"/>
        <pt x="117" y="438" on="0"/>
        <pt x="216" y="599" on="0"/>
        <pt x="353" y="728" on="0"/>
        <pt x="532" y="807" on="0"/>
        <pt x="614" y="807" on="1"/>
        <pt x="765" y="807" on="0"/>
        <pt x="765" y="714" on="1"/>
        <pt x="765" y="660" on="0"/>
        <pt x="674" y="528" on="0"/>
        <pt x="538" y="435" on="0"/>
        <pt x="480" y="435" on="1"/>
        <pt x="451" y="435" on="0"/>
        <pt x="445" y="450" on="1"/>
        <pt x="440" y="463" on="0"/>
        <pt x="440" y="492" on="0"/>
        <pt x="494" y="534" on="0"/>
        <pt x="521" y="534" on="0"/>
      </contour>
    </TTGlyph>
    <TTGlyph name="F" xMin="-229" yMin="-218" xMax="706" yMax="877">
      <contour>
        <pt x="293" y="-103" on="1"/>
        <pt x="293" y="-165" on="0"/>
        <pt x="327" y="-165" on="1"/>
        <pt x="355" y="-165" on="0"/>
        <pt x="411" y="-82" on="0"/>
        <pt x="411" y="30" on="0"/>
        <pt x="398" y="90" on="1"/>
        <pt x="293" y="-8" on="0"/>
      </contour>
      <contour>
        <pt x="8" y="187" on="1"/>
        <pt x="123" y="260" on="0"/>
        <pt x="315" y="343" on="1"/>
        <pt x="265" y="475" on="0"/>
        <pt x="265" y="566" on="1"/>
        <pt x="265" y="627" on="0"/>
        <pt x="323" y="700" on="0"/>
        <pt x="414" y="770" on="1"/>
        <pt x="401" y="770" on="0"/>
        <pt x="157" y="689" on="0"/>
        <pt x="-144" y="572" on="0"/>
        <pt x="-205" y="533" on="1"/>
        <pt x="-219" y="525" on="0"/>
        <pt x="-229" y="525" on="0"/>
        <pt x="-229" y="538" on="1"/>
        <pt x="-229" y="564" on="0"/>
        <pt x="-204" y="610" on="1"/>
        <pt x="-196" y="624" on="1"/>
        <pt x="-165" y="662" on="0"/>
        <pt x="380" y="846" on="0"/>
        <pt x="618" y="877" on="1"/>
        <pt x="633" y="877" on="0"/>
        <pt x="633" y="867" on="0"/>
        <pt x="627" y="861" on="1"/>
        <pt x="581" y="812" on="1"/>
        <pt x="574" y="803" on="0"/>
        <pt x="488" y="786" on="0"/>
        <pt x="431" y="759" on="0"/>
        <pt x="384" y="722" on="0"/>
        <pt x="353" y="652" on="0"/>
        <pt x="353" y="549" on="0"/>
        <pt x="410" y="382" on="1"/>
        <pt x="536" y="432" on="0"/>
        <pt x="686" y="483" on="1"/>
        <pt x="698" y="485" on="0"/>
        <pt x="700" y="485" on="1"/>
        <pt x="706" y="485" on="0"/>
        <pt x="706" y="476" on="0"/>
        <pt x="671" y="413" on="0"/>
        <pt x="663" y="410" on="1"/>
        <pt x="540" y="367" on="0"/>
        <pt x="430" y="321" on="1"/>
        <pt x="458" y="233" on="0"/>
        <pt x="471" y="169" on="1"/>
        <pt x="543" y="214" on="0"/>
        <pt x="586" y="223" on="1"/>
        <pt x="601" y="223" on="0"/>
        <pt x="601" y="216" on="0"/>
        <pt x="590" y="213" on="1"/>
        <pt x="551" y="202" on="0"/>
        <pt x="474" y="151" on="1"/>
        <pt x="482" y="105" on="0"/>
        <pt x="482" y="68" on="1"/>
        <pt x="482" y="-2" on="0"/>
        <pt x="409" y="-139" on="0"/>
        <pt x="312" y="-218" on="0"/>
        <pt x="273" y="-218" on="1"/>
        <pt x="221" y="-218" on="0"/>
        <pt x="221" y="-144" on="1"/>
        <pt x="221" y="-24" on="0"/>
        <pt x="393" y="114" on="1"/>
        <pt x="376" y="184" on="0"/>
        <pt x="338" y="280" on="1"/>
        <pt x="132" y="186" on="0"/>
        <pt x="-3" y="91" on="1"/>
        <pt x="-14" y="85" on="0"/>
        <pt x="-31" y="85" on="0"/>
        <pt x="-31" y="96" on="1"/>
        <pt x="-31" y="99" on="0"/>
        <pt x="-29" y="107" on="1"/>
        <pt x="-15" y="171" on="0"/>
      </contour>
    </TTGlyph>
    <TTGlyph name="G" xMin="0" yMin="-367" xMax="841" yMax="808">
      <contour>
        <pt x="480" y="599" on="1"/>
        <pt x="471" y="580" on="1"/>
        <pt x="471" y="574" on="0"/>
        <pt x="487" y="566" on="0"/>
        <pt x="495" y="566" on="1"/>
        <pt x="541" y="566" on="0"/>
        <pt x="616" y="662" on="0"/>
        <pt x="616" y="710" on="1"/>
        <pt x="616" y="739" on="0"/>
        <pt x="582" y="774" on="0"/>
        <pt x="547" y="774" on="1"/>
        <pt x="479" y="774" on="0"/>
        <pt x="318" y="661" on="0"/>
        <pt x="191" y="495" on="0"/>
        <pt x="105" y="298" on="0"/>
        <pt x="105" y="133" on="0"/>
        <pt x="200" y="41" on="0"/>
        <pt x="358" y="41" on="0"/>
        <pt x="523" y="159" on="0"/>
        <pt x="567" y="265" on="1"/>
        <pt x="566" y="277" on="0"/>
        <pt x="566" y="291" on="1"/>
        <pt x="566" y="524" on="0"/>
        <pt x="655" y="550" on="1"/>
        <pt x="687" y="560" on="0"/>
        <pt x="694" y="560" on="1"/>
        <pt x="707" y="560" on="0"/>
        <pt x="707" y="528" on="0"/>
        <pt x="662" y="393" on="0"/>
        <pt x="662" y="326" on="1"/>
        <pt x="662" y="132" on="0"/>
        <pt x="769" y="-260" on="0"/>
        <pt x="828" y="-319" on="1"/>
        <pt x="830" y="-321" on="0"/>
        <pt x="841" y="-328" on="0"/>
        <pt x="841" y="-333" on="1"/>
        <pt x="841" y="-348" on="0"/>
        <pt x="795" y="-367" on="0"/>
        <pt x="783" y="-367" on="1"/>
        <pt x="750" y="-367" on="0"/>
        <pt x="691" y="-305" on="0"/>
        <pt x="648" y="-198" on="0"/>
        <pt x="614" y="-77" on="0"/>
        <pt x="602" y="-6" on="1"/>
        <pt x="581" y="116" on="0"/>
        <pt x="571" y="222" on="1"/>
        <pt x="513" y="111" on="0"/>
        <pt x="302" y="-19" on="0"/>
        <pt x="111" y="-19" on="0"/>
        <pt x="0" y="81" on="0"/>
        <pt x="0" y="270" on="0"/>
        <pt x="105" y="490" on="0"/>
        <pt x="272" y="680" on="0"/>
        <pt x="509" y="808" on="0"/>
        <pt x="628" y="808" on="1"/>
        <pt x="700" y="808" on="0"/>
        <pt x="700" y="757" on="1"/>
        <pt x="700" y="714" on="0"/>
        <pt x="605" y="592" on="0"/>
        <pt x="466" y="500" on="0"/>
        <pt x="411" y="500" on="1"/>
        <pt x="397" y="500" on="0"/>
        <pt x="382" y="523" on="0"/>
        <pt x="382" y="534" on="1"/>
        <pt x="382" y="554" on="0"/>
        <pt x="453" y="602" on="0"/>
        <pt x="476" y="602" on="1"/>
        <pt x="480" y="602" on="0"/>
      </contour>
    </TTGlyph>
    <TTGlyph name="H" xMin="-150" yMin="-38" xMax="760" yMax="819">
      <contour>
        <pt x="91" y="197" on="1"/>
        <pt x="73" y="275" on="1"/>
        <pt x="-1" y="300" on="0"/>
        <pt x="-79" y="330" on="1"/>
        <pt x="-80" y="330" on="0"/>
        <pt x="-80" y="329" on="1"/>
        <pt x="-79" y="308" on="0"/>
      </contour>
      <contour>
        <pt x="176" y="242" on="1"/>
        <pt x="196" y="154" on="0"/>
        <pt x="201" y="128" on="1"/>
        <pt x="439" y="-17" on="0"/>
        <pt x="506" y="-18" on="1"/>
        <pt x="452" y="175" on="1"/>
        <pt x="318" y="201" on="0"/>
      </contour>
      <contour>
        <pt x="100" y="753" on="1"/>
        <pt x="96" y="689" on="1"/>
        <pt x="96" y="596" on="0"/>
        <pt x="159" y="320" on="1"/>
        <pt x="289" y="280" on="0"/>
        <pt x="432" y="251" on="1"/>
        <pt x="391" y="406" on="0"/>
        <pt x="353" y="631" on="0"/>
        <pt x="353" y="759" on="1"/>
        <pt x="355" y="770" on="0"/>
        <pt x="430" y="819" on="0"/>
        <pt x="446" y="819" on="1"/>
        <pt x="454" y="819" on="0"/>
        <pt x="454" y="808" on="1"/>
        <pt x="449" y="738" on="1"/>
        <pt x="449" y="576" on="0"/>
        <pt x="533" y="234" on="1"/>
        <pt x="651" y="216" on="0"/>
        <pt x="753" y="213" on="1"/>
        <pt x="760" y="213" on="0"/>
        <pt x="760" y="200" on="0"/>
        <pt x="672" y="152" on="0"/>
        <pt x="664" y="152" on="1"/>
        <pt x="617" y="152" on="0"/>
        <pt x="552" y="160" on="1"/>
        <pt x="591" y="20" on="1"/>
        <pt x="591" y="3" on="0"/>
        <pt x="520" y="-38" on="1"/>
        <pt x="440" y="-38" on="0"/>
        <pt x="206" y="101" on="1"/>
        <pt x="216" y="45" on="0"/>
        <pt x="218" y="3" on="1"/>
        <pt x="216" y="1" on="0"/>
        <pt x="140" y="-35" on="0"/>
        <pt x="135" y="-35" on="1"/>
        <pt x="122" y="-35" on="0"/>
        <pt x="122" y="-16" on="1"/>
        <pt x="113" y="79" on="0"/>
        <pt x="96" y="169" on="1"/>
        <pt x="-6" y="235" on="0"/>
        <pt x="-150" y="344" on="0"/>
        <pt x="-150" y="356" on="1"/>
        <pt x="-150" y="372" on="0"/>
        <pt x="-84" y="411" on="1"/>
        <pt x="-81" y="413" on="1"/>
        <pt x="-13" y="381" on="0"/>
        <pt x="53" y="357" on="1"/>
        <pt x="-4" y="574" on="0"/>
        <pt x="-4" y="652" on="1"/>
        <pt x="-4" y="687" on="0"/>
        <pt x="4" y="707" on="1"/>
        <pt x="6" y="710" on="0"/>
        <pt x="90" y="760" on="0"/>
        <pt x="96" y="760" on="1"/>
        <pt x="100" y="760" on="0"/>
      </contour>
    </TTGlyph>
    <TTGlyph name="I" xMin="-96" yMin="-42" xMax="453" yMax="788">
      <contour>
        <pt x="36" y="734" on="1"/>
        <pt x="-33" y="734" on="0"/>
        <pt x="-33" y="589" on="1"/>
        <pt x="-33" y="480" on="0"/>
        <pt x="73" y="285" on="0"/>
        <pt x="166" y="240" on="1"/>
        <pt x="153" y="496" on="0"/>
        <pt x="134" y="587" on="1"/>
        <pt x="103" y="733" on="0"/>
      </contour>
      <contour>
        <pt x="453" y="239" on="0"/>
        <pt x="453" y="221" on="0"/>
        <pt x="401" y="176" on="0"/>
        <pt x="312" y="132" on="0"/>
        <pt x="265" y="129" on="1"/>
        <pt x="275" y="60" on="0"/>
        <pt x="309" y="6" on="0"/>
        <pt x="309" y="-2" on="0"/>
        <pt x="296" y="-11" on="0"/>
        <pt x="277" y="-20" on="1"/>
        <pt x="231" y="-42" on="0"/>
        <pt x="226" y="-42" on="1"/>
        <pt x="214" y="-42" on="0"/>
        <pt x="182" y="22" on="0"/>
        <pt x="172" y="140" on="1"/>
        <pt x="62" y="172" on="0"/>
        <pt x="-96" y="370" on="0"/>
        <pt x="-96" y="498" on="1"/>
        <pt x="-96" y="604" on="0"/>
        <pt x="-51" y="690" on="1"/>
        <pt x="-28" y="734" on="0"/>
        <pt x="55" y="788" on="0"/>
        <pt x="109" y="788" on="1"/>
        <pt x="168" y="788" on="0"/>
        <pt x="196" y="713" on="1"/>
        <pt x="226" y="635" on="0"/>
        <pt x="241" y="474" on="0"/>
        <pt x="247" y="382" on="0"/>
        <pt x="253" y="249" on="0"/>
        <pt x="256" y="213" on="1"/>
        <pt x="277" y="210" on="0"/>
        <pt x="360" y="210" on="0"/>
        <pt x="412" y="220" on="0"/>
        <pt x="443" y="239" on="0"/>
        <pt x="446" y="239" on="1"/>
      </contour>
    </TTGlyph>
    <TTGlyph name="Iacute" xMin="-96" yMin="-42" xMax="453" yMax="954">
      <component glyphName="I" x="0" y="0" flags="0x1004"/>
      <component glyphName="acute" x="-114" y="495" flags="0x1004"/>
    </TTGlyph>
    <TTGlyph name="Icircumflex" xMin="-96" yMin="-42" xMax="453" yMax="953">
      <contour>
        <pt x="36" y="734" on="1"/>
        <pt x="-33" y="734" on="0"/>
        <pt x="-33" y="589" on="1"/>
        <pt x="-33" y="480" on="0"/>
        <pt x="73" y="285" on="0"/>
        <pt x="166" y="240" on="1"/>
        <pt x="153" y="496" on="0"/>
        <pt x="134" y="587" on="1"/>
        <pt x="103" y="733" on="0"/>
      </contour>
      <contour>
        <pt x="453" y="239" on="0"/>
        <pt x="453" y="221" on="0"/>
        <pt x="401" y="176" on="0"/>
        <pt x="312" y="132" on="0"/>
        <pt x="265" y="129" on="1"/>
        <pt x="275" y="60" on="0"/>
        <pt x="309" y="6" on="0"/>
        <pt x="309" y="-2" on="0"/>
        <pt x="296" y="-11" on="0"/>
        <pt x="277" y="-20" on="1"/>
        <pt x="231" y="-42" on="0"/>
        <pt x="226" y="-42" on="1"/>
        <pt x="214" y="-42" on="0"/>
        <pt x="182" y="22" on="0"/>
        <pt x="172" y="140" on="1"/>
        <pt x="62" y="172" on="0"/>
        <pt x="-96" y="370" on="0"/>
        <pt x="-96" y="498" on="1"/>
        <pt x="-96" y="604" on="0"/>
        <pt x="-51" y="690" on="1"/>
        <pt x="-28" y="734" on="0"/>
        <pt x="55" y="788" on="0"/>
        <pt x="109" y="788" on="1"/>
        <pt x="168" y="788" on="0"/>
        <pt x="196" y="713" on="1"/>
        <pt x="226" y="635" on="0"/>
        <pt x="241" y="474" on="0"/>
        <pt x="247" y="382" on="0"/>
        <pt x="253" y="249" on="0"/>
        <pt x="256" y="213" on="1"/>
        <pt x="277" y="210" on="0"/>
        <pt x="360" y="210" on="0"/>
        <pt x="412" y="220" on="0"/>
        <pt x="443" y="239" on="0"/>
        <pt x="446" y="239" on="1"/>
      </contour>
      <contour>
        <pt x="214" y="847" on="1"/>
        <pt x="214" y="834" on="0"/>
        <pt x="196" y="832" on="1"/>
        <pt x="146" y="832" on="0"/>
        <pt x="70" y="864" on="0"/>
        <pt x="52" y="887" on="1"/>
        <pt x="50" y="885" on="0"/>
        <pt x="38" y="871" on="1"/>
        <pt x="12" y="839" on="0"/>
        <pt x="-25" y="808" on="1"/>
        <pt x="-33" y="801" on="0"/>
        <pt x="-49" y="801" on="0"/>
        <pt x="-49" y="807" on="1"/>
        <pt x="-7" y="840" on="0"/>
        <pt x="5" y="857" on="1"/>
        <pt x="22" y="882" on="1"/>
        <pt x="26" y="888" on="0"/>
        <pt x="32" y="900" on="1"/>
        <pt x="39" y="914" on="1"/>
        <pt x="39" y="928" on="0"/>
        <pt x="90" y="953" on="0"/>
        <pt x="122" y="953" on="0"/>
        <pt x="122" y="939" on="1"/>
        <pt x="121" y="934" on="0"/>
        <pt x="121" y="925" on="1"/>
        <pt x="121" y="890" on="0"/>
        <pt x="176" y="851" on="0"/>
      </contour>
    </TTGlyph>
    <TTGlyph name="Idieresis" xMin="-96" yMin="-42" xMax="453" yMax="938">
      <contour>
        <pt x="36" y="734" on="1"/>
        <pt x="-33" y="734" on="0"/>
        <pt x="-33" y="589" on="1"/>
        <pt x="-33" y="480" on="0"/>
        <pt x="73" y="285" on="0"/>
        <pt x="166" y="240" on="1"/>
        <pt x="153" y="496" on="0"/>
        <pt x="134" y="587" on="1"/>
        <pt x="103" y="733" on="0"/>
      </contour>
      <contour>
        <pt x="453" y="239" on="0"/>
        <pt x="453" y="221" on="0"/>
        <pt x="401" y="176" on="0"/>
        <pt x="312" y="132" on="0"/>
        <pt x="265" y="129" on="1"/>
        <pt x="275" y="60" on="0"/>
        <pt x="309" y="6" on="0"/>
        <pt x="309" y="-2" on="0"/>
        <pt x="296" y="-11" on="0"/>
        <pt x="277" y="-20" on="1"/>
        <pt x="231" y="-42" on="0"/>
        <pt x="226" y="-42" on="1"/>
        <pt x="214" y="-42" on="0"/>
        <pt x="182" y="22" on="0"/>
        <pt x="172" y="140" on="1"/>
        <pt x="62" y="172" on="0"/>
        <pt x="-96" y="370" on="0"/>
        <pt x="-96" y="498" on="1"/>
        <pt x="-96" y="604" on="0"/>
        <pt x="-51" y="690" on="1"/>
        <pt x="-28" y="734" on="0"/>
        <pt x="55" y="788" on="0"/>
        <pt x="109" y="788" on="1"/>
        <pt x="168" y="788" on="0"/>
        <pt x="196" y="713" on="1"/>
        <pt x="226" y="635" on="0"/>
        <pt x="241" y="474" on="0"/>
        <pt x="247" y="382" on="0"/>
        <pt x="253" y="249" on="0"/>
        <pt x="256" y="213" on="1"/>
        <pt x="277" y="210" on="0"/>
        <pt x="360" y="210" on="0"/>
        <pt x="412" y="220" on="0"/>
        <pt x="443" y="239" on="0"/>
        <pt x="446" y="239" on="1"/>
      </contour>
      <contour>
        <pt x="227" y="904" on="0"/>
        <pt x="227" y="856" on="0"/>
        <pt x="196" y="822" on="0"/>
        <pt x="153" y="822" on="0"/>
        <pt x="123" y="856" on="0"/>
        <pt x="123" y="904" on="0"/>
        <pt x="153" y="938" on="0"/>
        <pt x="196" y="938" on="0"/>
      </contour>
      <contour>
        <pt x="63" y="904" on="0"/>
        <pt x="63" y="856" on="0"/>
        <pt x="32" y="822" on="0"/>
        <pt x="-11" y="822" on="0"/>
        <pt x="-41" y="856" on="0"/>
        <pt x="-41" y="904" on="0"/>
        <pt x="-11" y="938" on="0"/>
        <pt x="32" y="938" on="0"/>
      </contour>
    </TTGlyph>
    <TTGlyph name="Igrave" xMin="-96" yMin="-42" xMax="453" yMax="946">
      <component glyphName="I" x="0" y="0" flags="0x1004"/>
      <component glyphName="grave" x="-141" y="487" flags="0x1004"/>
    </TTGlyph>
    <TTGlyph name="J" xMin="-103" yMin="-535" xMax="471" yMax="774">
      <contour>
        <pt x="94" y="702" on="0"/>
        <pt x="57" y="725" on="0"/>
        <pt x="29" y="725" on="0"/>
        <pt x="14" y="717" on="0"/>
        <pt x="-5" y="692" on="0"/>
        <pt x="-13" y="673" on="1"/>
        <pt x="-31" y="630" on="0"/>
        <pt x="-31" y="465" on="0"/>
        <pt x="29" y="292" on="0"/>
        <pt x="139" y="168" on="0"/>
        <pt x="199" y="168" on="1"/>
        <pt x="210" y="168" on="0"/>
        <pt x="218" y="172" on="1"/>
        <pt x="196" y="376" on="0"/>
        <pt x="169" y="513" on="0"/>
        <pt x="148" y="599" on="0"/>
        <pt x="123" y="654" on="0"/>
      </contour>
      <contour>
        <pt x="221" y="146" on="1"/>
        <pt x="188" y="107" on="0"/>
        <pt x="61" y="107" on="0"/>
        <pt x="-49" y="218" on="0"/>
        <pt x="-103" y="383" on="0"/>
        <pt x="-103" y="474" on="1"/>
        <pt x="-103" y="600" on="0"/>
        <pt x="9" y="774" on="0"/>
        <pt x="116" y="774" on="1"/>
        <pt x="169" y="774" on="0"/>
        <pt x="241" y="664" on="0"/>
        <pt x="280" y="477" on="0"/>
        <pt x="306" y="248" on="0"/>
        <pt x="331" y="-6" on="0"/>
        <pt x="363" y="-235" on="0"/>
        <pt x="426" y="-437" on="0"/>
        <pt x="471" y="-492" on="1"/>
        <pt x="471" y="-504" on="0"/>
        <pt x="419" y="-535" on="0"/>
        <pt x="402" y="-535" on="1"/>
        <pt x="362" y="-508" on="0"/>
        <pt x="303" y="-389" on="0"/>
        <pt x="259" y="-159" on="0"/>
        <pt x="241" y="-28" on="0"/>
        <pt x="222" y="141" on="0"/>
      </contour>
    </TTGlyph>
    <TTGlyph name="K" xMin="-96" yMin="-64" xMax="786" yMax="801">
      <contour>
        <pt x="751" y="23" on="1"/>
        <pt x="781" y="28" on="1"/>
        <pt x="786" y="28" on="0"/>
        <pt x="786" y="23" on="1"/>
        <pt x="786" y="5" on="0"/>
        <pt x="706" y="-49" on="0"/>
        <pt x="682" y="-49" on="1"/>
        <pt x="600" y="-49" on="0"/>
        <pt x="443" y="88" on="1"/>
        <pt x="378" y="144" on="0"/>
        <pt x="314" y="201" on="1"/>
        <pt x="162" y="338" on="0"/>
        <pt x="94" y="338" on="1"/>
        <pt x="88" y="337" on="1"/>
        <pt x="169" y="102" on="0"/>
        <pt x="169" y="35" on="1"/>
        <pt x="169" y="-5" on="0"/>
        <pt x="103" y="-64" on="0"/>
        <pt x="82" y="-64" on="1"/>
        <pt x="77" y="-64" on="0"/>
        <pt x="77" y="-44" on="1"/>
        <pt x="76" y="31" on="0"/>
        <pt x="22" y="242" on="0"/>
        <pt x="-42" y="419" on="0"/>
        <pt x="-96" y="625" on="0"/>
        <pt x="-96" y="695" on="1"/>
        <pt x="-96" y="727" on="0"/>
        <pt x="-10" y="786" on="0"/>
        <pt x="6" y="786" on="1"/>
        <pt x="11" y="786" on="0"/>
        <pt x="11" y="777" on="0"/>
        <pt x="-4" y="728" on="0"/>
        <pt x="-4" y="719" on="1"/>
        <pt x="-4" y="613" on="0"/>
        <pt x="77" y="368" on="1"/>
        <pt x="110" y="427" on="0"/>
        <pt x="137" y="431" on="1"/>
        <pt x="184" y="431" on="0"/>
        <pt x="327" y="554" on="0"/>
        <pt x="427" y="686" on="0"/>
        <pt x="428" y="706" on="1"/>
        <pt x="426" y="704" on="0"/>
        <pt x="385" y="686" on="0"/>
        <pt x="370" y="686" on="0"/>
        <pt x="370" y="698" on="0"/>
        <pt x="381" y="703" on="1"/>
        <pt x="464" y="747" on="0"/>
        <pt x="497" y="800" on="1"/>
        <pt x="498" y="801" on="0"/>
        <pt x="514" y="801" on="0"/>
        <pt x="530" y="796" on="1"/>
        <pt x="567" y="784" on="0"/>
        <pt x="567" y="781" on="1"/>
        <pt x="567" y="749" on="0"/>
        <pt x="463" y="623" on="0"/>
        <pt x="324" y="502" on="0"/>
        <pt x="176" y="411" on="0"/>
        <pt x="137" y="411" on="1"/>
        <pt x="185" y="409" on="0"/>
        <pt x="317" y="328" on="0"/>
        <pt x="448" y="214" on="0"/>
        <pt x="513" y="158" on="1"/>
        <pt x="670" y="23" on="0"/>
      </contour>
    </TTGlyph>
    <TTGlyph name="L" xMin="-148" yMin="-125" xMax="821" yMax="836">
      <contour>
        <pt x="247" y="795" on="0"/>
        <pt x="204" y="720" on="0"/>
        <pt x="204" y="609" on="0"/>
        <pt x="219" y="552" on="1"/>
        <pt x="268" y="602" on="0"/>
        <pt x="327" y="711" on="0"/>
        <pt x="327" y="748" on="1"/>
        <pt x="327" y="795" on="0"/>
        <pt x="282" y="795" on="1"/>
      </contour>
      <contour>
        <pt x="299" y="-22" on="1"/>
        <pt x="299" y="-7" on="0"/>
        <pt x="296" y="8" on="1"/>
        <pt x="202" y="19" on="0"/>
        <pt x="41" y="57" on="0"/>
        <pt x="22" y="67" on="1"/>
        <pt x="46" y="3" on="0"/>
        <pt x="100" y="-49" on="1"/>
        <pt x="122" y="-71" on="0"/>
        <pt x="192" y="-105" on="0"/>
        <pt x="231" y="-105" on="1"/>
        <pt x="299" y="-105" on="0"/>
      </contour>
      <contour>
        <pt x="-125" y="364" on="1"/>
        <pt x="-148" y="364" on="0"/>
        <pt x="-148" y="391" on="0"/>
        <pt x="-112" y="426" on="0"/>
        <pt x="-99" y="426" on="1"/>
        <pt x="-65" y="422" on="0"/>
        <pt x="-52" y="422" on="1"/>
        <pt x="38" y="422" on="0"/>
        <pt x="130" y="479" on="1"/>
        <pt x="118" y="524" on="0"/>
        <pt x="118" y="562" on="1"/>
        <pt x="118" y="681" on="0"/>
        <pt x="266" y="836" on="0"/>
        <pt x="341" y="836" on="1"/>
        <pt x="401" y="836" on="0"/>
        <pt x="401" y="788" on="1"/>
        <pt x="401" y="743" on="0"/>
        <pt x="302" y="601" on="0"/>
        <pt x="224" y="532" on="1"/>
        <pt x="241" y="473" on="0"/>
        <pt x="317" y="289" on="0"/>
        <pt x="372" y="131" on="0"/>
        <pt x="376" y="70" on="1"/>
        <pt x="465" y="56" on="0"/>
        <pt x="547" y="56" on="1"/>
        <pt x="720" y="56" on="0"/>
        <pt x="813" y="124" on="1"/>
        <pt x="821" y="124" on="0"/>
        <pt x="821" y="117" on="1"/>
        <pt x="716" y="-1" on="0"/>
        <pt x="452" y="-1" on="1"/>
        <pt x="412" y="-1" on="0"/>
        <pt x="371" y="2" on="1"/>
        <pt x="359" y="-52" on="0"/>
        <pt x="285" y="-125" on="0"/>
        <pt x="181" y="-125" on="0"/>
        <pt x="73" y="-64" on="0"/>
        <pt x="-3" y="17" on="0"/>
        <pt x="-53" y="92" on="0"/>
        <pt x="-53" y="108" on="1"/>
        <pt x="-53" y="117" on="0"/>
        <pt x="6" y="168" on="0"/>
        <pt x="26" y="168" on="1"/>
        <pt x="139" y="119" on="0"/>
        <pt x="276" y="89" on="1"/>
        <pt x="260" y="138" on="0"/>
        <pt x="152" y="399" on="0"/>
        <pt x="134" y="462" on="1"/>
        <pt x="-10" y="364" on="0"/>
      </contour>
    </TTGlyph>
    <TTGlyph name="Lslash" xMin="-148" yMin="-125" xMax="821" yMax="836">
      <contour>
        <pt x="247" y="795" on="0"/>
        <pt x="204" y="720" on="0"/>
        <pt x="204" y="609" on="0"/>
        <pt x="219" y="552" on="1"/>
        <pt x="268" y="602" on="0"/>
        <pt x="327" y="711" on="0"/>
        <pt x="327" y="748" on="1"/>
        <pt x="327" y="795" on="0"/>
        <pt x="282" y="795" on="1"/>
      </contour>
      <contour>
        <pt x="299" y="-22" on="1"/>
        <pt x="299" y="-7" on="0"/>
        <pt x="296" y="8" on="1"/>
        <pt x="202" y="19" on="0"/>
        <pt x="41" y="57" on="0"/>
        <pt x="22" y="67" on="1"/>
        <pt x="46" y="3" on="0"/>
        <pt x="100" y="-49" on="1"/>
        <pt x="122" y="-71" on="0"/>
        <pt x="192" y="-105" on="0"/>
        <pt x="231" y="-105" on="1"/>
        <pt x="299" y="-105" on="0"/>
      </contour>
      <contour>
        <pt x="-125" y="364" on="1"/>
        <pt x="-148" y="364" on="0"/>
        <pt x="-148" y="391" on="0"/>
        <pt x="-112" y="426" on="0"/>
        <pt x="-99" y="426" on="1"/>
        <pt x="-65" y="422" on="0"/>
        <pt x="-52" y="422" on="1"/>
        <pt x="38" y="422" on="0"/>
        <pt x="130" y="479" on="1"/>
        <pt x="118" y="524" on="0"/>
        <pt x="118" y="562" on="1"/>
        <pt x="118" y="681" on="0"/>
        <pt x="266" y="836" on="0"/>
        <pt x="341" y="836" on="1"/>
        <pt x="401" y="836" on="0"/>
        <pt x="401" y="788" on="1"/>
        <pt x="401" y="743" on="0"/>
        <pt x="302" y="601" on="0"/>
        <pt x="224" y="532" on="1"/>
        <pt x="246" y="454" on="0"/>
        <pt x="300" y="325" on="1"/>
        <pt x="375" y="333" on="0"/>
        <pt x="407" y="344" on="1"/>
        <pt x="400" y="291" on="1"/>
        <pt x="375" y="285" on="0"/>
        <pt x="319" y="280" on="1"/>
        <pt x="370" y="147" on="0"/>
        <pt x="376" y="70" on="1"/>
        <pt x="465" y="56" on="0"/>
        <pt x="547" y="56" on="1"/>
        <pt x="720" y="56" on="0"/>
        <pt x="813" y="124" on="1"/>
        <pt x="821" y="124" on="0"/>
        <pt x="821" y="117" on="1"/>
        <pt x="716" y="-1" on="0"/>
        <pt x="452" y="-1" on="1"/>
        <pt x="412" y="-1" on="0"/>
        <pt x="371" y="2" on="1"/>
        <pt x="359" y="-52" on="0"/>
        <pt x="285" y="-125" on="0"/>
        <pt x="181" y="-125" on="0"/>
        <pt x="73" y="-64" on="0"/>
        <pt x="-3" y="17" on="0"/>
        <pt x="-53" y="92" on="0"/>
        <pt x="-53" y="108" on="1"/>
        <pt x="-53" y="117" on="0"/>
        <pt x="6" y="168" on="0"/>
        <pt x="26" y="168" on="1"/>
        <pt x="139" y="119" on="0"/>
        <pt x="276" y="89" on="1"/>
        <pt x="251" y="162" on="0"/>
        <pt x="203" y="274" on="1"/>
        <pt x="174" y="273" on="0"/>
        <pt x="105" y="273" on="1"/>
        <pt x="111" y="318" on="1"/>
        <pt x="162" y="318" on="0"/>
        <pt x="185" y="319" on="1"/>
        <pt x="152" y="400" on="0"/>
        <pt x="134" y="462" on="1"/>
        <pt x="-10" y="364" on="0"/>
      </contour>
    </TTGlyph>
    <TTGlyph name="M" xMin="-141" yMin="-46" xMax="1037" yMax="747">
      <contour>
        <pt x="-141" y="716" on="1"/>
        <pt x="-141" y="728" on="0"/>
        <pt x="-56" y="747" on="0"/>
        <pt x="-9" y="747" on="0"/>
        <pt x="9" y="709" on="1"/>
        <pt x="28" y="668" on="0"/>
        <pt x="69" y="556" on="0"/>
        <pt x="68" y="556" on="1"/>
        <pt x="101" y="625" on="0"/>
        <pt x="191" y="705" on="0"/>
        <pt x="243" y="705" on="1"/>
        <pt x="279" y="705" on="0"/>
        <pt x="336" y="637" on="0"/>
        <pt x="354" y="586" on="1"/>
        <pt x="388" y="488" on="0"/>
        <pt x="408" y="300" on="1"/>
        <pt x="422" y="132" on="1"/>
        <pt x="424" y="132" on="0"/>
        <pt x="481" y="370" on="0"/>
        <pt x="500" y="444" on="1"/>
        <pt x="547" y="628" on="0"/>
        <pt x="556" y="640" on="1"/>
        <pt x="560" y="649" on="0"/>
        <pt x="632" y="673" on="0"/>
        <pt x="648" y="673" on="1"/>
        <pt x="652" y="673" on="0"/>
        <pt x="652" y="662" on="1"/>
        <pt x="651" y="648" on="1"/>
        <pt x="650" y="634" on="0"/>
        <pt x="650" y="571" on="0"/>
        <pt x="654" y="496" on="0"/>
        <pt x="669" y="374" on="0"/>
        <pt x="694" y="264" on="0"/>
        <pt x="741" y="147" on="0"/>
        <pt x="804" y="62" on="0"/>
        <pt x="900" y="7" on="0"/>
        <pt x="959" y="7" on="1"/>
        <pt x="988" y="7" on="0"/>
        <pt x="1012" y="17" on="0"/>
        <pt x="1027" y="25" on="0"/>
        <pt x="1029" y="26" on="1"/>
        <pt x="1037" y="26" on="0"/>
        <pt x="1037" y="16" on="1"/>
        <pt x="1037" y="-1" on="0"/>
        <pt x="917" y="-46" on="0"/>
        <pt x="876" y="-46" on="1"/>
        <pt x="776" y="-46" on="0"/>
        <pt x="629" y="139" on="0"/>
        <pt x="561" y="418" on="0"/>
        <pt x="561" y="582" on="1"/>
        <pt x="556" y="582" on="1"/>
        <pt x="427" y="65" on="1"/>
        <pt x="422" y="2" on="0"/>
        <pt x="415" y="-4" on="1"/>
        <pt x="371" y="-34" on="0"/>
        <pt x="346" y="-34" on="0"/>
        <pt x="345" y="-10" on="1"/>
        <pt x="342" y="95" on="0"/>
        <pt x="307" y="357" on="0"/>
        <pt x="271" y="519" on="0"/>
        <pt x="211" y="634" on="0"/>
        <pt x="146" y="634" on="0"/>
        <pt x="93" y="578" on="0"/>
        <pt x="78" y="528" on="1"/>
        <pt x="94" y="450" on="0"/>
        <pt x="138" y="119" on="0"/>
        <pt x="138" y="16" on="1"/>
        <pt x="138" y="-13" on="0"/>
        <pt x="102" y="-46" on="0"/>
        <pt x="68" y="-46" on="0"/>
        <pt x="34" y="29" on="0"/>
        <pt x="11" y="173" on="0"/>
        <pt x="11" y="283" on="0"/>
        <pt x="15" y="351" on="1"/>
        <pt x="-5" y="493" on="0"/>
        <pt x="-46" y="602" on="1"/>
        <pt x="-60" y="642" on="0"/>
        <pt x="-105" y="703" on="0"/>
        <pt x="-128" y="705" on="1"/>
        <pt x="-141" y="707" on="0"/>
      </contour>
    </TTGlyph>
    <TTGlyph name="N" xMin="-106" yMin="-45" xMax="727" yMax="737">
      <contour>
        <pt x="693" y="7" on="1"/>
        <pt x="715" y="8" on="1"/>
        <pt x="727" y="8" on="0"/>
        <pt x="727" y="-13" on="0"/>
        <pt x="644" y="-45" on="0"/>
        <pt x="612" y="-45" on="1"/>
        <pt x="541" y="-45" on="0"/>
        <pt x="431" y="54" on="0"/>
        <pt x="370" y="200" on="0"/>
        <pt x="350" y="296" on="1"/>
        <pt x="319" y="452" on="0"/>
        <pt x="319" y="626" on="1"/>
        <pt x="241" y="359" on="0"/>
        <pt x="145" y="-26" on="1"/>
        <pt x="95" y="-45" on="0"/>
        <pt x="73" y="-45" on="0"/>
        <pt x="73" y="-31" on="1"/>
        <pt x="53" y="425" on="0"/>
        <pt x="-26" y="610" on="1"/>
        <pt x="-58" y="683" on="0"/>
        <pt x="-97" y="695" on="1"/>
        <pt x="-106" y="698" on="0"/>
        <pt x="-106" y="702" on="1"/>
        <pt x="-106" y="708" on="0"/>
        <pt x="-18" y="737" on="0"/>
        <pt x="-5" y="737" on="1"/>
        <pt x="67" y="705" on="0"/>
        <pt x="127" y="416" on="0"/>
        <pt x="147" y="86" on="1"/>
        <pt x="147" y="82" on="0"/>
        <pt x="150" y="82" on="1"/>
        <pt x="152" y="83" on="1"/>
        <pt x="300" y="652" on="1"/>
        <pt x="315" y="652" on="0"/>
        <pt x="382" y="696" on="0"/>
        <pt x="406" y="696" on="0"/>
        <pt x="406" y="687" on="1"/>
        <pt x="406" y="433" on="0"/>
        <pt x="466" y="234" on="1"/>
        <pt x="498" y="131" on="0"/>
        <pt x="614" y="7" on="0"/>
      </contour>
    </TTGlyph>
    <TTGlyph name="Ntilde" xMin="-87" yMin="-45" xMax="746" yMax="889">
      <contour>
        <pt x="712" y="7" on="1"/>
        <pt x="734" y="8" on="1"/>
        <pt x="746" y="8" on="0"/>
        <pt x="746" y="-13" on="0"/>
        <pt x="663" y="-45" on="0"/>
        <pt x="631" y="-45" on="1"/>
        <pt x="560" y="-45" on="0"/>
        <pt x="450" y="54" on="0"/>
        <pt x="389" y="200" on="0"/>
        <pt x="370" y="296" on="1"/>
        <pt x="338" y="452" on="0"/>
        <pt x="338" y="626" on="1"/>
        <pt x="260" y="359" on="0"/>
        <pt x="164" y="-26" on="1"/>
        <pt x="114" y="-45" on="0"/>
        <pt x="92" y="-45" on="0"/>
        <pt x="92" y="-31" on="1"/>
        <pt x="72" y="425" on="0"/>
        <pt x="-8" y="610" on="1"/>
        <pt x="-39" y="683" on="0"/>
        <pt x="-78" y="695" on="1"/>
        <pt x="-87" y="698" on="0"/>
        <pt x="-87" y="702" on="1"/>
        <pt x="-87" y="708" on="0"/>
        <pt x="1" y="737" on="0"/>
        <pt x="14" y="737" on="1"/>
        <pt x="86" y="705" on="0"/>
        <pt x="146" y="416" on="0"/>
        <pt x="166" y="86" on="1"/>
        <pt x="166" y="82" on="0"/>
        <pt x="169" y="82" on="1"/>
        <pt x="171" y="83" on="1"/>
        <pt x="319" y="652" on="1"/>
        <pt x="334" y="652" on="0"/>
        <pt x="401" y="696" on="0"/>
        <pt x="425" y="696" on="0"/>
        <pt x="425" y="687" on="1"/>
        <pt x="425" y="433" on="0"/>
        <pt x="486" y="234" on="1"/>
        <pt x="517" y="131" on="0"/>
        <pt x="633" y="7" on="0"/>
      </contour>
      <contour>
        <pt x="157" y="855" on="1"/>
        <pt x="242" y="845" on="1"/>
        <pt x="271" y="845" on="0"/>
        <pt x="311" y="889" on="1"/>
        <pt x="319" y="889" on="0"/>
        <pt x="319" y="877" on="1"/>
        <pt x="319" y="853" on="0"/>
        <pt x="248" y="784" on="0"/>
        <pt x="207" y="784" on="1"/>
        <pt x="195" y="784" on="0"/>
        <pt x="133" y="801" on="0"/>
        <pt x="123" y="801" on="1"/>
        <pt x="89" y="801" on="0"/>
        <pt x="75" y="766" on="1"/>
        <pt x="64" y="766" on="0"/>
        <pt x="64" y="777" on="1"/>
        <pt x="64" y="812" on="0"/>
        <pt x="127" y="855" on="0"/>
      </contour>
    </TTGlyph>
    <TTGlyph name="O" xMin="-8" yMin="-43" xMax="737" yMax="770">
      <contour>
        <pt x="295" y="748" on="1"/>
        <pt x="196" y="699" on="0"/>
        <pt x="79" y="475" on="0"/>
        <pt x="79" y="351" on="1"/>
        <pt x="79" y="217" on="0"/>
        <pt x="150" y="118" on="1"/>
        <pt x="185" y="70" on="0"/>
        <pt x="305" y="12" on="0"/>
        <pt x="466" y="12" on="0"/>
        <pt x="596" y="122" on="0"/>
        <pt x="658" y="287" on="0"/>
        <pt x="658" y="379" on="1"/>
        <pt x="658" y="510" on="0"/>
        <pt x="527" y="694" on="0"/>
        <pt x="404" y="694" on="1"/>
        <pt x="262" y="694" on="0"/>
        <pt x="214" y="519" on="1"/>
        <pt x="212" y="510" on="0"/>
        <pt x="204" y="510" on="1"/>
        <pt x="198" y="510" on="0"/>
        <pt x="198" y="521" on="1"/>
        <pt x="198" y="564" on="0"/>
        <pt x="272" y="673" on="0"/>
        <pt x="406" y="756" on="0"/>
        <pt x="479" y="756" on="1"/>
        <pt x="607" y="756" on="0"/>
        <pt x="737" y="595" on="0"/>
        <pt x="737" y="471" on="1"/>
        <pt x="737" y="384" on="0"/>
        <pt x="674" y="204" on="0"/>
        <pt x="564" y="53" on="0"/>
        <pt x="395" y="-43" on="0"/>
        <pt x="299" y="-43" on="1"/>
        <pt x="154" y="-43" on="0"/>
        <pt x="-8" y="147" on="0"/>
        <pt x="-8" y="428" on="0"/>
        <pt x="149" y="693" on="0"/>
        <pt x="296" y="770" on="1"/>
        <pt x="298" y="770" on="1"/>
        <pt x="302" y="770" on="0"/>
        <pt x="302" y="752" on="0"/>
      </contour>
    </TTGlyph>
    <TTGlyph name="OE" xMin="-8" yMin="-43" xMax="1170" yMax="919">
      <contour>
        <pt x="852" y="12" on="1"/>
        <pt x="903" y="12" on="0"/>
        <pt x="1000" y="61" on="0"/>
        <pt x="1034" y="110" on="1"/>
        <pt x="1041" y="98" on="1"/>
        <pt x="1005" y="33" on="0"/>
        <pt x="856" y="-39" on="0"/>
        <pt x="707" y="-39" on="0"/>
        <pt x="596" y="25" on="0"/>
        <pt x="582" y="85" on="1"/>
        <pt x="461" y="-43" on="0"/>
        <pt x="299" y="-43" on="1"/>
        <pt x="154" y="-43" on="0"/>
        <pt x="-8" y="147" on="0"/>
        <pt x="-8" y="428" on="0"/>
        <pt x="149" y="693" on="0"/>
        <pt x="296" y="770" on="1"/>
        <pt x="298" y="770" on="1"/>
        <pt x="302" y="770" on="0"/>
        <pt x="302" y="752" on="0"/>
        <pt x="295" y="748" on="1"/>
        <pt x="196" y="699" on="0"/>
        <pt x="79" y="475" on="0"/>
        <pt x="79" y="351" on="1"/>
        <pt x="79" y="217" on="0"/>
        <pt x="150" y="118" on="1"/>
        <pt x="185" y="70" on="0"/>
        <pt x="305" y="12" on="0"/>
        <pt x="381" y="12" on="1"/>
        <pt x="500" y="12" on="0"/>
        <pt x="579" y="119" on="1"/>
        <pt x="579" y="206" on="0"/>
        <pt x="650" y="269" on="1"/>
        <pt x="683" y="299" on="0"/>
        <pt x="749" y="343" on="0"/>
        <pt x="792" y="370" on="1"/>
        <pt x="865" y="415" on="0"/>
        <pt x="865" y="426" on="1"/>
        <pt x="865" y="430" on="0"/>
        <pt x="847" y="430" on="0"/>
        <pt x="679" y="408" on="0"/>
        <pt x="647" y="408" on="1"/>
        <pt x="490" y="408" on="0"/>
        <pt x="490" y="504" on="1"/>
        <pt x="490" y="571" on="0"/>
        <pt x="555" y="641" on="1"/>
        <pt x="492" y="694" on="0"/>
        <pt x="404" y="694" on="1"/>
        <pt x="262" y="694" on="0"/>
        <pt x="214" y="519" on="1"/>
        <pt x="212" y="510" on="0"/>
        <pt x="204" y="510" on="1"/>
        <pt x="198" y="510" on="0"/>
        <pt x="198" y="521" on="1"/>
        <pt x="198" y="564" on="0"/>
        <pt x="272" y="673" on="0"/>
        <pt x="406" y="756" on="0"/>
        <pt x="573" y="756" on="0"/>
        <pt x="636" y="710" on="1"/>
        <pt x="716" y="767" on="0"/>
        <pt x="947" y="870" on="0"/>
        <pt x="1103" y="919" on="0"/>
        <pt x="1140" y="919" on="0"/>
        <pt x="1170" y="894" on="0"/>
        <pt x="1170" y="878" on="1"/>
        <pt x="1170" y="850" on="0"/>
        <pt x="1095" y="806" on="0"/>
        <pt x="1058" y="798" on="1"/>
        <pt x="1020" y="790" on="1"/>
        <pt x="1010" y="790" on="0"/>
        <pt x="1010" y="804" on="0"/>
        <pt x="1032" y="826" on="0"/>
        <pt x="1032" y="830" on="0"/>
        <pt x="1012" y="830" on="0"/>
        <pt x="859" y="780" on="0"/>
        <pt x="680" y="707" on="0"/>
        <pt x="540" y="608" on="0"/>
        <pt x="540" y="567" on="1"/>
        <pt x="540" y="509" on="0"/>
        <pt x="659" y="509" on="1"/>
        <pt x="709" y="509" on="0"/>
        <pt x="868" y="520" on="0"/>
        <pt x="898" y="520" on="1"/>
        <pt x="951" y="520" on="0"/>
        <pt x="951" y="480" on="1"/>
        <pt x="951" y="464" on="0"/>
        <pt x="904" y="422" on="0"/>
        <pt x="807" y="359" on="0"/>
        <pt x="740" y="310" on="0"/>
        <pt x="683" y="224" on="0"/>
        <pt x="683" y="174" on="1"/>
        <pt x="683" y="12" on="0"/>
      </contour>
    </TTGlyph>
    <TTGlyph name="Oacute" xMin="-8" yMin="-43" xMax="737" yMax="940">
      <component glyphName="O" x="0" y="0" flags="0x1004"/>
      <component glyphName="acute" x="124" y="481" flags="0x1004"/>
    </TTGlyph>
    <TTGlyph name="Ocircumflex" xMin="-8" yMin="-43" xMax="737" yMax="943">
      <component glyphName="O" x="0" y="0" flags="0x1004"/>
      <component glyphName="circumflex" x="169" y="484" flags="0x1004"/>
    </TTGlyph>
    <TTGlyph name="Odieresis" xMin="-8" yMin="-43" xMax="737" yMax="920">
      <component glyphName="O" x="0" y="0" flags="0x1004"/>
      <component glyphName="dieresis" x="296" y="464" flags="0x1004"/>
    </TTGlyph>
    <TTGlyph name="Ograve" xMin="-8" yMin="-43" xMax="737" yMax="939">
      <contour>
        <pt x="295" y="748" on="1"/>
        <pt x="196" y="699" on="0"/>
        <pt x="79" y="475" on="0"/>
        <pt x="79" y="351" on="1"/>
        <pt x="79" y="217" on="0"/>
        <pt x="150" y="118" on="1"/>
        <pt x="185" y="70" on="0"/>
        <pt x="305" y="12" on="0"/>
        <pt x="466" y="12" on="0"/>
        <pt x="596" y="122" on="0"/>
        <pt x="658" y="287" on="0"/>
        <pt x="658" y="379" on="1"/>
        <pt x="658" y="510" on="0"/>
        <pt x="527" y="694" on="0"/>
        <pt x="404" y="694" on="1"/>
        <pt x="262" y="694" on="0"/>
        <pt x="214" y="519" on="1"/>
        <pt x="212" y="510" on="0"/>
        <pt x="204" y="510" on="1"/>
        <pt x="198" y="510" on="0"/>
        <pt x="198" y="521" on="1"/>
        <pt x="198" y="564" on="0"/>
        <pt x="272" y="673" on="0"/>
        <pt x="406" y="756" on="0"/>
        <pt x="479" y="756" on="1"/>
        <pt x="607" y="756" on="0"/>
        <pt x="737" y="595" on="0"/>
        <pt x="737" y="471" on="1"/>
        <pt x="737" y="384" on="0"/>
        <pt x="674" y="204" on="0"/>
        <pt x="564" y="53" on="0"/>
        <pt x="395" y="-43" on="0"/>
        <pt x="299" y="-43" on="1"/>
        <pt x="154" y="-43" on="0"/>
        <pt x="-8" y="147" on="0"/>
        <pt x="-8" y="428" on="0"/>
        <pt x="149" y="693" on="0"/>
        <pt x="296" y="770" on="1"/>
        <pt x="298" y="770" on="1"/>
        <pt x="302" y="770" on="0"/>
        <pt x="302" y="752" on="0"/>
      </contour>
      <contour>
        <pt x="423" y="833" on="1"/>
        <pt x="423" y="820" on="0"/>
        <pt x="405" y="818" on="1"/>
        <pt x="339" y="818" on="0"/>
        <pt x="248" y="875" on="0"/>
        <pt x="248" y="900" on="1"/>
        <pt x="248" y="914" on="0"/>
        <pt x="299" y="939" on="0"/>
        <pt x="331" y="939" on="0"/>
        <pt x="331" y="925" on="1"/>
        <pt x="330" y="920" on="0"/>
        <pt x="330" y="911" on="1"/>
        <pt x="330" y="876" on="0"/>
        <pt x="385" y="837" on="0"/>
      </contour>
    </TTGlyph>
    <TTGlyph name="Oslash" xMin="-8" yMin="-124" xMax="737" yMax="857">
      <contour>
        <pt x="275" y="28" on="1"/>
        <pt x="325" y="12" on="0"/>
        <pt x="381" y="12" on="1"/>
        <pt x="466" y="12" on="0"/>
        <pt x="596" y="122" on="0"/>
        <pt x="658" y="287" on="0"/>
        <pt x="658" y="468" on="0"/>
        <pt x="594" y="618" on="0"/>
        <pt x="533" y="658" on="1"/>
        <pt x="457" y="492" on="0"/>
      </contour>
      <contour>
        <pt x="295" y="748" on="1"/>
        <pt x="196" y="699" on="0"/>
        <pt x="79" y="475" on="0"/>
        <pt x="79" y="351" on="1"/>
        <pt x="79" y="255" on="0"/>
        <pt x="154" y="92" on="0"/>
        <pt x="229" y="49" on="1"/>
        <pt x="402" y="490" on="0"/>
        <pt x="484" y="681" on="1"/>
        <pt x="445" y="694" on="0"/>
        <pt x="404" y="694" on="1"/>
        <pt x="262" y="694" on="0"/>
        <pt x="214" y="519" on="1"/>
        <pt x="212" y="510" on="0"/>
        <pt x="204" y="510" on="1"/>
        <pt x="198" y="510" on="0"/>
        <pt x="198" y="521" on="1"/>
        <pt x="198" y="564" on="0"/>
        <pt x="272" y="673" on="0"/>
        <pt x="406" y="756" on="0"/>
        <pt x="479" y="756" on="1"/>
        <pt x="492" y="756" on="0"/>
        <pt x="516" y="754" on="1"/>
        <pt x="541" y="808" on="0"/>
        <pt x="550" y="819" on="1"/>
        <pt x="568" y="839" on="0"/>
        <pt x="621" y="857" on="1"/>
        <pt x="625" y="853" on="0"/>
        <pt x="615" y="830" on="1"/>
        <pt x="572" y="741" on="1"/>
        <pt x="654" y="714" on="0"/>
        <pt x="737" y="569" on="0"/>
        <pt x="737" y="384" on="0"/>
        <pt x="674" y="204" on="0"/>
        <pt x="564" y="53" on="0"/>
        <pt x="395" y="-43" on="0"/>
        <pt x="299" y="-43" on="1"/>
        <pt x="281" y="-43" on="0"/>
        <pt x="249" y="-39" on="1"/>
        <pt x="241" y="-66" on="0"/>
        <pt x="230" y="-82" on="1"/>
        <pt x="214" y="-102" on="0"/>
        <pt x="156" y="-124" on="1"/>
        <pt x="198" y="-47" on="0"/>
        <pt x="198" y="-28" on="1"/>
        <pt x="99" y="2" on="0"/>
        <pt x="-8" y="175" on="0"/>
        <pt x="-8" y="289" on="1"/>
        <pt x="-8" y="428" on="0"/>
        <pt x="149" y="693" on="0"/>
        <pt x="296" y="770" on="1"/>
        <pt x="298" y="770" on="1"/>
        <pt x="302" y="770" on="0"/>
        <pt x="302" y="752" on="0"/>
      </contour>
    </TTGlyph>
    <TTGlyph name="Otilde" xMin="-8" yMin="-43" xMax="737" yMax="917">
      <component glyphName="O" x="0" y="0" flags="0x1004"/>
      <component glyphName="tilde" x="160" y="484" flags="0x1004"/>
    </TTGlyph>
    <TTGlyph name="P" xMin="-109" yMin="-62" xMax="809" yMax="875">
      <contour>
        <pt x="398" y="348" on="0"/>
        <pt x="348" y="481" on="0"/>
        <pt x="348" y="560" on="0"/>
        <pt x="370" y="614" on="0"/>
        <pt x="386" y="630" on="1"/>
        <pt x="418" y="663" on="0"/>
        <pt x="446" y="676" on="1"/>
        <pt x="457" y="681" on="1"/>
        <pt x="463" y="681" on="0"/>
        <pt x="463" y="670" on="0"/>
        <pt x="458" y="666" on="1"/>
        <pt x="434" y="642" on="0"/>
        <pt x="434" y="555" on="0"/>
        <pt x="487" y="429" on="1"/>
        <pt x="525" y="463" on="0"/>
        <pt x="581" y="463" on="0"/>
        <pt x="647" y="434" on="0"/>
        <pt x="665" y="434" on="1"/>
        <pt x="699" y="434" on="0"/>
        <pt x="737" y="491" on="0"/>
        <pt x="737" y="523" on="1"/>
        <pt x="737" y="581" on="0"/>
        <pt x="630" y="694" on="0"/>
        <pt x="474" y="771" on="0"/>
        <pt x="305" y="819" on="0"/>
        <pt x="240" y="819" on="1"/>
        <pt x="123" y="819" on="0"/>
        <pt x="-16" y="658" on="0"/>
        <pt x="-16" y="464" on="0"/>
        <pt x="78" y="256" on="0"/>
        <pt x="213" y="92" on="0"/>
        <pt x="368" y="-19" on="0"/>
        <pt x="426" y="-19" on="1"/>
        <pt x="466" y="-19" on="0"/>
        <pt x="509" y="48" on="0"/>
        <pt x="509" y="119" on="0"/>
        <pt x="459" y="238" on="0"/>
      </contour>
      <contour>
        <pt x="593" y="374" on="0"/>
        <pt x="518" y="412" on="0"/>
        <pt x="502" y="412" on="0"/>
        <pt x="497" y="407" on="1"/>
        <pt x="548" y="288" on="0"/>
        <pt x="562" y="236" on="0"/>
        <pt x="568" y="216" on="1"/>
        <pt x="578" y="181" on="0"/>
        <pt x="578" y="150" on="1"/>
        <pt x="578" y="83" on="0"/>
        <pt x="501" y="-17" on="0"/>
        <pt x="398" y="-62" on="0"/>
        <pt x="346" y="-62" on="1"/>
        <pt x="264" y="-62" on="0"/>
        <pt x="93" y="56" on="0"/>
        <pt x="-30" y="225" on="0"/>
        <pt x="-109" y="411" on="0"/>
        <pt x="-109" y="563" on="0"/>
        <pt x="-18" y="714" on="0"/>
        <pt x="122" y="816" on="0"/>
        <pt x="288" y="875" on="0"/>
        <pt x="427" y="875" on="0"/>
        <pt x="579" y="831" on="0"/>
        <pt x="716" y="758" on="0"/>
        <pt x="809" y="645" on="0"/>
        <pt x="809" y="583" on="1"/>
        <pt x="809" y="542" on="0"/>
        <pt x="729" y="440" on="0"/>
        <pt x="635" y="374" on="0"/>
      </contour>
    </TTGlyph>
    <TTGlyph name="Q" xMin="1" yMin="-503" xMax="996" yMax="807">
      <contour>
        <pt x="973" y="-367" on="1"/>
        <pt x="973" y="-292" on="0"/>
        <pt x="891" y="-132" on="0"/>
        <pt x="765" y="-25" on="0"/>
        <pt x="704" y="-24" on="1"/>
        <pt x="708" y="-33" on="0"/>
        <pt x="737" y="-139" on="0"/>
        <pt x="773" y="-253" on="0"/>
        <pt x="823" y="-372" on="0"/>
        <pt x="891" y="-449" on="0"/>
        <pt x="927" y="-449" on="1"/>
        <pt x="944" y="-449" on="0"/>
        <pt x="973" y="-401" on="0"/>
      </contour>
      <contour>
        <pt x="491" y="587" on="1"/>
        <pt x="484" y="564" on="1"/>
        <pt x="484" y="553" on="0"/>
        <pt x="498" y="542" on="0"/>
        <pt x="505" y="542" on="1"/>
        <pt x="546" y="542" on="0"/>
        <pt x="628" y="645" on="0"/>
        <pt x="628" y="694" on="1"/>
        <pt x="628" y="764" on="0"/>
        <pt x="536" y="764" on="1"/>
        <pt x="455" y="764" on="0"/>
        <pt x="292" y="653" on="0"/>
        <pt x="176" y="487" on="0"/>
        <pt x="103" y="293" on="0"/>
        <pt x="103" y="124" on="0"/>
        <pt x="189" y="20" on="0"/>
        <pt x="278" y="20" on="1"/>
        <pt x="328" y="20" on="0"/>
        <pt x="427" y="68" on="0"/>
        <pt x="462" y="102" on="1"/>
        <pt x="537" y="174" on="0"/>
        <pt x="569" y="228" on="1"/>
        <pt x="583" y="252" on="1"/>
        <pt x="583" y="350" on="0"/>
        <pt x="591" y="442" on="1"/>
        <pt x="594" y="477" on="1"/>
        <pt x="594" y="489" on="0"/>
        <pt x="656" y="542" on="0"/>
        <pt x="692" y="542" on="0"/>
        <pt x="703" y="532" on="0"/>
        <pt x="703" y="510" on="0"/>
        <pt x="685" y="415" on="0"/>
        <pt x="678" y="409" on="1"/>
        <pt x="672" y="283" on="0"/>
        <pt x="672" y="176" on="0"/>
        <pt x="679" y="122" on="1"/>
        <pt x="699" y="127" on="0"/>
        <pt x="774" y="208" on="1"/>
        <pt x="790" y="208" on="0"/>
        <pt x="790" y="200" on="1"/>
        <pt x="790" y="198" on="0"/>
        <pt x="750" y="154" on="0"/>
        <pt x="696" y="104" on="0"/>
        <pt x="682" y="96" on="1"/>
        <pt x="693" y="36" on="1"/>
        <pt x="763" y="27" on="0"/>
        <pt x="875" y="-47" on="0"/>
        <pt x="939" y="-141" on="0"/>
        <pt x="960" y="-196" on="1"/>
        <pt x="996" y="-290" on="0"/>
        <pt x="996" y="-421" on="0"/>
        <pt x="936" y="-503" on="0"/>
        <pt x="831" y="-503" on="0"/>
        <pt x="734" y="-408" on="0"/>
        <pt x="700" y="-328" on="1"/>
        <pt x="640" y="-184" on="0"/>
        <pt x="608" y="-26" on="1"/>
        <pt x="549" y="-43" on="1"/>
        <pt x="536" y="-43" on="0"/>
        <pt x="524" y="2" on="1"/>
        <pt x="521" y="13" on="0"/>
        <pt x="519" y="19" on="1"/>
        <pt x="519" y="27" on="0"/>
        <pt x="531" y="30" on="1"/>
        <pt x="556" y="36" on="0"/>
        <pt x="587" y="55" on="1"/>
        <pt x="597" y="61" on="1"/>
        <pt x="589" y="139" on="0"/>
        <pt x="588" y="200" on="1"/>
        <pt x="587" y="220" on="1"/>
        <pt x="541" y="148" on="0"/>
        <pt x="433" y="42" on="0"/>
        <pt x="349" y="-9" on="0"/>
        <pt x="304" y="-24" on="1"/>
        <pt x="243" y="-43" on="0"/>
        <pt x="201" y="-43" on="1"/>
        <pt x="100" y="-43" on="0"/>
        <pt x="1" y="66" on="0"/>
        <pt x="1" y="233" on="0"/>
        <pt x="64" y="410" on="0"/>
        <pt x="181" y="580" on="0"/>
        <pt x="333" y="721" on="0"/>
        <pt x="529" y="807" on="0"/>
        <pt x="629" y="807" on="1"/>
        <pt x="708" y="807" on="0"/>
        <pt x="708" y="750" on="1"/>
        <pt x="708" y="705" on="0"/>
        <pt x="614" y="577" on="0"/>
        <pt x="478" y="483" on="0"/>
        <pt x="426" y="483" on="1"/>
        <pt x="409" y="483" on="0"/>
        <pt x="386" y="498" on="0"/>
        <pt x="386" y="527" on="0"/>
        <pt x="405" y="556" on="0"/>
        <pt x="432" y="575" on="0"/>
        <pt x="446" y="582" on="1"/>
        <pt x="473" y="595" on="0"/>
        <pt x="491" y="595" on="0"/>
      </contour>
    </TTGlyph>
    <TTGlyph name="R" xMin="-100" yMin="-82" xMax="1207" yMax="874">
      <contour>
        <pt x="468" y="672" on="1"/>
        <pt x="426" y="641" on="0"/>
        <pt x="426" y="590" on="1"/>
        <pt x="426" y="507" on="0"/>
        <pt x="488" y="383" on="1"/>
        <pt x="519" y="441" on="0"/>
        <pt x="588" y="441" on="1"/>
        <pt x="610" y="441" on="0"/>
        <pt x="645" y="435" on="1"/>
        <pt x="693" y="436" on="0"/>
        <pt x="779" y="487" on="0"/>
        <pt x="779" y="532" on="1"/>
        <pt x="779" y="593" on="0"/>
        <pt x="627" y="712" on="0"/>
        <pt x="400" y="783" on="0"/>
        <pt x="292" y="783" on="1"/>
        <pt x="136" y="783" on="0"/>
        <pt x="53" y="716" on="1"/>
        <pt x="21" y="691" on="0"/>
        <pt x="-22" y="599" on="0"/>
        <pt x="-22" y="495" on="0"/>
        <pt x="27" y="353" on="0"/>
        <pt x="117" y="194" on="0"/>
        <pt x="227" y="52" on="0"/>
        <pt x="365" y="-41" on="0"/>
        <pt x="430" y="-41" on="1"/>
        <pt x="462" y="-41" on="0"/>
        <pt x="505" y="-5" on="0"/>
        <pt x="505" y="30" on="1"/>
        <pt x="505" y="89" on="0"/>
        <pt x="452" y="234" on="0"/>
        <pt x="388" y="347" on="0"/>
        <pt x="335" y="481" on="0"/>
        <pt x="335" y="576" on="0"/>
        <pt x="410" y="656" on="0"/>
        <pt x="461" y="685" on="1"/>
        <pt x="462" y="686" on="0"/>
        <pt x="464" y="686" on="1"/>
        <pt x="472" y="686" on="0"/>
        <pt x="472" y="678" on="1"/>
        <pt x="472" y="675" on="0"/>
      </contour>
      <contour>
        <pt x="573" y="124" on="1"/>
        <pt x="573" y="23" on="0"/>
        <pt x="469" y="-82" on="0"/>
        <pt x="393" y="-82" on="1"/>
        <pt x="334" y="-82" on="0"/>
        <pt x="197" y="-24" on="0"/>
        <pt x="69" y="81" on="0"/>
        <pt x="-36" y="210" on="0"/>
        <pt x="-100" y="367" on="0"/>
        <pt x="-100" y="513" on="0"/>
        <pt x="-24" y="667" on="0"/>
        <pt x="98" y="793" on="0"/>
        <pt x="269" y="874" on="0"/>
        <pt x="443" y="874" on="0"/>
        <pt x="574" y="833" on="1"/>
        <pt x="645" y="811" on="0"/>
        <pt x="766" y="751" on="0"/>
        <pt x="849" y="657" on="0"/>
        <pt x="849" y="551" on="0"/>
        <pt x="750" y="435" on="0"/>
        <pt x="683" y="417" on="1"/>
        <pt x="682" y="416" on="1"/>
        <pt x="718" y="399" on="0"/>
        <pt x="856" y="265" on="1"/>
        <pt x="911" y="212" on="0"/>
        <pt x="1028" y="106" on="0"/>
        <pt x="1151" y="26" on="0"/>
        <pt x="1197" y="18" on="1"/>
        <pt x="1207" y="16" on="0"/>
        <pt x="1207" y="2" on="0"/>
        <pt x="1198" y="-3" on="1"/>
        <pt x="1139" y="-37" on="0"/>
        <pt x="1053" y="-37" on="0"/>
        <pt x="931" y="46" on="0"/>
        <pt x="814" y="164" on="0"/>
        <pt x="756" y="223" on="1"/>
        <pt x="615" y="365" on="0"/>
        <pt x="534" y="365" on="1"/>
        <pt x="514" y="365" on="0"/>
        <pt x="500" y="359" on="1"/>
        <pt x="525" y="308" on="0"/>
        <pt x="548" y="256" on="0"/>
        <pt x="573" y="165" on="0"/>
      </contour>
    </TTGlyph>
    <TTGlyph name="S" xMin="-79" yMin="-51" xMax="549" yMax="819">
      <contour>
        <pt x="71" y="640" on="1"/>
        <pt x="71" y="544" on="0"/>
        <pt x="185" y="461" on="1"/>
        <pt x="238" y="597" on="0"/>
        <pt x="238" y="677" on="1"/>
        <pt x="238" y="712" on="0"/>
        <pt x="192" y="772" on="0"/>
        <pt x="135" y="772" on="0"/>
        <pt x="90" y="712" on="0"/>
        <pt x="71" y="653" on="0"/>
      </contour>
      <contour>
        <pt x="-59" y="-12" on="1"/>
        <pt x="-66" y="-19" on="0"/>
        <pt x="-71" y="-19" on="1"/>
        <pt x="-79" y="-19" on="0"/>
        <pt x="-79" y="-3" on="0"/>
        <pt x="-75" y="2" on="1"/>
        <pt x="-30" y="52" on="0"/>
        <pt x="92" y="254" on="0"/>
        <pt x="143" y="363" on="1"/>
        <pt x="15" y="452" on="0"/>
        <pt x="15" y="545" on="1"/>
        <pt x="15" y="607" on="0"/>
        <pt x="74" y="735" on="0"/>
        <pt x="173" y="819" on="0"/>
        <pt x="264" y="819" on="0"/>
        <pt x="297" y="776" on="0"/>
        <pt x="297" y="735" on="1"/>
        <pt x="297" y="658" on="0"/>
        <pt x="204" y="447" on="1"/>
        <pt x="237" y="425" on="0"/>
        <pt x="348" y="362" on="0"/>
        <pt x="427" y="316" on="0"/>
        <pt x="467" y="286" on="1"/>
        <pt x="549" y="223" on="0"/>
        <pt x="549" y="76" on="0"/>
        <pt x="397" y="-51" on="0"/>
        <pt x="319" y="-51" on="1"/>
        <pt x="196" y="-51" on="0"/>
        <pt x="100" y="77" on="1"/>
        <pt x="89" y="92" on="0"/>
        <pt x="89" y="113" on="0"/>
        <pt x="139" y="154" on="0"/>
        <pt x="153" y="154" on="1"/>
        <pt x="156" y="154" on="0"/>
        <pt x="158" y="151" on="1"/>
        <pt x="185" y="104" on="0"/>
        <pt x="325" y="-2" on="0"/>
        <pt x="392" y="-2" on="1"/>
        <pt x="475" y="4" on="0"/>
        <pt x="475" y="80" on="1"/>
        <pt x="475" y="144" on="0"/>
        <pt x="402" y="200" on="1"/>
        <pt x="348" y="241" on="0"/>
        <pt x="190" y="332" on="0"/>
        <pt x="160" y="352" on="1"/>
        <pt x="39" y="98" on="0"/>
      </contour>
    </TTGlyph>
    <TTGlyph name="Scaron" xMin="-79" yMin="-51" xMax="549" yMax="993">
      <component glyphName="S" x="0" y="0" flags="0x1004"/>
      <component glyphName="caron" x="-28" y="534" flags="0x1004"/>
    </TTGlyph>
    <TTGlyph name="T" xMin="-441" yMin="-238" xMax="421" yMax="857">
      <contour>
        <pt x="81" y="-123" on="1"/>
        <pt x="81" y="-185" on="0"/>
        <pt x="115" y="-185" on="1"/>
        <pt x="143" y="-185" on="0"/>
        <pt x="199" y="-102" on="0"/>
        <pt x="199" y="10" on="0"/>
        <pt x="186" y="70" on="1"/>
        <pt x="81" y="-28" on="0"/>
      </contour>
      <contour>
        <pt x="-408" y="604" on="1"/>
        <pt x="-377" y="642" on="0"/>
        <pt x="168" y="826" on="0"/>
        <pt x="406" y="857" on="1"/>
        <pt x="421" y="857" on="0"/>
        <pt x="421" y="847" on="0"/>
        <pt x="415" y="841" on="1"/>
        <pt x="369" y="792" on="1"/>
        <pt x="362" y="783" on="0"/>
        <pt x="276" y="766" on="0"/>
        <pt x="219" y="739" on="0"/>
        <pt x="172" y="702" on="0"/>
        <pt x="141" y="632" on="0"/>
        <pt x="141" y="533" on="0"/>
        <pt x="245" y="220" on="0"/>
        <pt x="259" y="149" on="1"/>
        <pt x="331" y="194" on="0"/>
        <pt x="374" y="203" on="1"/>
        <pt x="389" y="203" on="0"/>
        <pt x="389" y="196" on="0"/>
        <pt x="378" y="193" on="1"/>
        <pt x="339" y="182" on="0"/>
        <pt x="262" y="131" on="1"/>
        <pt x="270" y="85" on="0"/>
        <pt x="270" y="48" on="1"/>
        <pt x="270" y="-22" on="0"/>
        <pt x="197" y="-159" on="0"/>
        <pt x="100" y="-238" on="0"/>
        <pt x="61" y="-238" on="1"/>
        <pt x="9" y="-238" on="0"/>
        <pt x="9" y="-164" on="1"/>
        <pt x="9" y="-44" on="0"/>
        <pt x="181" y="94" on="1"/>
        <pt x="166" y="154" on="0"/>
        <pt x="98" y="330" on="0"/>
        <pt x="53" y="479" on="0"/>
        <pt x="53" y="607" on="0"/>
        <pt x="111" y="680" on="0"/>
        <pt x="202" y="750" on="1"/>
        <pt x="189" y="750" on="0"/>
        <pt x="-55" y="669" on="0"/>
        <pt x="-356" y="552" on="0"/>
        <pt x="-417" y="513" on="1"/>
        <pt x="-431" y="505" on="0"/>
        <pt x="-441" y="505" on="0"/>
        <pt x="-441" y="518" on="1"/>
        <pt x="-441" y="544" on="0"/>
        <pt x="-416" y="590" on="1"/>
      </contour>
    </TTGlyph>
    <TTGlyph name="Thorn" xMin="71" yMin="-62" xMax="919" yMax="942">
      <contour>
        <pt x="847" y="430" on="1"/>
        <pt x="847" y="542" on="0"/>
        <pt x="649" y="705" on="0"/>
        <pt x="514" y="729" on="1"/>
        <pt x="532" y="672" on="0"/>
        <pt x="619" y="416" on="0"/>
        <pt x="637" y="361" on="1"/>
        <pt x="657" y="370" on="0"/>
        <pt x="691" y="370" on="0"/>
        <pt x="757" y="341" on="0"/>
        <pt x="775" y="341" on="1"/>
        <pt x="809" y="341" on="0"/>
        <pt x="847" y="398" on="0"/>
      </contour>
      <contour>
        <pt x="576" y="-19" on="0"/>
        <pt x="619" y="48" on="0"/>
        <pt x="619" y="133" on="0"/>
        <pt x="421" y="649" on="0"/>
        <pt x="403" y="736" on="1"/>
        <pt x="298" y="730" on="0"/>
        <pt x="164" y="617" on="0"/>
        <pt x="164" y="393" on="0"/>
        <pt x="284" y="142" on="0"/>
        <pt x="459" y="-19" on="0"/>
        <pt x="536" y="-19" on="1"/>
      </contour>
      <contour>
        <pt x="399" y="763" on="1"/>
        <pt x="397" y="773" on="0"/>
        <pt x="397" y="821" on="0"/>
        <pt x="419" y="875" on="0"/>
        <pt x="436" y="892" on="1"/>
        <pt x="469" y="925" on="0"/>
        <pt x="495" y="937" on="1"/>
        <pt x="506" y="942" on="1"/>
        <pt x="512" y="942" on="0"/>
        <pt x="512" y="931" on="0"/>
        <pt x="507" y="927" on="1"/>
        <pt x="483" y="903" on="0"/>
        <pt x="483" y="836" on="0"/>
        <pt x="502" y="771" on="1"/>
        <pt x="609" y="770" on="0"/>
        <pt x="796" y="707" on="0"/>
        <pt x="919" y="576" on="0"/>
        <pt x="919" y="490" on="1"/>
        <pt x="919" y="449" on="0"/>
        <pt x="839" y="347" on="0"/>
        <pt x="745" y="281" on="0"/>
        <pt x="707" y="281" on="0"/>
        <pt x="654" y="305" on="1"/>
        <pt x="688" y="191" on="0"/>
        <pt x="688" y="150" on="1"/>
        <pt x="688" y="83" on="0"/>
        <pt x="611" y="-17" on="0"/>
        <pt x="508" y="-62" on="0"/>
        <pt x="390" y="-62" on="0"/>
        <pt x="266" y="7" on="0"/>
        <pt x="175" y="117" on="0"/>
        <pt x="140" y="184" on="1"/>
        <pt x="71" y="317" on="0"/>
        <pt x="71" y="575" on="0"/>
        <pt x="256" y="740" on="0"/>
      </contour>
    </TTGlyph>
    <TTGlyph name="U" xMin="-71" yMin="-43" xMax="763" yMax="773">
      <contour>
        <pt x="534" y="396" on="1"/>
        <pt x="532" y="337" on="1"/>
        <pt x="532" y="306" on="0"/>
        <pt x="608" y="151" on="0"/>
        <pt x="712" y="15" on="0"/>
        <pt x="744" y="15" on="1"/>
        <pt x="745" y="15" on="0"/>
        <pt x="757" y="17" on="1"/>
        <pt x="763" y="17" on="0"/>
        <pt x="763" y="9" on="1"/>
        <pt x="763" y="-3" on="0"/>
        <pt x="693" y="-43" on="0"/>
        <pt x="675" y="-43" on="1"/>
        <pt x="645" y="-43" on="0"/>
        <pt x="538" y="66" on="0"/>
        <pt x="500" y="157" on="1"/>
        <pt x="412" y="-29" on="0"/>
        <pt x="289" y="-29" on="1"/>
        <pt x="227" y="-29" on="0"/>
        <pt x="133" y="36" on="0"/>
        <pt x="79" y="141" on="0"/>
        <pt x="41" y="276" on="0"/>
        <pt x="25" y="417" on="0"/>
        <pt x="16" y="484" on="1"/>
        <pt x="0" y="604" on="1"/>
        <pt x="-16" y="722" on="0"/>
        <pt x="-61" y="722" on="1"/>
        <pt x="-71" y="722" on="0"/>
        <pt x="-71" y="734" on="0"/>
        <pt x="-44" y="751" on="0"/>
        <pt x="17" y="773" on="0"/>
        <pt x="32" y="773" on="1"/>
        <pt x="57" y="773" on="0"/>
        <pt x="90" y="663" on="0"/>
        <pt x="105" y="499" on="0"/>
        <pt x="137" y="306" on="0"/>
        <pt x="180" y="142" on="0"/>
        <pt x="275" y="32" on="0"/>
        <pt x="342" y="32" on="1"/>
        <pt x="389" y="32" on="0"/>
        <pt x="470" y="118" on="0"/>
        <pt x="485" y="188" on="1"/>
        <pt x="481" y="186" on="0"/>
        <pt x="450" y="295" on="0"/>
        <pt x="422" y="454" on="0"/>
        <pt x="422" y="508" on="1"/>
        <pt x="424" y="560" on="1"/>
        <pt x="424" y="566" on="0"/>
        <pt x="464" y="585" on="0"/>
        <pt x="473" y="585" on="1"/>
        <pt x="499" y="585" on="0"/>
        <pt x="534" y="490" on="0"/>
      </contour>
    </TTGlyph>
    <TTGlyph name="Uacute" xMin="-71" yMin="-43" xMax="763" yMax="865">
      <contour>
        <pt x="534" y="396" on="1"/>
        <pt x="532" y="337" on="1"/>
        <pt x="532" y="306" on="0"/>
        <pt x="608" y="151" on="0"/>
        <pt x="712" y="15" on="0"/>
        <pt x="744" y="15" on="1"/>
        <pt x="745" y="15" on="0"/>
        <pt x="757" y="17" on="1"/>
        <pt x="763" y="17" on="0"/>
        <pt x="763" y="9" on="1"/>
        <pt x="763" y="-3" on="0"/>
        <pt x="693" y="-43" on="0"/>
        <pt x="675" y="-43" on="1"/>
        <pt x="645" y="-43" on="0"/>
        <pt x="538" y="66" on="0"/>
        <pt x="500" y="157" on="1"/>
        <pt x="412" y="-29" on="0"/>
        <pt x="289" y="-29" on="1"/>
        <pt x="227" y="-29" on="0"/>
        <pt x="133" y="36" on="0"/>
        <pt x="79" y="141" on="0"/>
        <pt x="41" y="276" on="0"/>
        <pt x="25" y="417" on="0"/>
        <pt x="16" y="484" on="1"/>
        <pt x="0" y="604" on="1"/>
        <pt x="-16" y="722" on="0"/>
        <pt x="-61" y="722" on="1"/>
        <pt x="-71" y="722" on="0"/>
        <pt x="-71" y="734" on="0"/>
        <pt x="-44" y="751" on="0"/>
        <pt x="17" y="773" on="0"/>
        <pt x="32" y="773" on="1"/>
        <pt x="57" y="773" on="0"/>
        <pt x="90" y="663" on="0"/>
        <pt x="105" y="499" on="0"/>
        <pt x="137" y="306" on="0"/>
        <pt x="180" y="142" on="0"/>
        <pt x="275" y="32" on="0"/>
        <pt x="342" y="32" on="1"/>
        <pt x="389" y="32" on="0"/>
        <pt x="470" y="118" on="0"/>
        <pt x="485" y="188" on="1"/>
        <pt x="481" y="186" on="0"/>
        <pt x="450" y="295" on="0"/>
        <pt x="422" y="454" on="0"/>
        <pt x="422" y="508" on="1"/>
        <pt x="424" y="560" on="1"/>
        <pt x="424" y="566" on="0"/>
        <pt x="464" y="585" on="0"/>
        <pt x="473" y="585" on="1"/>
        <pt x="499" y="585" on="0"/>
        <pt x="534" y="490" on="0"/>
      </contour>
      <contour>
        <pt x="214" y="759" on="1"/>
        <pt x="252" y="763" on="0"/>
        <pt x="307" y="802" on="0"/>
        <pt x="307" y="837" on="1"/>
        <pt x="307" y="846" on="0"/>
        <pt x="306" y="851" on="1"/>
        <pt x="306" y="865" on="0"/>
        <pt x="338" y="865" on="0"/>
        <pt x="389" y="840" on="0"/>
        <pt x="389" y="826" on="1"/>
        <pt x="389" y="801" on="0"/>
        <pt x="298" y="744" on="0"/>
        <pt x="232" y="744" on="1"/>
        <pt x="214" y="744" on="0"/>
      </contour>
    </TTGlyph>
    <TTGlyph name="Ucircumflex" xMin="-71" yMin="-43" xMax="763" yMax="855">
      <contour>
        <pt x="534" y="396" on="1"/>
        <pt x="532" y="337" on="1"/>
        <pt x="532" y="306" on="0"/>
        <pt x="608" y="151" on="0"/>
        <pt x="712" y="15" on="0"/>
        <pt x="744" y="15" on="1"/>
        <pt x="745" y="15" on="0"/>
        <pt x="757" y="17" on="1"/>
        <pt x="763" y="17" on="0"/>
        <pt x="763" y="9" on="1"/>
        <pt x="763" y="-3" on="0"/>
        <pt x="693" y="-43" on="0"/>
        <pt x="675" y="-43" on="1"/>
        <pt x="645" y="-43" on="0"/>
        <pt x="538" y="66" on="0"/>
        <pt x="500" y="157" on="1"/>
        <pt x="412" y="-29" on="0"/>
        <pt x="289" y="-29" on="1"/>
        <pt x="227" y="-29" on="0"/>
        <pt x="133" y="36" on="0"/>
        <pt x="79" y="141" on="0"/>
        <pt x="41" y="276" on="0"/>
        <pt x="25" y="417" on="0"/>
        <pt x="16" y="484" on="1"/>
        <pt x="0" y="604" on="1"/>
        <pt x="-16" y="722" on="0"/>
        <pt x="-61" y="722" on="1"/>
        <pt x="-71" y="722" on="0"/>
        <pt x="-71" y="734" on="0"/>
        <pt x="-44" y="751" on="0"/>
        <pt x="17" y="773" on="0"/>
        <pt x="32" y="773" on="1"/>
        <pt x="57" y="773" on="0"/>
        <pt x="90" y="663" on="0"/>
        <pt x="105" y="499" on="0"/>
        <pt x="137" y="306" on="0"/>
        <pt x="180" y="142" on="0"/>
        <pt x="275" y="32" on="0"/>
        <pt x="342" y="32" on="1"/>
        <pt x="389" y="32" on="0"/>
        <pt x="470" y="118" on="0"/>
        <pt x="485" y="188" on="1"/>
        <pt x="481" y="186" on="0"/>
        <pt x="450" y="295" on="0"/>
        <pt x="422" y="454" on="0"/>
        <pt x="422" y="508" on="1"/>
        <pt x="424" y="560" on="1"/>
        <pt x="424" y="566" on="0"/>
        <pt x="464" y="585" on="0"/>
        <pt x="473" y="585" on="1"/>
        <pt x="499" y="585" on="0"/>
        <pt x="534" y="490" on="0"/>
      </contour>
      <contour>
        <pt x="405" y="749" on="1"/>
        <pt x="405" y="736" on="0"/>
        <pt x="387" y="734" on="1"/>
        <pt x="337" y="734" on="0"/>
        <pt x="261" y="766" on="0"/>
        <pt x="243" y="789" on="1"/>
        <pt x="241" y="787" on="0"/>
        <pt x="230" y="773" on="1"/>
        <pt x="203" y="741" on="0"/>
        <pt x="166" y="710" on="1"/>
        <pt x="158" y="703" on="0"/>
        <pt x="142" y="703" on="0"/>
        <pt x="142" y="709" on="1"/>
        <pt x="184" y="742" on="0"/>
        <pt x="196" y="759" on="1"/>
        <pt x="212" y="784" on="1"/>
        <pt x="217" y="790" on="0"/>
        <pt x="223" y="802" on="1"/>
        <pt x="230" y="816" on="1"/>
        <pt x="230" y="830" on="0"/>
        <pt x="281" y="855" on="0"/>
        <pt x="313" y="855" on="0"/>
        <pt x="313" y="841" on="1"/>
        <pt x="312" y="836" on="0"/>
        <pt x="312" y="827" on="1"/>
        <pt x="312" y="792" on="0"/>
        <pt x="367" y="753" on="0"/>
      </contour>
    </TTGlyph>
    <TTGlyph name="Udieresis" xMin="-71" yMin="-43" xMax="763" yMax="854">
      <contour>
        <pt x="534" y="396" on="1"/>
        <pt x="532" y="337" on="1"/>
        <pt x="532" y="306" on="0"/>
        <pt x="608" y="151" on="0"/>
        <pt x="712" y="15" on="0"/>
        <pt x="744" y="15" on="1"/>
        <pt x="745" y="15" on="0"/>
        <pt x="757" y="17" on="1"/>
        <pt x="763" y="17" on="0"/>
        <pt x="763" y="9" on="1"/>
        <pt x="763" y="-3" on="0"/>
        <pt x="693" y="-43" on="0"/>
        <pt x="675" y="-43" on="1"/>
        <pt x="645" y="-43" on="0"/>
        <pt x="538" y="66" on="0"/>
        <pt x="500" y="157" on="1"/>
        <pt x="412" y="-29" on="0"/>
        <pt x="289" y="-29" on="1"/>
        <pt x="227" y="-29" on="0"/>
        <pt x="133" y="36" on="0"/>
        <pt x="79" y="141" on="0"/>
        <pt x="41" y="276" on="0"/>
        <pt x="25" y="417" on="0"/>
        <pt x="16" y="484" on="1"/>
        <pt x="0" y="604" on="1"/>
        <pt x="-16" y="722" on="0"/>
        <pt x="-61" y="722" on="1"/>
        <pt x="-71" y="722" on="0"/>
        <pt x="-71" y="734" on="0"/>
        <pt x="-44" y="751" on="0"/>
        <pt x="17" y="773" on="0"/>
        <pt x="32" y="773" on="1"/>
        <pt x="57" y="773" on="0"/>
        <pt x="90" y="663" on="0"/>
        <pt x="105" y="499" on="0"/>
        <pt x="137" y="306" on="0"/>
        <pt x="180" y="142" on="0"/>
        <pt x="275" y="32" on="0"/>
        <pt x="342" y="32" on="1"/>
        <pt x="389" y="32" on="0"/>
        <pt x="470" y="118" on="0"/>
        <pt x="485" y="188" on="1"/>
        <pt x="481" y="186" on="0"/>
        <pt x="450" y="295" on="0"/>
        <pt x="422" y="454" on="0"/>
        <pt x="422" y="508" on="1"/>
        <pt x="424" y="560" on="1"/>
        <pt x="424" y="566" on="0"/>
        <pt x="464" y="585" on="0"/>
        <pt x="473" y="585" on="1"/>
        <pt x="499" y="585" on="0"/>
        <pt x="534" y="490" on="0"/>
      </contour>
      <contour>
        <pt x="421" y="820" on="0"/>
        <pt x="421" y="772" on="0"/>
        <pt x="390" y="738" on="0"/>
        <pt x="347" y="738" on="0"/>
        <pt x="317" y="772" on="0"/>
        <pt x="317" y="820" on="0"/>
        <pt x="347" y="854" on="0"/>
        <pt x="390" y="854" on="0"/>
      </contour>
      <contour>
        <pt x="257" y="820" on="0"/>
        <pt x="257" y="772" on="0"/>
        <pt x="226" y="738" on="0"/>
        <pt x="183" y="738" on="0"/>
        <pt x="153" y="772" on="0"/>
        <pt x="153" y="820" on="0"/>
        <pt x="183" y="854" on="0"/>
        <pt x="226" y="854" on="0"/>
      </contour>
    </TTGlyph>
    <TTGlyph name="Ugrave" xMin="-71" yMin="-43" xMax="763" yMax="863">
      <contour>
        <pt x="534" y="396" on="1"/>
        <pt x="532" y="337" on="1"/>
        <pt x="532" y="306" on="0"/>
        <pt x="608" y="151" on="0"/>
        <pt x="712" y="15" on="0"/>
        <pt x="744" y="15" on="1"/>
        <pt x="745" y="15" on="0"/>
        <pt x="757" y="17" on="1"/>
        <pt x="763" y="17" on="0"/>
        <pt x="763" y="9" on="1"/>
        <pt x="763" y="-3" on="0"/>
        <pt x="693" y="-43" on="0"/>
        <pt x="675" y="-43" on="1"/>
        <pt x="645" y="-43" on="0"/>
        <pt x="538" y="66" on="0"/>
        <pt x="500" y="157" on="1"/>
        <pt x="412" y="-29" on="0"/>
        <pt x="289" y="-29" on="1"/>
        <pt x="227" y="-29" on="0"/>
        <pt x="133" y="36" on="0"/>
        <pt x="79" y="141" on="0"/>
        <pt x="41" y="276" on="0"/>
        <pt x="25" y="417" on="0"/>
        <pt x="16" y="484" on="1"/>
        <pt x="0" y="604" on="1"/>
        <pt x="-16" y="722" on="0"/>
        <pt x="-61" y="722" on="1"/>
        <pt x="-71" y="722" on="0"/>
        <pt x="-71" y="734" on="0"/>
        <pt x="-44" y="751" on="0"/>
        <pt x="17" y="773" on="0"/>
        <pt x="32" y="773" on="1"/>
        <pt x="57" y="773" on="0"/>
        <pt x="90" y="663" on="0"/>
        <pt x="105" y="499" on="0"/>
        <pt x="137" y="306" on="0"/>
        <pt x="180" y="142" on="0"/>
        <pt x="275" y="32" on="0"/>
        <pt x="342" y="32" on="1"/>
        <pt x="389" y="32" on="0"/>
        <pt x="470" y="118" on="0"/>
        <pt x="485" y="188" on="1"/>
        <pt x="481" y="186" on="0"/>
        <pt x="450" y="295" on="0"/>
        <pt x="422" y="454" on="0"/>
        <pt x="422" y="508" on="1"/>
        <pt x="424" y="560" on="1"/>
        <pt x="424" y="566" on="0"/>
        <pt x="464" y="585" on="0"/>
        <pt x="473" y="585" on="1"/>
        <pt x="499" y="585" on="0"/>
        <pt x="534" y="490" on="0"/>
      </contour>
      <contour>
        <pt x="350" y="757" on="1"/>
        <pt x="350" y="744" on="0"/>
        <pt x="332" y="742" on="1"/>
        <pt x="266" y="742" on="0"/>
        <pt x="175" y="799" on="0"/>
        <pt x="175" y="824" on="1"/>
        <pt x="175" y="838" on="0"/>
        <pt x="226" y="863" on="0"/>
        <pt x="258" y="863" on="0"/>
        <pt x="258" y="849" on="1"/>
        <pt x="257" y="844" on="0"/>
        <pt x="257" y="835" on="1"/>
        <pt x="257" y="800" on="0"/>
        <pt x="312" y="761" on="0"/>
      </contour>
    </TTGlyph>
    <TTGlyph name="V" xMin="-87" yMin="-32" xMax="516" yMax="731">
      <contour>
        <pt x="18" y="710" on="1"/>
        <pt x="14" y="636" on="1"/>
        <pt x="14" y="487" on="0"/>
        <pt x="52" y="340" on="1"/>
        <pt x="74" y="254" on="0"/>
        <pt x="140" y="119" on="0"/>
        <pt x="252" y="29" on="0"/>
        <pt x="383" y="29" on="0"/>
        <pt x="442" y="123" on="0"/>
        <pt x="442" y="291" on="0"/>
        <pt x="374" y="496" on="0"/>
        <pt x="320" y="569" on="1"/>
        <pt x="282" y="584" on="0"/>
        <pt x="174" y="683" on="0"/>
        <pt x="174" y="700" on="1"/>
        <pt x="174" y="710" on="0"/>
        <pt x="213" y="731" on="0"/>
        <pt x="223" y="731" on="1"/>
        <pt x="289" y="731" on="0"/>
        <pt x="405" y="599" on="0"/>
        <pt x="416" y="553" on="1"/>
        <pt x="484" y="531" on="0"/>
        <pt x="516" y="524" on="0"/>
        <pt x="516" y="515" on="1"/>
        <pt x="516" y="504" on="0"/>
        <pt x="493" y="504" on="0"/>
        <pt x="479" y="507" on="1"/>
        <pt x="451" y="513" on="0"/>
        <pt x="433" y="519" on="1"/>
        <pt x="471" y="396" on="0"/>
        <pt x="471" y="258" on="1"/>
        <pt x="471" y="140" on="0"/>
        <pt x="428" y="60" on="1"/>
        <pt x="404" y="17" on="0"/>
        <pt x="314" y="-32" on="0"/>
        <pt x="176" y="-32" on="0"/>
        <pt x="45" y="99" on="0"/>
        <pt x="-39" y="305" on="0"/>
        <pt x="-87" y="547" on="0"/>
        <pt x="-87" y="662" on="1"/>
        <pt x="-85" y="668" on="0"/>
        <pt x="-81" y="672" on="1"/>
        <pt x="-59" y="686" on="0"/>
        <pt x="11" y="722" on="0"/>
        <pt x="18" y="722" on="0"/>
      </contour>
    </TTGlyph>
    <TTGlyph name="W" xMin="-114" yMin="-109" xMax="812" yMax="786">
      <contour>
        <pt x="-106" y="744" on="1"/>
        <pt x="-114" y="750" on="0"/>
        <pt x="-114" y="752" on="1"/>
        <pt x="-68" y="786" on="0"/>
        <pt x="-18" y="786" on="1"/>
        <pt x="29" y="742" on="0"/>
        <pt x="77" y="562" on="0"/>
        <pt x="88" y="373" on="0"/>
        <pt x="99" y="194" on="0"/>
        <pt x="141" y="80" on="0"/>
        <pt x="185" y="80" on="1"/>
        <pt x="214" y="80" on="0"/>
        <pt x="255" y="142" on="0"/>
        <pt x="259" y="160" on="1"/>
        <pt x="231" y="224" on="0"/>
        <pt x="197" y="441" on="0"/>
        <pt x="197" y="491" on="1"/>
        <pt x="197" y="572" on="0"/>
        <pt x="210" y="596" on="1"/>
        <pt x="212" y="598" on="0"/>
        <pt x="248" y="612" on="0"/>
        <pt x="253" y="612" on="1"/>
        <pt x="285" y="612" on="0"/>
        <pt x="306" y="469" on="1"/>
        <pt x="315" y="307" on="1"/>
        <pt x="359" y="138" on="0"/>
        <pt x="414" y="44" on="1"/>
        <pt x="481" y="-70" on="0"/>
        <pt x="587" y="-70" on="1"/>
        <pt x="643" y="-70" on="0"/>
        <pt x="699" y="36" on="0"/>
        <pt x="699" y="225" on="0"/>
        <pt x="624" y="447" on="0"/>
        <pt x="564" y="510" on="1"/>
        <pt x="527" y="535" on="0"/>
        <pt x="433" y="619" on="0"/>
        <pt x="433" y="642" on="1"/>
        <pt x="433" y="649" on="0"/>
        <pt x="491" y="668" on="0"/>
        <pt x="498" y="668" on="1"/>
        <pt x="575" y="629" on="0"/>
        <pt x="614" y="575" on="1"/>
        <pt x="636" y="546" on="0"/>
        <pt x="657" y="508" on="0"/>
        <pt x="676" y="470" on="1"/>
        <pt x="689" y="457" on="0"/>
        <pt x="773" y="438" on="0"/>
        <pt x="802" y="438" on="1"/>
        <pt x="812" y="438" on="0"/>
        <pt x="812" y="426" on="1"/>
        <pt x="812" y="416" on="0"/>
        <pt x="798" y="416" on="1"/>
        <pt x="765" y="416" on="0"/>
        <pt x="711" y="432" on="1"/>
        <pt x="692" y="437" on="1"/>
        <pt x="689" y="437" on="0"/>
        <pt x="689" y="433" on="1"/>
        <pt x="743" y="310" on="0"/>
        <pt x="743" y="53" on="0"/>
        <pt x="630" y="-109" on="0"/>
        <pt x="517" y="-109" on="1"/>
        <pt x="477" y="-109" on="0"/>
        <pt x="404" y="-73" on="0"/>
        <pt x="355" y="-26" on="0"/>
        <pt x="330" y="12" on="1"/>
        <pt x="300" y="57" on="0"/>
        <pt x="266" y="130" on="1"/>
        <pt x="207" y="27" on="0"/>
        <pt x="143" y="27" on="1"/>
        <pt x="93" y="27" on="0"/>
        <pt x="29" y="119" on="0"/>
        <pt x="4" y="259" on="0"/>
        <pt x="-16" y="433" on="0"/>
        <pt x="-30" y="589" on="0"/>
        <pt x="-72" y="720" on="0"/>
      </contour>
    </TTGlyph>
    <TTGlyph name="X" xMin="-51" yMin="-54" xMax="690" yMax="757">
      <contour>
        <pt x="-31" y="-40" on="1"/>
        <pt x="-39" y="-54" on="0"/>
        <pt x="-51" y="-54" on="0"/>
        <pt x="-51" y="-36" on="0"/>
        <pt x="-49" y="-33" on="1"/>
        <pt x="27" y="125" on="0"/>
        <pt x="110" y="266" on="1"/>
        <pt x="46" y="368" on="0"/>
        <pt x="-27" y="583" on="0"/>
        <pt x="-27" y="659" on="1"/>
        <pt x="-27" y="680" on="0"/>
        <pt x="-24" y="698" on="1"/>
        <pt x="-24" y="703" on="0"/>
        <pt x="41" y="757" on="0"/>
        <pt x="58" y="757" on="0"/>
        <pt x="58" y="751" on="1"/>
        <pt x="69" y="552" on="0"/>
        <pt x="172" y="367" on="1"/>
        <pt x="292" y="554" on="0"/>
        <pt x="427" y="710" on="1"/>
        <pt x="438" y="722" on="0"/>
        <pt x="454" y="722" on="0"/>
        <pt x="472" y="708" on="0"/>
        <pt x="472" y="704" on="0"/>
        <pt x="470" y="702" on="1"/>
        <pt x="342" y="572" on="0"/>
        <pt x="189" y="339" on="1"/>
        <pt x="274" y="197" on="0"/>
        <pt x="504" y="23" on="0"/>
        <pt x="605" y="23" on="1"/>
        <pt x="647" y="23" on="0"/>
        <pt x="674" y="42" on="1"/>
        <pt x="682" y="48" on="0"/>
        <pt x="684" y="48" on="1"/>
        <pt x="690" y="48" on="0"/>
        <pt x="690" y="35" on="0"/>
        <pt x="688" y="31" on="1"/>
        <pt x="611" y="-28" on="0"/>
        <pt x="533" y="-28" on="1"/>
        <pt x="415" y="-28" on="0"/>
        <pt x="207" y="120" on="0"/>
        <pt x="126" y="241" on="1"/>
        <pt x="38" y="99" on="0"/>
      </contour>
    </TTGlyph>
    <TTGlyph name="Y" xMin="-61" yMin="-403" xMax="881" yMax="769">
      <contour>
        <pt x="854" y="-354" on="1"/>
        <pt x="877" y="-349" on="1"/>
        <pt x="881" y="-349" on="0"/>
        <pt x="881" y="-353" on="1"/>
        <pt x="881" y="-366" on="0"/>
        <pt x="816" y="-403" on="0"/>
        <pt x="751" y="-403" on="0"/>
        <pt x="680" y="-332" on="0"/>
        <pt x="615" y="-209" on="0"/>
        <pt x="561" y="-93" on="0"/>
        <pt x="509" y="51" on="0"/>
        <pt x="491" y="106" on="0"/>
        <pt x="482" y="133" on="1"/>
        <pt x="482" y="131" on="0"/>
        <pt x="462" y="104" on="0"/>
        <pt x="422" y="63" on="0"/>
        <pt x="372" y="24" on="0"/>
        <pt x="300" y="-4" on="0"/>
        <pt x="264" y="-4" on="1"/>
        <pt x="197" y="-4" on="0"/>
        <pt x="101" y="72" on="0"/>
        <pt x="53" y="196" on="0"/>
        <pt x="24" y="346" on="0"/>
        <pt x="11" y="500" on="0"/>
        <pt x="4" y="566" on="1"/>
        <pt x="-12" y="716" on="0"/>
        <pt x="-56" y="732" on="1"/>
        <pt x="-61" y="734" on="0"/>
        <pt x="-61" y="739" on="1"/>
        <pt x="-61" y="751" on="0"/>
        <pt x="-39" y="758" on="1"/>
        <pt x="-8" y="769" on="0"/>
        <pt x="39" y="769" on="0"/>
        <pt x="46" y="768" on="1"/>
        <pt x="79" y="730" on="0"/>
        <pt x="113" y="549" on="0"/>
        <pt x="130" y="356" on="0"/>
        <pt x="163" y="170" on="0"/>
        <pt x="253" y="50" on="0"/>
        <pt x="329" y="50" on="1"/>
        <pt x="382" y="50" on="0"/>
        <pt x="469" y="137" on="0"/>
        <pt x="474" y="159" on="1"/>
        <pt x="427" y="320" on="0"/>
        <pt x="427" y="489" on="1"/>
        <pt x="427" y="541" on="0"/>
        <pt x="465" y="593" on="0"/>
        <pt x="522" y="593" on="0"/>
        <pt x="545" y="481" on="0"/>
        <pt x="545" y="434" on="1"/>
        <pt x="545" y="369" on="0"/>
        <pt x="538" y="326" on="1"/>
        <pt x="536" y="313" on="1"/>
        <pt x="558" y="186" on="0"/>
        <pt x="647" y="-69" on="0"/>
        <pt x="741" y="-244" on="0"/>
        <pt x="829" y="-354" on="0"/>
      </contour>
    </TTGlyph>
    <TTGlyph name="Yacute" xMin="-61" yMin="-403" xMax="881" yMax="861">
      <component glyphName="Y" x="0" y="0" flags="0x1004"/>
      <component glyphName="acute" x="52" y="402" flags="0x1004"/>
    </TTGlyph>
    <TTGlyph name="Ydieresis" xMin="-61" yMin="-403" xMax="881" yMax="852">
      <contour>
        <pt x="877" y="-349" on="1"/>
        <pt x="854" y="-354" on="1"/>
        <pt x="829" y="-354" on="0"/>
        <pt x="741" y="-244" on="0"/>
        <pt x="647" y="-69" on="0"/>
        <pt x="558" y="186" on="0"/>
        <pt x="536" y="313" on="1"/>
        <pt x="545" y="356" on="0"/>
        <pt x="545" y="481" on="0"/>
        <pt x="522" y="593" on="0"/>
        <pt x="465" y="593" on="0"/>
        <pt x="427" y="541" on="0"/>
        <pt x="427" y="489" on="1"/>
        <pt x="427" y="320" on="0"/>
        <pt x="474" y="159" on="1"/>
        <pt x="469" y="137" on="0"/>
        <pt x="382" y="50" on="0"/>
        <pt x="329" y="50" on="1"/>
        <pt x="253" y="50" on="0"/>
        <pt x="163" y="170" on="0"/>
        <pt x="130" y="356" on="0"/>
        <pt x="113" y="549" on="0"/>
        <pt x="79" y="730" on="0"/>
        <pt x="46" y="768" on="1"/>
        <pt x="39" y="769" on="0"/>
        <pt x="15" y="769" on="0"/>
        <pt x="-17" y="766" on="0"/>
        <pt x="-61" y="751" on="0"/>
        <pt x="-61" y="739" on="1"/>
        <pt x="-61" y="734" on="0"/>
        <pt x="-56" y="732" on="1"/>
        <pt x="-12" y="716" on="0"/>
        <pt x="4" y="566" on="1"/>
        <pt x="11" y="500" on="0"/>
        <pt x="24" y="346" on="0"/>
        <pt x="53" y="196" on="0"/>
        <pt x="101" y="72" on="0"/>
        <pt x="197" y="-4" on="0"/>
        <pt x="264" y="-4" on="1"/>
        <pt x="300" y="-4" on="0"/>
        <pt x="372" y="24" on="0"/>
        <pt x="422" y="63" on="0"/>
        <pt x="462" y="104" on="0"/>
        <pt x="482" y="131" on="0"/>
        <pt x="482" y="133" on="1"/>
        <pt x="491" y="106" on="0"/>
        <pt x="509" y="51" on="0"/>
        <pt x="561" y="-93" on="0"/>
        <pt x="615" y="-209" on="0"/>
        <pt x="680" y="-332" on="0"/>
        <pt x="751" y="-403" on="0"/>
        <pt x="816" y="-403" on="0"/>
        <pt x="881" y="-366" on="0"/>
        <pt x="881" y="-353" on="1"/>
        <pt x="881" y="-349" on="0"/>
      </contour>
      <contour>
        <pt x="425" y="818" on="0"/>
        <pt x="425" y="770" on="0"/>
        <pt x="394" y="736" on="0"/>
        <pt x="351" y="736" on="0"/>
        <pt x="321" y="770" on="0"/>
        <pt x="321" y="818" on="0"/>
        <pt x="351" y="852" on="0"/>
        <pt x="394" y="852" on="0"/>
      </contour>
      <contour>
        <pt x="261" y="818" on="0"/>
        <pt x="261" y="770" on="0"/>
        <pt x="230" y="736" on="0"/>
        <pt x="187" y="736" on="0"/>
        <pt x="157" y="770" on="0"/>
        <pt x="157" y="818" on="0"/>
        <pt x="187" y="852" on="0"/>
        <pt x="230" y="852" on="0"/>
      </contour>
    </TTGlyph>
    <TTGlyph name="Z" xMin="-56" yMin="-602" xMax="854" yMax="772">
      <contour>
        <pt x="644" y="-88" on="1"/>
        <pt x="602" y="-194" on="0"/>
        <pt x="602" y="-411" on="0"/>
        <pt x="678" y="-550" on="0"/>
        <pt x="741" y="-550" on="1"/>
        <pt x="760" y="-550" on="0"/>
        <pt x="784" y="-505" on="0"/>
        <pt x="784" y="-416" on="0"/>
        <pt x="706" y="-204" on="0"/>
      </contour>
      <contour>
        <pt x="273" y="31" on="1"/>
        <pt x="232" y="31" on="0"/>
        <pt x="182" y="74" on="1"/>
        <pt x="-56" y="286" on="0"/>
        <pt x="-56" y="486" on="1"/>
        <pt x="-56" y="531" on="0"/>
        <pt x="-11" y="629" on="0"/>
        <pt x="70" y="716" on="0"/>
        <pt x="201" y="772" on="0"/>
        <pt x="278" y="772" on="1"/>
        <pt x="375" y="772" on="0"/>
        <pt x="560" y="647" on="0"/>
        <pt x="669" y="468" on="0"/>
        <pt x="669" y="386" on="1"/>
        <pt x="669" y="337" on="0"/>
        <pt x="603" y="228" on="0"/>
        <pt x="554" y="215" on="1"/>
        <pt x="637" y="99" on="0"/>
        <pt x="680" y="27" on="1"/>
        <pt x="751" y="123" on="0"/>
        <pt x="847" y="177" on="1"/>
        <pt x="854" y="177" on="0"/>
        <pt x="854" y="166" on="1"/>
        <pt x="756" y="105" on="0"/>
        <pt x="693" y="6" on="1"/>
        <pt x="832" y="-232" on="0"/>
        <pt x="832" y="-387" on="1"/>
        <pt x="832" y="-483" on="0"/>
        <pt x="745" y="-602" on="0"/>
        <pt x="705" y="-602" on="1"/>
        <pt x="625" y="-602" on="0"/>
        <pt x="542" y="-476" on="0"/>
        <pt x="542" y="-374" on="1"/>
        <pt x="542" y="-215" on="0"/>
        <pt x="627" y="-57" on="1"/>
        <pt x="530" y="115" on="0"/>
        <pt x="440" y="202" on="1"/>
        <pt x="402" y="202" on="0"/>
        <pt x="297" y="326" on="0"/>
        <pt x="297" y="364" on="1"/>
        <pt x="297" y="377" on="0"/>
        <pt x="334" y="405" on="0"/>
        <pt x="345" y="405" on="1"/>
        <pt x="364" y="405" on="0"/>
        <pt x="487" y="297" on="0"/>
        <pt x="544" y="224" on="1"/>
        <pt x="550" y="224" on="0"/>
        <pt x="574" y="243" on="0"/>
        <pt x="582" y="256" on="1"/>
        <pt x="602" y="290" on="0"/>
        <pt x="602" y="415" on="0"/>
        <pt x="525" y="547" on="0"/>
        <pt x="400" y="651" on="0"/>
        <pt x="230" y="717" on="0"/>
        <pt x="144" y="717" on="1"/>
        <pt x="87" y="717" on="0"/>
        <pt x="16" y="606" on="0"/>
        <pt x="16" y="473" on="0"/>
        <pt x="94" y="297" on="0"/>
        <pt x="262" y="111" on="0"/>
        <pt x="367" y="60" on="1"/>
        <pt x="367" y="51" on="0"/>
        <pt x="320" y="36" on="0"/>
        <pt x="296" y="34" on="1"/>
      </contour>
    </TTGlyph>
    <TTGlyph name="Zcaron" xMin="-56" yMin="-602" xMax="854" yMax="958">
      <contour>
        <pt x="644" y="-88" on="1"/>
        <pt x="602" y="-194" on="0"/>
        <pt x="602" y="-411" on="0"/>
        <pt x="678" y="-550" on="0"/>
        <pt x="741" y="-550" on="1"/>
        <pt x="760" y="-550" on="0"/>
        <pt x="784" y="-505" on="0"/>
        <pt x="784" y="-416" on="0"/>
        <pt x="706" y="-204" on="0"/>
      </contour>
      <contour>
        <pt x="273" y="31" on="1"/>
        <pt x="232" y="31" on="0"/>
        <pt x="182" y="74" on="1"/>
        <pt x="-56" y="286" on="0"/>
        <pt x="-56" y="486" on="1"/>
        <pt x="-56" y="531" on="0"/>
        <pt x="-11" y="629" on="0"/>
        <pt x="70" y="716" on="0"/>
        <pt x="201" y="772" on="0"/>
        <pt x="278" y="772" on="1"/>
        <pt x="375" y="772" on="0"/>
        <pt x="560" y="647" on="0"/>
        <pt x="669" y="468" on="0"/>
        <pt x="669" y="386" on="1"/>
        <pt x="669" y="337" on="0"/>
        <pt x="603" y="228" on="0"/>
        <pt x="554" y="215" on="1"/>
        <pt x="637" y="99" on="0"/>
        <pt x="680" y="27" on="1"/>
        <pt x="751" y="123" on="0"/>
        <pt x="847" y="177" on="1"/>
        <pt x="854" y="177" on="0"/>
        <pt x="854" y="166" on="1"/>
        <pt x="756" y="105" on="0"/>
        <pt x="693" y="6" on="1"/>
        <pt x="832" y="-232" on="0"/>
        <pt x="832" y="-387" on="1"/>
        <pt x="832" y="-483" on="0"/>
        <pt x="745" y="-602" on="0"/>
        <pt x="705" y="-602" on="1"/>
        <pt x="625" y="-602" on="0"/>
        <pt x="542" y="-476" on="0"/>
        <pt x="542" y="-374" on="1"/>
        <pt x="542" y="-215" on="0"/>
        <pt x="627" y="-57" on="1"/>
        <pt x="530" y="115" on="0"/>
        <pt x="440" y="202" on="1"/>
        <pt x="402" y="202" on="0"/>
        <pt x="297" y="326" on="0"/>
        <pt x="297" y="364" on="1"/>
        <pt x="297" y="377" on="0"/>
        <pt x="334" y="405" on="0"/>
        <pt x="345" y="405" on="1"/>
        <pt x="364" y="405" on="0"/>
        <pt x="487" y="297" on="0"/>
        <pt x="544" y="224" on="1"/>
        <pt x="550" y="224" on="0"/>
        <pt x="574" y="243" on="0"/>
        <pt x="582" y="256" on="1"/>
        <pt x="602" y="290" on="0"/>
        <pt x="602" y="415" on="0"/>
        <pt x="525" y="547" on="0"/>
        <pt x="400" y="651" on="0"/>
        <pt x="230" y="717" on="0"/>
        <pt x="144" y="717" on="1"/>
        <pt x="87" y="717" on="0"/>
        <pt x="16" y="606" on="0"/>
        <pt x="16" y="473" on="0"/>
        <pt x="94" y="297" on="0"/>
        <pt x="262" y="111" on="0"/>
        <pt x="367" y="60" on="1"/>
        <pt x="367" y="51" on="0"/>
        <pt x="320" y="36" on="0"/>
        <pt x="296" y="34" on="1"/>
      </contour>
      <contour>
        <pt x="152" y="912" on="1"/>
        <pt x="152" y="925" on="0"/>
        <pt x="170" y="927" on="1"/>
        <pt x="220" y="927" on="0"/>
        <pt x="296" y="895" on="0"/>
        <pt x="314" y="872" on="1"/>
        <pt x="316" y="874" on="0"/>
        <pt x="328" y="888" on="1"/>
        <pt x="354" y="920" on="0"/>
        <pt x="391" y="951" on="1"/>
        <pt x="399" y="958" on="0"/>
        <pt x="415" y="958" on="0"/>
        <pt x="415" y="952" on="1"/>
        <pt x="373" y="919" on="0"/>
        <pt x="361" y="902" on="1"/>
        <pt x="344" y="878" on="1"/>
        <pt x="340" y="871" on="0"/>
        <pt x="334" y="859" on="1"/>
        <pt x="327" y="845" on="1"/>
        <pt x="327" y="831" on="0"/>
        <pt x="276" y="806" on="0"/>
        <pt x="244" y="806" on="0"/>
        <pt x="244" y="820" on="1"/>
        <pt x="245" y="825" on="0"/>
        <pt x="245" y="834" on="1"/>
        <pt x="245" y="869" on="0"/>
        <pt x="190" y="908" on="0"/>
      </contour>
    </TTGlyph>
    <TTGlyph name="a" xMin="0" yMin="-26" xMax="488" yMax="268">
      <contour>
        <pt x="203" y="262" on="1"/>
        <pt x="206" y="268" on="0"/>
        <pt x="309" y="268" on="0"/>
        <pt x="309" y="253" on="1"/>
        <pt x="309" y="250" on="0"/>
        <pt x="303" y="241" on="1"/>
        <pt x="268" y="193" on="0"/>
        <pt x="268" y="89" on="0"/>
        <pt x="317" y="22" on="0"/>
        <pt x="355" y="22" on="1"/>
        <pt x="417" y="22" on="0"/>
        <pt x="481" y="110" on="1"/>
        <pt x="488" y="98" on="1"/>
        <pt x="410" y="-26" on="0"/>
        <pt x="316" y="-26" on="1"/>
        <pt x="245" y="-26" on="0"/>
        <pt x="207" y="47" on="1"/>
        <pt x="191" y="23" on="0"/>
        <pt x="119" y="-19" on="0"/>
        <pt x="87" y="-19" on="1"/>
        <pt x="0" y="-19" on="0"/>
        <pt x="0" y="54" on="1"/>
        <pt x="0" y="111" on="0"/>
        <pt x="97" y="236" on="0"/>
        <pt x="144" y="236" on="1"/>
        <pt x="148" y="236" on="0"/>
        <pt x="148" y="230" on="0"/>
        <pt x="144" y="226" on="1"/>
        <pt x="123" y="215" on="0"/>
        <pt x="94" y="146" on="0"/>
        <pt x="94" y="110" on="1"/>
        <pt x="94" y="37" on="0"/>
        <pt x="150" y="37" on="1"/>
        <pt x="166" y="37" on="0"/>
        <pt x="195" y="54" on="0"/>
        <pt x="198" y="70" on="1"/>
        <pt x="185" y="105" on="0"/>
        <pt x="185" y="181" on="0"/>
        <pt x="188" y="207" on="1"/>
        <pt x="196" y="262" on="0"/>
      </contour>
    </TTGlyph>
    <TTGlyph name="aacute" xMin="0" yMin="-26" xMax="488" yMax="459">
      <contour>
        <pt x="111" y="353" on="1"/>
        <pt x="149" y="357" on="0"/>
        <pt x="204" y="396" on="0"/>
        <pt x="204" y="431" on="1"/>
        <pt x="204" y="440" on="0"/>
        <pt x="203" y="445" on="1"/>
        <pt x="203" y="459" on="0"/>
        <pt x="235" y="459" on="0"/>
        <pt x="286" y="434" on="0"/>
        <pt x="286" y="420" on="1"/>
        <pt x="286" y="395" on="0"/>
        <pt x="195" y="338" on="0"/>
        <pt x="129" y="338" on="1"/>
        <pt x="111" y="338" on="0"/>
      </contour>
      <contour>
        <pt x="203" y="262" on="1"/>
        <pt x="206" y="268" on="0"/>
        <pt x="309" y="268" on="0"/>
        <pt x="309" y="253" on="1"/>
        <pt x="309" y="250" on="0"/>
        <pt x="303" y="241" on="1"/>
        <pt x="268" y="193" on="0"/>
        <pt x="268" y="89" on="0"/>
        <pt x="317" y="22" on="0"/>
        <pt x="355" y="22" on="1"/>
        <pt x="417" y="22" on="0"/>
        <pt x="481" y="110" on="1"/>
        <pt x="488" y="98" on="1"/>
        <pt x="410" y="-26" on="0"/>
        <pt x="316" y="-26" on="1"/>
        <pt x="245" y="-26" on="0"/>
        <pt x="207" y="47" on="1"/>
        <pt x="191" y="23" on="0"/>
        <pt x="119" y="-19" on="0"/>
        <pt x="87" y="-19" on="1"/>
        <pt x="0" y="-19" on="0"/>
        <pt x="0" y="54" on="1"/>
        <pt x="0" y="111" on="0"/>
        <pt x="97" y="236" on="0"/>
        <pt x="144" y="236" on="1"/>
        <pt x="148" y="236" on="0"/>
        <pt x="148" y="230" on="0"/>
        <pt x="144" y="226" on="1"/>
        <pt x="123" y="215" on="0"/>
        <pt x="94" y="146" on="0"/>
        <pt x="94" y="110" on="1"/>
        <pt x="94" y="37" on="0"/>
        <pt x="150" y="37" on="1"/>
        <pt x="166" y="37" on="0"/>
        <pt x="195" y="54" on="0"/>
        <pt x="198" y="70" on="1"/>
        <pt x="185" y="105" on="0"/>
        <pt x="185" y="181" on="0"/>
        <pt x="188" y="207" on="1"/>
        <pt x="196" y="262" on="0"/>
      </contour>
    </TTGlyph>
    <TTGlyph name="acircumflex" xMin="0" yMin="-26" xMax="488" yMax="459">
      <component glyphName="a" x="0" y="0" flags="0x1004"/>
      <component glyphName="circumflex" x="-3" y="0" flags="0x1004"/>
    </TTGlyph>
    <TTGlyph name="acute" xMin="141" yMin="338" xMax="316" yMax="459">
      <contour>
        <pt x="141" y="353" on="1"/>
        <pt x="179" y="357" on="0"/>
        <pt x="234" y="396" on="0"/>
        <pt x="234" y="431" on="1"/>
        <pt x="234" y="440" on="0"/>
        <pt x="233" y="445" on="1"/>
        <pt x="233" y="459" on="0"/>
        <pt x="265" y="459" on="0"/>
        <pt x="316" y="434" on="0"/>
        <pt x="316" y="420" on="1"/>
        <pt x="316" y="395" on="0"/>
        <pt x="225" y="338" on="0"/>
        <pt x="159" y="338" on="1"/>
        <pt x="141" y="338" on="0"/>
      </contour>
    </TTGlyph>
    <TTGlyph name="adieresis" xMin="0" yMin="-26" xMax="488" yMax="456">
      <component glyphName="a" x="0" y="0" flags="0x1004"/>
      <component glyphName="dieresis" x="117" y="0" flags="0x1004"/>
    </TTGlyph>
    <TTGlyph name="ae" xMin="0" yMin="-45" xMax="550" yMax="352">
      <contour>
        <pt x="333" y="296" on="1"/>
        <pt x="334" y="309" on="1"/>
        <pt x="334" y="321" on="0"/>
        <pt x="280" y="321" on="0"/>
        <pt x="237" y="289" on="0"/>
        <pt x="237" y="262" on="1"/>
        <pt x="237" y="214" on="0"/>
        <pt x="306" y="214" on="1"/>
        <pt x="317" y="214" on="0"/>
        <pt x="340" y="221" on="0"/>
        <pt x="364" y="221" on="0"/>
        <pt x="364" y="213" on="1"/>
        <pt x="364" y="212" on="0"/>
        <pt x="348" y="205" on="0"/>
        <pt x="324" y="191" on="0"/>
        <pt x="312" y="180" on="1"/>
        <pt x="285" y="154" on="0"/>
        <pt x="285" y="64" on="0"/>
        <pt x="339" y="17" on="0"/>
        <pt x="425" y="17" on="0"/>
        <pt x="515" y="67" on="0"/>
        <pt x="543" y="110" on="1"/>
        <pt x="550" y="98" on="1"/>
        <pt x="512" y="32" on="0"/>
        <pt x="377" y="-45" on="0"/>
        <pt x="266" y="-45" on="0"/>
        <pt x="207" y="1" on="0"/>
        <pt x="207" y="45" on="1"/>
        <pt x="207" y="47" on="1"/>
        <pt x="190" y="23" on="0"/>
        <pt x="118" y="-19" on="0"/>
        <pt x="87" y="-19" on="1"/>
        <pt x="0" y="-19" on="0"/>
        <pt x="0" y="54" on="1"/>
        <pt x="0" y="111" on="0"/>
        <pt x="97" y="236" on="0"/>
        <pt x="144" y="236" on="1"/>
        <pt x="148" y="236" on="0"/>
        <pt x="148" y="230" on="0"/>
        <pt x="144" y="226" on="1"/>
        <pt x="123" y="215" on="0"/>
        <pt x="94" y="146" on="0"/>
        <pt x="94" y="110" on="1"/>
        <pt x="94" y="37" on="0"/>
        <pt x="150" y="37" on="1"/>
        <pt x="164" y="37" on="0"/>
        <pt x="202" y="61" on="0"/>
        <pt x="212" y="78" on="1"/>
        <pt x="219" y="100" on="0"/>
        <pt x="236" y="122" on="1"/>
        <pt x="256" y="151" on="0"/>
        <pt x="281" y="172" on="1"/>
        <pt x="283" y="174" on="0"/>
        <pt x="283" y="179" on="0"/>
        <pt x="282" y="179" on="1"/>
        <pt x="250" y="167" on="0"/>
        <pt x="220" y="167" on="1"/>
        <pt x="167" y="167" on="0"/>
        <pt x="167" y="210" on="1"/>
        <pt x="167" y="268" on="0"/>
        <pt x="299" y="352" on="0"/>
        <pt x="398" y="352" on="0"/>
        <pt x="398" y="328" on="1"/>
        <pt x="398" y="313" on="0"/>
        <pt x="366" y="279" on="0"/>
        <pt x="353" y="279" on="1"/>
        <pt x="333" y="279" on="0"/>
      </contour>
    </TTGlyph>
    <TTGlyph name="agrave" xMin="0" yMin="-26" xMax="488" yMax="459">
      <component glyphName="a" x="0" y="0" flags="0x1004"/>
      <component glyphName="grave" x="-76" y="0" flags="0x1004"/>
    </TTGlyph>
    <TTGlyph name="ampersand" xMin="-16" yMin="-110" xMax="497" yMax="832">
      <contour>
        <pt x="135" y="700" on="1"/>
        <pt x="135" y="617" on="0"/>
        <pt x="170" y="509" on="1"/>
        <pt x="253" y="606" on="0"/>
        <pt x="253" y="698" on="1"/>
        <pt x="253" y="741" on="0"/>
        <pt x="216" y="790" on="0"/>
        <pt x="168" y="790" on="0"/>
        <pt x="135" y="743" on="0"/>
      </contour>
      <contour>
        <pt x="316" y="45" on="1"/>
        <pt x="211" y="238" on="0"/>
        <pt x="146" y="432" on="1"/>
        <pt x="67" y="336" on="0"/>
        <pt x="67" y="139" on="0"/>
        <pt x="174" y="37" on="0"/>
        <pt x="254" y="37" on="1"/>
        <pt x="286" y="37" on="0"/>
      </contour>
      <contour>
        <pt x="134" y="469" on="1"/>
        <pt x="99" y="582" on="0"/>
        <pt x="99" y="735" on="0"/>
        <pt x="178" y="832" on="0"/>
        <pt x="227" y="832" on="1"/>
        <pt x="262" y="832" on="0"/>
        <pt x="310" y="777" on="0"/>
        <pt x="310" y="727" on="1"/>
        <pt x="310" y="629" on="0"/>
        <pt x="183" y="474" on="1"/>
        <pt x="246" y="299" on="0"/>
        <pt x="387" y="77" on="1"/>
        <pt x="452" y="121" on="0"/>
        <pt x="452" y="246" on="0"/>
        <pt x="381" y="293" on="1"/>
        <pt x="375" y="298" on="0"/>
        <pt x="375" y="314" on="0"/>
        <pt x="404" y="339" on="0"/>
        <pt x="419" y="339" on="0"/>
        <pt x="420" y="338" on="1"/>
        <pt x="497" y="278" on="0"/>
        <pt x="497" y="106" on="0"/>
        <pt x="415" y="35" on="1"/>
        <pt x="460" y="-33" on="0"/>
        <pt x="487" y="-64" on="0"/>
        <pt x="487" y="-74" on="0"/>
        <pt x="444" y="-110" on="0"/>
        <pt x="431" y="-110" on="1"/>
        <pt x="408" y="-110" on="0"/>
        <pt x="347" y="-8" on="1"/>
        <pt x="281" y="-41" on="0"/>
        <pt x="109" y="-41" on="0"/>
        <pt x="-16" y="62" on="0"/>
        <pt x="-16" y="163" on="1"/>
        <pt x="-16" y="303" on="0"/>
      </contour>
    </TTGlyph>
    <TTGlyph name="apple" xMin="0" yMin="-12" xMax="632" yMax="738">
      <contour>
        <pt x="458" y="204" on="1"/>
        <pt x="458" y="151" on="0"/>
        <pt x="369" y="96" on="0"/>
        <pt x="254" y="96" on="0"/>
        <pt x="174" y="135" on="1"/>
        <pt x="183" y="182" on="1"/>
        <pt x="249" y="141" on="0"/>
        <pt x="311" y="141" on="1"/>
        <pt x="351" y="141" on="0"/>
        <pt x="401" y="174" on="0"/>
        <pt x="401" y="223" on="0"/>
        <pt x="356" y="262" on="0"/>
        <pt x="292" y="293" on="0"/>
        <pt x="228" y="327" on="0"/>
        <pt x="183" y="378" on="0"/>
        <pt x="183" y="409" on="1"/>
        <pt x="183" y="463" on="0"/>
        <pt x="262" y="512" on="0"/>
        <pt x="314" y="512" on="1"/>
        <pt x="351" y="512" on="0"/>
        <pt x="374" y="501" on="1"/>
        <pt x="420" y="479" on="0"/>
        <pt x="435" y="469" on="1"/>
        <pt x="424" y="426" on="1"/>
        <pt x="376" y="468" on="0"/>
        <pt x="317" y="468" on="1"/>
        <pt x="281" y="468" on="0"/>
        <pt x="237" y="437" on="0"/>
        <pt x="237" y="390" on="0"/>
        <pt x="283" y="354" on="0"/>
        <pt x="348" y="327" on="0"/>
        <pt x="412" y="296" on="0"/>
        <pt x="458" y="241" on="0"/>
      </contour>
      <contour>
        <pt x="586" y="192" on="0"/>
        <pt x="586" y="416" on="0"/>
        <pt x="428" y="575" on="0"/>
        <pt x="204" y="575" on="0"/>
        <pt x="45" y="416" on="0"/>
        <pt x="45" y="192" on="0"/>
        <pt x="204" y="33" on="0"/>
        <pt x="428" y="33" on="0"/>
      </contour>
      <contour>
        <pt x="632" y="434" on="0"/>
        <pt x="632" y="174" on="0"/>
        <pt x="446" y="-12" on="0"/>
        <pt x="185" y="-12" on="0"/>
        <pt x="0" y="173" on="0"/>
        <pt x="0" y="435" on="0"/>
        <pt x="185" y="620" on="0"/>
        <pt x="446" y="620" on="0"/>
      </contour>
      <contour>
        <pt x="434" y="738" on="1"/>
        <pt x="344" y="653" on="1"/>
        <pt x="335" y="654" on="0"/>
        <pt x="297" y="654" on="0"/>
        <pt x="288" y="653" on="1"/>
        <pt x="198" y="738" on="1"/>
        <pt x="257" y="738" on="1"/>
        <pt x="315" y="677" on="1"/>
        <pt x="374" y="738" on="1"/>
      </contour>
    </TTGlyph>
    <TTGlyph name="aring" xMin="0" yMin="-26" xMax="488" yMax="447">
      <contour>
        <pt x="114" y="371" on="0"/>
        <pt x="138" y="344" on="0"/>
        <pt x="155" y="344" on="1"/>
        <pt x="186" y="344" on="0"/>
        <pt x="186" y="372" on="1"/>
        <pt x="186" y="388" on="0"/>
        <pt x="159" y="412" on="0"/>
        <pt x="135" y="412" on="1"/>
        <pt x="114" y="412" on="0"/>
        <pt x="114" y="388" on="1"/>
      </contour>
      <contour>
        <pt x="86" y="393" on="0"/>
        <pt x="127" y="447" on="0"/>
        <pt x="186" y="447" on="0"/>
        <pt x="215" y="417" on="0"/>
        <pt x="215" y="363" on="0"/>
        <pt x="171" y="310" on="0"/>
        <pt x="112" y="310" on="0"/>
        <pt x="86" y="339" on="0"/>
      </contour>
      <contour>
        <pt x="203" y="262" on="1"/>
        <pt x="206" y="268" on="0"/>
        <pt x="309" y="268" on="0"/>
        <pt x="309" y="253" on="1"/>
        <pt x="309" y="250" on="0"/>
        <pt x="303" y="241" on="1"/>
        <pt x="268" y="193" on="0"/>
        <pt x="268" y="89" on="0"/>
        <pt x="317" y="22" on="0"/>
        <pt x="355" y="22" on="1"/>
        <pt x="417" y="22" on="0"/>
        <pt x="481" y="110" on="1"/>
        <pt x="488" y="98" on="1"/>
        <pt x="410" y="-26" on="0"/>
        <pt x="316" y="-26" on="1"/>
        <pt x="245" y="-26" on="0"/>
        <pt x="207" y="47" on="1"/>
        <pt x="191" y="23" on="0"/>
        <pt x="119" y="-19" on="0"/>
        <pt x="87" y="-19" on="1"/>
        <pt x="0" y="-19" on="0"/>
        <pt x="0" y="54" on="1"/>
        <pt x="0" y="111" on="0"/>
        <pt x="97" y="236" on="0"/>
        <pt x="144" y="236" on="1"/>
        <pt x="148" y="236" on="0"/>
        <pt x="148" y="230" on="0"/>
        <pt x="144" y="226" on="1"/>
        <pt x="123" y="215" on="0"/>
        <pt x="94" y="146" on="0"/>
        <pt x="94" y="110" on="1"/>
        <pt x="94" y="37" on="0"/>
        <pt x="150" y="37" on="1"/>
        <pt x="166" y="37" on="0"/>
        <pt x="195" y="54" on="0"/>
        <pt x="198" y="70" on="1"/>
        <pt x="185" y="105" on="0"/>
        <pt x="185" y="181" on="0"/>
        <pt x="188" y="207" on="1"/>
        <pt x="196" y="262" on="0"/>
      </contour>
    </TTGlyph>
    <TTGlyph name="asciicircum" xMin="81" yMin="77" xMax="344" yMax="229">
      <contour>
        <pt x="344" y="123" on="1"/>
        <pt x="344" y="110" on="0"/>
        <pt x="326" y="108" on="1"/>
        <pt x="276" y="108" on="0"/>
        <pt x="200" y="140" on="0"/>
        <pt x="182" y="163" on="1"/>
        <pt x="180" y="161" on="0"/>
        <pt x="168" y="147" on="1"/>
        <pt x="142" y="115" on="0"/>
        <pt x="105" y="84" on="1"/>
        <pt x="97" y="77" on="0"/>
        <pt x="81" y="77" on="0"/>
        <pt x="81" y="83" on="1"/>
        <pt x="123" y="116" on="0"/>
        <pt x="135" y="133" on="1"/>
        <pt x="152" y="158" on="1"/>
        <pt x="156" y="164" on="0"/>
        <pt x="162" y="176" on="1"/>
        <pt x="169" y="190" on="1"/>
        <pt x="169" y="204" on="0"/>
        <pt x="220" y="229" on="0"/>
        <pt x="252" y="229" on="0"/>
        <pt x="252" y="215" on="1"/>
        <pt x="251" y="210" on="0"/>
        <pt x="251" y="201" on="1"/>
        <pt x="251" y="166" on="0"/>
        <pt x="306" y="127" on="0"/>
      </contour>
    </TTGlyph>
    <TTGlyph name="asciitilde" xMin="65" yMin="69" xMax="320" yMax="192">
      <contour>
        <pt x="158" y="158" on="1"/>
        <pt x="243" y="148" on="1"/>
        <pt x="272" y="148" on="0"/>
        <pt x="312" y="192" on="1"/>
        <pt x="320" y="192" on="0"/>
        <pt x="320" y="180" on="1"/>
        <pt x="320" y="156" on="0"/>
        <pt x="249" y="87" on="0"/>
        <pt x="208" y="87" on="1"/>
        <pt x="196" y="87" on="0"/>
        <pt x="134" y="104" on="0"/>
        <pt x="124" y="104" on="1"/>
        <pt x="90" y="104" on="0"/>
        <pt x="76" y="69" on="1"/>
        <pt x="65" y="69" on="0"/>
        <pt x="65" y="80" on="1"/>
        <pt x="65" y="115" on="0"/>
        <pt x="128" y="158" on="0"/>
      </contour>
    </TTGlyph>
    <TTGlyph name="asterisk" xMin="-97" yMin="433" xMax="243" yMax="790">
      <contour>
        <pt x="-97" y="661" on="0"/>
        <pt x="-97" y="683" on="0"/>
        <pt x="-87" y="683" on="1"/>
        <pt x="-81" y="683" on="0"/>
        <pt x="-69" y="677" on="1"/>
        <pt x="-16" y="651" on="0"/>
        <pt x="51" y="625" on="1"/>
        <pt x="6" y="718" on="0"/>
        <pt x="6" y="742" on="0"/>
        <pt x="41" y="790" on="0"/>
        <pt x="56" y="790" on="0"/>
        <pt x="58" y="772" on="0"/>
        <pt x="65" y="688" on="0"/>
        <pt x="75" y="635" on="1"/>
        <pt x="138" y="730" on="0"/>
        <pt x="150" y="730" on="1"/>
        <pt x="167" y="730" on="0"/>
        <pt x="211" y="720" on="0"/>
        <pt x="211" y="710" on="1"/>
        <pt x="211" y="704" on="0"/>
        <pt x="187" y="688" on="0"/>
        <pt x="174" y="680" on="1"/>
        <pt x="148" y="663" on="0"/>
        <pt x="90" y="614" on="1"/>
        <pt x="219" y="604" on="0"/>
        <pt x="230" y="590" on="0"/>
        <pt x="243" y="554" on="0"/>
        <pt x="243" y="532" on="0"/>
        <pt x="231" y="532" on="0"/>
        <pt x="220" y="538" on="1"/>
        <pt x="175" y="561" on="0"/>
        <pt x="90" y="589" on="1"/>
        <pt x="151" y="505" on="0"/>
        <pt x="151" y="482" on="1"/>
        <pt x="151" y="471" on="0"/>
        <pt x="130" y="433" on="0"/>
        <pt x="113" y="433" on="0"/>
        <pt x="103" y="460" on="0"/>
        <pt x="81" y="546" on="0"/>
        <pt x="67" y="586" on="1"/>
        <pt x="2" y="492" on="0"/>
        <pt x="-13" y="492" on="1"/>
        <pt x="-34" y="492" on="0"/>
        <pt x="-69" y="502" on="0"/>
        <pt x="-69" y="510" on="1"/>
        <pt x="-69" y="518" on="0"/>
        <pt x="-47" y="532" on="0"/>
        <pt x="-36" y="538" on="1"/>
        <pt x="-6" y="555" on="0"/>
        <pt x="49" y="600" on="1"/>
        <pt x="-69" y="611" on="0"/>
        <pt x="-78" y="620" on="1"/>
        <pt x="-84" y="628" on="0"/>
      </contour>
    </TTGlyph>
    <TTGlyph name="at" xMin="14" yMin="-216" xMax="656" yMax="472">
      <contour>
        <pt x="374" y="-179" on="1"/>
        <pt x="499" y="-179" on="0"/>
        <pt x="591" y="-60" on="1"/>
        <pt x="598" y="-72" on="1"/>
        <pt x="553" y="-145" on="0"/>
        <pt x="412" y="-216" on="0"/>
        <pt x="331" y="-216" on="1"/>
        <pt x="173" y="-216" on="0"/>
        <pt x="14" y="-50" on="0"/>
        <pt x="14" y="75" on="1"/>
        <pt x="14" y="166" on="0"/>
        <pt x="83" y="320" on="0"/>
        <pt x="195" y="418" on="0"/>
        <pt x="329" y="472" on="0"/>
        <pt x="397" y="472" on="1"/>
        <pt x="508" y="472" on="0"/>
        <pt x="656" y="333" on="0"/>
        <pt x="656" y="200" on="1"/>
        <pt x="656" y="109" on="0"/>
        <pt x="559" y="-26" on="0"/>
        <pt x="409" y="-26" on="0"/>
        <pt x="371" y="47" on="1"/>
        <pt x="355" y="23" on="0"/>
        <pt x="283" y="-19" on="0"/>
        <pt x="251" y="-19" on="1"/>
        <pt x="164" y="-19" on="0"/>
        <pt x="164" y="54" on="1"/>
        <pt x="164" y="111" on="0"/>
        <pt x="261" y="236" on="0"/>
        <pt x="308" y="236" on="1"/>
        <pt x="312" y="236" on="0"/>
        <pt x="312" y="230" on="0"/>
        <pt x="308" y="226" on="1"/>
        <pt x="287" y="215" on="0"/>
        <pt x="258" y="146" on="0"/>
        <pt x="258" y="110" on="1"/>
        <pt x="258" y="37" on="0"/>
        <pt x="314" y="37" on="1"/>
        <pt x="330" y="37" on="0"/>
        <pt x="359" y="54" on="0"/>
        <pt x="362" y="70" on="1"/>
        <pt x="349" y="105" on="0"/>
        <pt x="349" y="181" on="0"/>
        <pt x="352" y="207" on="1"/>
        <pt x="360" y="262" on="0"/>
        <pt x="367" y="262" on="1"/>
        <pt x="370" y="268" on="0"/>
        <pt x="473" y="268" on="0"/>
        <pt x="473" y="253" on="1"/>
        <pt x="473" y="250" on="0"/>
        <pt x="467" y="241" on="1"/>
        <pt x="432" y="193" on="0"/>
        <pt x="432" y="89" on="0"/>
        <pt x="481" y="22" on="0"/>
        <pt x="564" y="22" on="0"/>
        <pt x="618" y="103" on="0"/>
        <pt x="618" y="162" on="1"/>
        <pt x="618" y="285" on="0"/>
        <pt x="456" y="428" on="0"/>
        <pt x="234" y="428" on="0"/>
        <pt x="72" y="274" on="0"/>
        <pt x="72" y="132" on="1"/>
        <pt x="72" y="-45" on="0"/>
        <pt x="204" y="-132" on="1"/>
        <pt x="275" y="-179" on="0"/>
      </contour>
    </TTGlyph>
    <TTGlyph name="atilde" xMin="0" yMin="-26" xMax="488" yMax="433">
      <contour>
        <pt x="136" y="399" on="1"/>
        <pt x="221" y="389" on="1"/>
        <pt x="250" y="389" on="0"/>
        <pt x="290" y="433" on="1"/>
        <pt x="298" y="433" on="0"/>
        <pt x="298" y="421" on="1"/>
        <pt x="298" y="397" on="0"/>
        <pt x="227" y="328" on="0"/>
        <pt x="186" y="328" on="1"/>
        <pt x="174" y="328" on="0"/>
        <pt x="112" y="345" on="0"/>
        <pt x="102" y="345" on="1"/>
        <pt x="68" y="345" on="0"/>
        <pt x="54" y="310" on="1"/>
        <pt x="43" y="310" on="0"/>
        <pt x="43" y="321" on="1"/>
        <pt x="43" y="356" on="0"/>
        <pt x="106" y="399" on="0"/>
      </contour>
      <contour>
        <pt x="203" y="262" on="1"/>
        <pt x="206" y="268" on="0"/>
        <pt x="309" y="268" on="0"/>
        <pt x="309" y="253" on="1"/>
        <pt x="309" y="250" on="0"/>
        <pt x="303" y="241" on="1"/>
        <pt x="268" y="193" on="0"/>
        <pt x="268" y="89" on="0"/>
        <pt x="317" y="22" on="0"/>
        <pt x="355" y="22" on="1"/>
        <pt x="417" y="22" on="0"/>
        <pt x="481" y="110" on="1"/>
        <pt x="488" y="98" on="1"/>
        <pt x="410" y="-26" on="0"/>
        <pt x="316" y="-26" on="1"/>
        <pt x="245" y="-26" on="0"/>
        <pt x="207" y="47" on="1"/>
        <pt x="191" y="23" on="0"/>
        <pt x="119" y="-19" on="0"/>
        <pt x="87" y="-19" on="1"/>
        <pt x="0" y="-19" on="0"/>
        <pt x="0" y="54" on="1"/>
        <pt x="0" y="111" on="0"/>
        <pt x="97" y="236" on="0"/>
        <pt x="144" y="236" on="1"/>
        <pt x="148" y="236" on="0"/>
        <pt x="148" y="230" on="0"/>
        <pt x="144" y="226" on="1"/>
        <pt x="123" y="215" on="0"/>
        <pt x="94" y="146" on="0"/>
        <pt x="94" y="110" on="1"/>
        <pt x="94" y="37" on="0"/>
        <pt x="150" y="37" on="1"/>
        <pt x="166" y="37" on="0"/>
        <pt x="195" y="54" on="0"/>
        <pt x="198" y="70" on="1"/>
        <pt x="185" y="105" on="0"/>
        <pt x="185" y="181" on="0"/>
        <pt x="188" y="207" on="1"/>
        <pt x="196" y="262" on="0"/>
      </contour>
    </TTGlyph>
    <TTGlyph name="b" xMin="-30" yMin="-40" xMax="437" yMax="768">
      <contour>
        <pt x="220" y="189" on="1"/>
        <pt x="208" y="189" on="0"/>
        <pt x="208" y="141" on="0"/>
        <pt x="247" y="76" on="0"/>
        <pt x="277" y="57" on="1"/>
        <pt x="278" y="62" on="0"/>
        <pt x="278" y="72" on="1"/>
        <pt x="278" y="116" on="0"/>
        <pt x="244" y="189" on="0"/>
      </contour>
      <contour>
        <pt x="33" y="535" on="1"/>
        <pt x="33" y="335" on="0"/>
        <pt x="79" y="195" on="1"/>
        <pt x="124" y="318" on="0"/>
        <pt x="124" y="524" on="1"/>
        <pt x="124" y="613" on="0"/>
        <pt x="102" y="729" on="0"/>
        <pt x="83" y="729" on="1"/>
        <pt x="58" y="729" on="0"/>
        <pt x="33" y="622" on="0"/>
      </contour>
      <contour>
        <pt x="192" y="630" on="1"/>
        <pt x="192" y="532" on="0"/>
        <pt x="125" y="260" on="0"/>
        <pt x="86" y="175" on="1"/>
        <pt x="117" y="87" on="0"/>
        <pt x="197" y="-8" on="0"/>
        <pt x="263" y="-8" on="0"/>
        <pt x="274" y="33" on="1"/>
        <pt x="229" y="53" on="0"/>
        <pt x="166" y="141" on="0"/>
        <pt x="166" y="185" on="1"/>
        <pt x="166" y="208" on="0"/>
        <pt x="188" y="236" on="0"/>
        <pt x="209" y="236" on="1"/>
        <pt x="261" y="236" on="0"/>
        <pt x="318" y="157" on="0"/>
        <pt x="318" y="102" on="1"/>
        <pt x="318" y="71" on="0"/>
        <pt x="308" y="43" on="1"/>
        <pt x="318" y="40" on="0"/>
        <pt x="331" y="40" on="1"/>
        <pt x="386" y="40" on="0"/>
        <pt x="429" y="110" on="1"/>
        <pt x="437" y="100" on="1"/>
        <pt x="392" y="23" on="0"/>
        <pt x="324" y="23" on="1"/>
        <pt x="316" y="23" on="0"/>
        <pt x="300" y="25" on="1"/>
        <pt x="265" y="-40" on="0"/>
        <pt x="194" y="-40" on="1"/>
        <pt x="112" y="-40" on="0"/>
        <pt x="44" y="58" on="1"/>
        <pt x="11" y="107" on="0"/>
        <pt x="-30" y="278" on="0"/>
        <pt x="-30" y="488" on="0"/>
        <pt x="5" y="658" on="0"/>
        <pt x="75" y="768" on="0"/>
        <pt x="120" y="768" on="1"/>
        <pt x="192" y="768" on="0"/>
      </contour>
    </TTGlyph>
    <TTGlyph name="backslash" xMin="-44" yMin="-124" xMax="425" yMax="857">
      <contour>
        <pt x="424" y="-122" on="1"/>
        <pt x="425" y="-124" on="1"/>
        <pt x="367" y="-102" on="0"/>
        <pt x="344" y="-72" on="0"/>
        <pt x="338" y="-55" on="1"/>
        <pt x="186" y="336" on="0"/>
        <pt x="56" y="645" on="0"/>
        <pt x="-34" y="830" on="1"/>
        <pt x="-44" y="853" on="0"/>
        <pt x="-40" y="857" on="1"/>
        <pt x="13" y="839" on="0"/>
        <pt x="55" y="791" on="0"/>
        <pt x="344" y="76" on="0"/>
        <pt x="397" y="-67" on="1"/>
        <pt x="398" y="-68" on="0"/>
        <pt x="421" y="-119" on="0"/>
      </contour>
    </TTGlyph>
    <TTGlyph name="bar" xMin="110" yMin="-81" xMax="210" yMax="921">
      <contour>
        <pt x="168" y="921" on="1"/>
        <pt x="163" y="756" on="0"/>
        <pt x="163" y="433" on="0"/>
        <pt x="186" y="83" on="0"/>
        <pt x="198" y="16" on="1"/>
        <pt x="210" y="-52" on="1"/>
        <pt x="210" y="-61" on="0"/>
        <pt x="152" y="-81" on="1"/>
        <pt x="138" y="68" on="0"/>
        <pt x="131" y="156" on="1"/>
        <pt x="110" y="422" on="0"/>
        <pt x="110" y="835" on="1"/>
        <pt x="110" y="900" on="1"/>
        <pt x="157" y="919" on="0"/>
      </contour>
    </TTGlyph>
    <TTGlyph name="braceleft" xMin="-12" yMin="-248" xMax="368" yMax="932">
      <contour>
        <pt x="76" y="313" on="1"/>
        <pt x="113" y="294" on="0"/>
        <pt x="180" y="227" on="0"/>
        <pt x="198" y="189" on="1"/>
        <pt x="231" y="118" on="0"/>
        <pt x="243" y="-112" on="0"/>
        <pt x="280" y="-191" on="0"/>
        <pt x="331" y="-221" on="0"/>
        <pt x="368" y="-226" on="1"/>
        <pt x="360" y="-248" on="1"/>
        <pt x="308" y="-246" on="0"/>
        <pt x="231" y="-213" on="0"/>
        <pt x="188" y="-165" on="0"/>
        <pt x="175" y="-129" on="1"/>
        <pt x="153" y="-68" on="0"/>
        <pt x="153" y="16" on="1"/>
        <pt x="153" y="119" on="0"/>
        <pt x="130" y="196" on="0"/>
        <pt x="119" y="224" on="1"/>
        <pt x="97" y="279" on="0"/>
        <pt x="47" y="306" on="1"/>
        <pt x="74" y="342" on="0"/>
        <pt x="74" y="451" on="0"/>
        <pt x="47" y="557" on="0"/>
        <pt x="31" y="589" on="1"/>
        <pt x="-12" y="675" on="0"/>
        <pt x="-12" y="768" on="1"/>
        <pt x="-12" y="829" on="0"/>
        <pt x="36" y="873" on="1"/>
        <pt x="56" y="892" on="0"/>
        <pt x="108" y="932" on="1"/>
        <pt x="124" y="914" on="1"/>
        <pt x="92" y="895" on="0"/>
        <pt x="59" y="847" on="0"/>
        <pt x="59" y="759" on="0"/>
        <pt x="131" y="545" on="0"/>
        <pt x="131" y="388" on="0"/>
      </contour>
    </TTGlyph>
    <TTGlyph name="braceright" xMin="-129" yMin="-248" xMax="251" yMax="932">
      <contour>
        <pt x="163" y="371" on="1"/>
        <pt x="126" y="390" on="0"/>
        <pt x="59" y="457" on="0"/>
        <pt x="41" y="495" on="1"/>
        <pt x="8" y="566" on="0"/>
        <pt x="-4" y="796" on="0"/>
        <pt x="-41" y="875" on="0"/>
        <pt x="-92" y="905" on="0"/>
        <pt x="-129" y="910" on="1"/>
        <pt x="-121" y="932" on="1"/>
        <pt x="-69" y="930" on="0"/>
        <pt x="8" y="897" on="0"/>
        <pt x="51" y="849" on="0"/>
        <pt x="64" y="813" on="1"/>
        <pt x="86" y="752" on="0"/>
        <pt x="86" y="668" on="1"/>
        <pt x="86" y="565" on="0"/>
        <pt x="109" y="488" on="0"/>
        <pt x="120" y="460" on="1"/>
        <pt x="142" y="405" on="0"/>
        <pt x="192" y="378" on="1"/>
        <pt x="165" y="342" on="0"/>
        <pt x="165" y="233" on="0"/>
        <pt x="192" y="127" on="0"/>
        <pt x="208" y="95" on="1"/>
        <pt x="251" y="9" on="0"/>
        <pt x="251" y="-84" on="1"/>
        <pt x="251" y="-145" on="0"/>
        <pt x="204" y="-189" on="1"/>
        <pt x="183" y="-208" on="0"/>
        <pt x="131" y="-248" on="1"/>
        <pt x="115" y="-230" on="1"/>
        <pt x="147" y="-211" on="0"/>
        <pt x="180" y="-163" on="0"/>
        <pt x="180" y="-75" on="0"/>
        <pt x="108" y="139" on="0"/>
        <pt x="108" y="296" on="0"/>
      </contour>
    </TTGlyph>
    <TTGlyph name="bracketleft" xMin="-25" yMin="-200" xMax="497" yMax="883">
      <contour>
        <pt x="48" y="813" on="1"/>
        <pt x="147" y="591" on="0"/>
        <pt x="297" y="-161" on="1"/>
        <pt x="432" y="-157" on="0"/>
        <pt x="480" y="-142" on="1"/>
        <pt x="497" y="-136" on="1"/>
        <pt x="491" y="-189" on="1"/>
        <pt x="243" y="-200" on="1"/>
        <pt x="163" y="239" on="0"/>
        <pt x="58" y="679" on="0"/>
        <pt x="-15" y="830" on="1"/>
        <pt x="-25" y="852" on="0"/>
        <pt x="-21" y="856" on="1"/>
        <pt x="-22" y="857" on="1"/>
        <pt x="61" y="857" on="0"/>
        <pt x="180" y="870" on="0"/>
        <pt x="198" y="876" on="1"/>
        <pt x="215" y="883" on="1"/>
        <pt x="209" y="830" on="1"/>
        <pt x="170" y="817" on="0"/>
      </contour>
    </TTGlyph>
    <TTGlyph name="bracketright" xMin="-97" yMin="-199" xMax="425" yMax="884">
      <contour>
        <pt x="352" y="-129" on="1"/>
        <pt x="332" y="-87" on="0"/>
        <pt x="280" y="71" on="0"/>
        <pt x="166" y="529" on="0"/>
        <pt x="103" y="845" on="1"/>
        <pt x="-32" y="841" on="0"/>
        <pt x="-80" y="826" on="1"/>
        <pt x="-97" y="820" on="1"/>
        <pt x="-91" y="873" on="1"/>
        <pt x="157" y="884" on="1"/>
        <pt x="237" y="445" on="0"/>
        <pt x="342" y="5" on="0"/>
        <pt x="415" y="-146" on="1"/>
        <pt x="425" y="-168" on="0"/>
        <pt x="421" y="-172" on="1"/>
        <pt x="422" y="-173" on="1"/>
        <pt x="339" y="-173" on="0"/>
        <pt x="220" y="-186" on="0"/>
        <pt x="202" y="-192" on="1"/>
        <pt x="185" y="-199" on="1"/>
        <pt x="191" y="-146" on="1"/>
        <pt x="229" y="-133" on="0"/>
      </contour>
    </TTGlyph>
    <TTGlyph name="breve" xMin="41" yMin="307" xMax="233" yMax="460">
      <contour>
        <pt x="67" y="430" on="1"/>
        <pt x="72" y="399" on="0"/>
        <pt x="108" y="365" on="0"/>
        <pt x="161" y="365" on="0"/>
        <pt x="213" y="417" on="0"/>
        <pt x="217" y="460" on="1"/>
        <pt x="233" y="452" on="0"/>
        <pt x="233" y="446" on="1"/>
        <pt x="228" y="378" on="0"/>
        <pt x="167" y="307" on="0"/>
        <pt x="92" y="307" on="0"/>
        <pt x="41" y="362" on="0"/>
        <pt x="41" y="407" on="1"/>
        <pt x="41" y="411" on="1"/>
        <pt x="41" y="430" on="0"/>
        <pt x="61" y="430" on="1"/>
      </contour>
    </TTGlyph>
    <TTGlyph name="brokenbar" xMin="110" yMin="-81" xMax="210" yMax="921">
      <contour>
        <pt x="168" y="921" on="1"/>
        <pt x="163" y="756" on="0"/>
        <pt x="163" y="551" on="0"/>
        <pt x="164" y="507" on="1"/>
        <pt x="114" y="507" on="1"/>
        <pt x="110" y="632" on="0"/>
        <pt x="110" y="835" on="1"/>
        <pt x="110" y="900" on="1"/>
        <pt x="157" y="919" on="0"/>
      </contour>
      <contour>
        <pt x="152" y="-81" on="1"/>
        <pt x="128" y="168" on="0"/>
        <pt x="120" y="340" on="1"/>
        <pt x="170" y="340" on="1"/>
        <pt x="182" y="102" on="0"/>
        <pt x="203" y="-14" on="1"/>
        <pt x="210" y="-52" on="1"/>
        <pt x="210" y="-61" on="0"/>
      </contour>
    </TTGlyph>
    <TTGlyph name="bullet" xMin="69" yMin="59" xMax="203" yMax="211">
      <contour>
        <pt x="203" y="166" on="0"/>
        <pt x="203" y="104" on="0"/>
        <pt x="164" y="59" on="0"/>
        <pt x="108" y="59" on="0"/>
        <pt x="69" y="104" on="0"/>
        <pt x="69" y="166" on="0"/>
        <pt x="108" y="211" on="0"/>
        <pt x="164" y="211" on="0"/>
      </contour>
    </TTGlyph>
    <TTGlyph name="c" xMin="0" yMin="-39" xMax="431" yMax="292">
      <contour>
        <pt x="206" y="240" on="1"/>
        <pt x="206" y="270" on="0"/>
        <pt x="130" y="270" on="0"/>
        <pt x="80" y="202" on="0"/>
        <pt x="80" y="97" on="0"/>
        <pt x="161" y="12" on="0"/>
        <pt x="242" y="12" on="1"/>
        <pt x="293" y="12" on="0"/>
        <pt x="390" y="61" on="0"/>
        <pt x="424" y="110" on="1"/>
        <pt x="431" y="98" on="1"/>
        <pt x="395" y="33" on="0"/>
        <pt x="246" y="-39" on="0"/>
        <pt x="95" y="-39" on="0"/>
        <pt x="0" y="24" on="0"/>
        <pt x="0" y="83" on="1"/>
        <pt x="0" y="158" on="0"/>
        <pt x="119" y="292" on="0"/>
        <pt x="208" y="292" on="1"/>
        <pt x="239" y="292" on="0"/>
        <pt x="269" y="261" on="0"/>
        <pt x="269" y="210" on="0"/>
        <pt x="233" y="161" on="0"/>
        <pt x="210" y="161" on="1"/>
        <pt x="198" y="161" on="0"/>
        <pt x="173" y="180" on="0"/>
        <pt x="173" y="193" on="0"/>
        <pt x="183" y="202" on="0"/>
        <pt x="190" y="206" on="1"/>
        <pt x="206" y="214" on="0"/>
      </contour>
    </TTGlyph>
    <TTGlyph name="caron" xMin="55" yMin="307" xMax="318" yMax="459">
      <contour>
        <pt x="55" y="413" on="1"/>
        <pt x="55" y="426" on="0"/>
        <pt x="73" y="428" on="1"/>
        <pt x="123" y="428" on="0"/>
        <pt x="199" y="396" on="0"/>
        <pt x="217" y="373" on="1"/>
        <pt x="219" y="375" on="0"/>
        <pt x="230" y="389" on="1"/>
        <pt x="257" y="421" on="0"/>
        <pt x="294" y="452" on="1"/>
        <pt x="302" y="459" on="0"/>
        <pt x="318" y="459" on="0"/>
        <pt x="318" y="453" on="1"/>
        <pt x="276" y="420" on="0"/>
        <pt x="264" y="403" on="1"/>
        <pt x="248" y="378" on="1"/>
        <pt x="243" y="372" on="0"/>
        <pt x="237" y="360" on="1"/>
        <pt x="230" y="346" on="1"/>
        <pt x="230" y="332" on="0"/>
        <pt x="179" y="307" on="0"/>
        <pt x="147" y="307" on="0"/>
        <pt x="147" y="321" on="1"/>
        <pt x="148" y="326" on="0"/>
        <pt x="148" y="335" on="1"/>
        <pt x="148" y="370" on="0"/>
        <pt x="93" y="409" on="0"/>
      </contour>
    </TTGlyph>
    <TTGlyph name="ccedilla" xMin="0" yMin="-186" xMax="431" yMax="292">
      <contour>
        <pt x="206" y="240" on="1"/>
        <pt x="206" y="270" on="0"/>
        <pt x="130" y="270" on="0"/>
        <pt x="80" y="202" on="0"/>
        <pt x="80" y="97" on="0"/>
        <pt x="161" y="12" on="0"/>
        <pt x="242" y="12" on="1"/>
        <pt x="293" y="12" on="0"/>
        <pt x="390" y="61" on="0"/>
        <pt x="424" y="110" on="1"/>
        <pt x="431" y="98" on="1"/>
        <pt x="403" y="47" on="0"/>
        <pt x="299" y="-19" on="0"/>
        <pt x="236" y="-32" on="1"/>
        <pt x="235" y="-35" on="0"/>
        <pt x="235" y="-42" on="1"/>
        <pt x="235" y="-66" on="0"/>
        <pt x="303" y="-110" on="0"/>
        <pt x="303" y="-147" on="0"/>
        <pt x="242" y="-186" on="0"/>
        <pt x="175" y="-186" on="0"/>
        <pt x="151" y="-172" on="1"/>
        <pt x="159" y="-165" on="1"/>
        <pt x="180" y="-171" on="0"/>
        <pt x="218" y="-171" on="0"/>
        <pt x="239" y="-146" on="0"/>
        <pt x="239" y="-122" on="0"/>
        <pt x="205" y="-70" on="0"/>
        <pt x="205" y="-44" on="0"/>
        <pt x="212" y="-36" on="1"/>
        <pt x="190" y="-39" on="0"/>
        <pt x="168" y="-39" on="1"/>
        <pt x="95" y="-39" on="0"/>
        <pt x="0" y="24" on="0"/>
        <pt x="0" y="83" on="1"/>
        <pt x="0" y="158" on="0"/>
        <pt x="119" y="292" on="0"/>
        <pt x="208" y="292" on="1"/>
        <pt x="239" y="292" on="0"/>
        <pt x="269" y="261" on="0"/>
        <pt x="269" y="210" on="0"/>
        <pt x="233" y="161" on="0"/>
        <pt x="210" y="161" on="1"/>
        <pt x="198" y="161" on="0"/>
        <pt x="173" y="180" on="0"/>
        <pt x="173" y="193" on="0"/>
        <pt x="183" y="202" on="0"/>
        <pt x="190" y="206" on="1"/>
        <pt x="206" y="214" on="0"/>
      </contour>
    </TTGlyph>
    <TTGlyph name="cedilla" xMin="119" yMin="-187" xMax="271" yMax="-24">
      <contour>
        <pt x="186" y="-172" on="0"/>
        <pt x="207" y="-147" on="0"/>
        <pt x="207" y="-122" on="0"/>
        <pt x="173" y="-71" on="0"/>
        <pt x="173" y="-44" on="0"/>
        <pt x="183" y="-34" on="1"/>
        <pt x="209" y="-24" on="1"/>
        <pt x="203" y="-35" on="0"/>
        <pt x="203" y="-43" on="1"/>
        <pt x="203" y="-67" on="0"/>
        <pt x="271" y="-111" on="0"/>
        <pt x="271" y="-148" on="0"/>
        <pt x="210" y="-187" on="0"/>
        <pt x="143" y="-187" on="0"/>
        <pt x="119" y="-173" on="1"/>
        <pt x="127" y="-166" on="1"/>
        <pt x="148" y="-172" on="0"/>
      </contour>
    </TTGlyph>
    <TTGlyph name="cent" xMin="26" yMin="-25" xMax="457" yMax="762">
      <contour>
        <pt x="220" y="428" on="0"/>
        <pt x="232" y="446" on="0"/>
        <pt x="232" y="464" on="0"/>
        <pt x="230" y="474" on="0"/>
        <pt x="208" y="490" on="0"/>
        <pt x="188" y="490" on="1"/>
        <pt x="200" y="415" on="1"/>
        <pt x="202" y="417" on="0"/>
      </contour>
      <contour>
        <pt x="106" y="376" on="1"/>
        <pt x="106" y="334" on="0"/>
        <pt x="150" y="262" on="0"/>
        <pt x="193" y="245" on="1"/>
        <pt x="155" y="480" on="1"/>
        <pt x="106" y="450" on="0"/>
      </contour>
      <contour>
        <pt x="150" y="733" on="1"/>
        <pt x="186" y="507" on="1"/>
        <pt x="208" y="513" on="0"/>
        <pt x="265" y="513" on="0"/>
        <pt x="295" y="482" on="0"/>
        <pt x="295" y="431" on="0"/>
        <pt x="259" y="382" on="0"/>
        <pt x="215" y="382" on="0"/>
        <pt x="203" y="400" on="1"/>
        <pt x="229" y="236" on="1"/>
        <pt x="247" y="233" on="0"/>
        <pt x="268" y="233" on="1"/>
        <pt x="319" y="233" on="0"/>
        <pt x="416" y="282" on="0"/>
        <pt x="450" y="331" on="1"/>
        <pt x="457" y="319" on="1"/>
        <pt x="426" y="263" on="0"/>
        <pt x="306" y="194" on="0"/>
        <pt x="237" y="184" on="1"/>
        <pt x="269" y="-17" on="1"/>
        <pt x="269" y="-25" on="0"/>
        <pt x="262" y="-25" on="1"/>
        <pt x="253" y="-25" on="0"/>
        <pt x="233" y="0" on="0"/>
        <pt x="230" y="23" on="1"/>
        <pt x="204" y="182" on="1"/>
        <pt x="194" y="182" on="1"/>
        <pt x="121" y="182" on="0"/>
        <pt x="26" y="245" on="0"/>
        <pt x="26" y="359" on="0"/>
        <pt x="96" y="469" on="0"/>
        <pt x="153" y="495" on="1"/>
        <pt x="111" y="755" on="1"/>
        <pt x="111" y="762" on="0"/>
        <pt x="124" y="762" on="1"/>
        <pt x="146" y="762" on="0"/>
      </contour>
    </TTGlyph>
    <TTGlyph name="circumflex" xMin="54" yMin="307" xMax="317" yMax="459">
      <contour>
        <pt x="317" y="353" on="1"/>
        <pt x="317" y="340" on="0"/>
        <pt x="299" y="338" on="1"/>
        <pt x="249" y="338" on="0"/>
        <pt x="173" y="370" on="0"/>
        <pt x="155" y="393" on="1"/>
        <pt x="153" y="391" on="0"/>
        <pt x="142" y="377" on="1"/>
        <pt x="115" y="345" on="0"/>
        <pt x="78" y="314" on="1"/>
        <pt x="70" y="307" on="0"/>
        <pt x="54" y="307" on="0"/>
        <pt x="54" y="313" on="1"/>
        <pt x="96" y="346" on="0"/>
        <pt x="108" y="363" on="1"/>
        <pt x="124" y="388" on="1"/>
        <pt x="129" y="394" on="0"/>
        <pt x="135" y="406" on="1"/>
        <pt x="142" y="420" on="1"/>
        <pt x="142" y="434" on="0"/>
        <pt x="193" y="459" on="0"/>
        <pt x="225" y="459" on="0"/>
        <pt x="225" y="445" on="1"/>
        <pt x="224" y="440" on="0"/>
        <pt x="224" y="431" on="1"/>
        <pt x="224" y="396" on="0"/>
        <pt x="279" y="357" on="0"/>
      </contour>
    </TTGlyph>
    <TTGlyph name="colon" xMin="40" yMin="-23" xMax="164" yMax="276">
      <contour>
        <pt x="144" y="242" on="0"/>
        <pt x="144" y="194" on="0"/>
        <pt x="113" y="160" on="0"/>
        <pt x="70" y="160" on="0"/>
        <pt x="40" y="194" on="0"/>
        <pt x="40" y="242" on="0"/>
        <pt x="70" y="276" on="0"/>
        <pt x="113" y="276" on="0"/>
      </contour>
      <contour>
        <pt x="164" y="59" on="0"/>
        <pt x="164" y="11" on="0"/>
        <pt x="133" y="-23" on="0"/>
        <pt x="90" y="-23" on="0"/>
        <pt x="60" y="11" on="0"/>
        <pt x="60" y="59" on="0"/>
        <pt x="90" y="93" on="0"/>
        <pt x="133" y="93" on="0"/>
      </contour>
    </TTGlyph>
    <TTGlyph name="comma" xMin="63" yMin="-132" xMax="173" yMax="96">
      <contour>
        <pt x="155" y="96" on="0"/>
        <pt x="173" y="68" on="0"/>
        <pt x="173" y="-13" on="0"/>
        <pt x="128" y="-94" on="0"/>
        <pt x="106" y="-113" on="1"/>
        <pt x="84" y="-132" on="1"/>
        <pt x="68" y="-132" on="0"/>
        <pt x="68" y="-119" on="0"/>
        <pt x="77" y="-110" on="1"/>
        <pt x="114" y="-56" on="0"/>
        <pt x="114" y="-11" on="0"/>
        <pt x="63" y="22" on="0"/>
        <pt x="63" y="55" on="0"/>
        <pt x="112" y="96" on="0"/>
      </contour>
    </TTGlyph>
    <TTGlyph name="copyright" xMin="18" yMin="-39" xMax="636" yMax="551">
      <contour>
        <pt x="347" y="378" on="1"/>
        <pt x="347" y="408" on="0"/>
        <pt x="271" y="408" on="0"/>
        <pt x="221" y="340" on="0"/>
        <pt x="221" y="235" on="0"/>
        <pt x="302" y="150" on="0"/>
        <pt x="383" y="150" on="1"/>
        <pt x="434" y="150" on="0"/>
        <pt x="531" y="199" on="0"/>
        <pt x="565" y="248" on="1"/>
        <pt x="572" y="236" on="1"/>
        <pt x="536" y="171" on="0"/>
        <pt x="387" y="99" on="0"/>
        <pt x="236" y="99" on="0"/>
        <pt x="141" y="162" on="0"/>
        <pt x="141" y="221" on="1"/>
        <pt x="141" y="296" on="0"/>
        <pt x="260" y="430" on="0"/>
        <pt x="349" y="430" on="1"/>
        <pt x="380" y="430" on="0"/>
        <pt x="410" y="399" on="0"/>
        <pt x="410" y="348" on="0"/>
        <pt x="374" y="299" on="0"/>
        <pt x="351" y="299" on="1"/>
        <pt x="339" y="299" on="0"/>
        <pt x="314" y="318" on="0"/>
        <pt x="314" y="332" on="0"/>
        <pt x="322" y="337" on="1"/>
        <pt x="347" y="353" on="0"/>
      </contour>
      <contour>
        <pt x="436" y="5" on="0"/>
        <pt x="595" y="133" on="0"/>
        <pt x="595" y="370" on="0"/>
        <pt x="431" y="511" on="0"/>
        <pt x="215" y="511" on="0"/>
        <pt x="62" y="384" on="0"/>
        <pt x="62" y="270" on="1"/>
        <pt x="62" y="184" on="0"/>
        <pt x="102" y="122" on="1"/>
        <pt x="176" y="5" on="0"/>
        <pt x="329" y="5" on="1"/>
      </contour>
      <contour>
        <pt x="636" y="272" on="1"/>
        <pt x="636" y="267" on="1"/>
        <pt x="636" y="172" on="0"/>
        <pt x="539" y="29" on="0"/>
        <pt x="394" y="-39" on="0"/>
        <pt x="311" y="-39" on="1"/>
        <pt x="190" y="-39" on="0"/>
        <pt x="18" y="112" on="0"/>
        <pt x="18" y="252" on="1"/>
        <pt x="18" y="343" on="0"/>
        <pt x="119" y="483" on="0"/>
        <pt x="270" y="551" on="0"/>
        <pt x="354" y="551" on="1"/>
        <pt x="472" y="551" on="0"/>
        <pt x="636" y="408" on="0"/>
      </contour>
    </TTGlyph>
    <TTGlyph name="currency" xMin="21" yMin="119" xMax="515" yMax="588">
      <contour>
        <pt x="177" y="326" on="0"/>
        <pt x="245" y="229" on="0"/>
        <pt x="335" y="229" on="0"/>
        <pt x="377" y="279" on="0"/>
        <pt x="377" y="371" on="0"/>
        <pt x="306" y="468" on="0"/>
        <pt x="217" y="468" on="0"/>
        <pt x="177" y="419" on="0"/>
      </contour>
      <contour>
        <pt x="490" y="228" on="1"/>
        <pt x="455" y="236" on="1"/>
        <pt x="407" y="253" on="1"/>
        <pt x="356" y="190" on="0"/>
        <pt x="266" y="190" on="1"/>
        <pt x="233" y="190" on="0"/>
        <pt x="202" y="201" on="1"/>
        <pt x="172" y="123" on="1"/>
        <pt x="168" y="119" on="0"/>
        <pt x="165" y="119" on="1"/>
        <pt x="153" y="119" on="0"/>
        <pt x="153" y="156" on="0"/>
        <pt x="159" y="177" on="1"/>
        <pt x="173" y="216" on="1"/>
        <pt x="108" y="259" on="0"/>
        <pt x="108" y="347" on="1"/>
        <pt x="108" y="381" on="0"/>
        <pt x="120" y="408" on="1"/>
        <pt x="21" y="448" on="1"/>
        <pt x="27" y="469" on="0"/>
        <pt x="45" y="469" on="1"/>
        <pt x="52" y="469" on="0"/>
        <pt x="59" y="466" on="1"/>
        <pt x="138" y="438" on="1"/>
        <pt x="163" y="471" on="0"/>
        <pt x="245" y="508" on="0"/>
        <pt x="319" y="508" on="0"/>
        <pt x="346" y="499" on="1"/>
        <pt x="380" y="586" on="1"/>
        <pt x="380" y="588" on="0"/>
        <pt x="394" y="588" on="0"/>
        <pt x="406" y="574" on="0"/>
        <pt x="406" y="557" on="0"/>
        <pt x="403" y="548" on="1"/>
        <pt x="378" y="484" on="1"/>
        <pt x="441" y="443" on="0"/>
        <pt x="441" y="358" on="1"/>
        <pt x="441" y="355" on="1"/>
        <pt x="441" y="315" on="0"/>
        <pt x="425" y="281" on="1"/>
        <pt x="508" y="250" on="1"/>
        <pt x="515" y="246" on="0"/>
        <pt x="515" y="241" on="1"/>
        <pt x="515" y="229" on="0"/>
      </contour>
    </TTGlyph>
    <TTGlyph name="d" xMin="1" yMin="-42" xMax="474" yMax="811">
      <contour>
        <pt x="176" y="60" on="1"/>
        <pt x="223" y="60" on="0"/>
        <pt x="266" y="161" on="1"/>
        <pt x="243" y="207" on="0"/>
        <pt x="228" y="242" on="1"/>
        <pt x="220" y="235" on="0"/>
        <pt x="210" y="235" on="1"/>
        <pt x="194" y="235" on="0"/>
        <pt x="194" y="255" on="1"/>
        <pt x="194" y="261" on="0"/>
        <pt x="211" y="272" on="0"/>
        <pt x="211" y="281" on="1"/>
        <pt x="211" y="300" on="0"/>
        <pt x="194" y="300" on="1"/>
        <pt x="153" y="300" on="0"/>
        <pt x="100" y="211" on="0"/>
        <pt x="100" y="116" on="0"/>
        <pt x="138" y="60" on="0"/>
      </contour>
      <contour>
        <pt x="206" y="634" on="1"/>
        <pt x="206" y="477" on="0"/>
        <pt x="302" y="276" on="1"/>
        <pt x="337" y="416" on="0"/>
        <pt x="337" y="532" on="1"/>
        <pt x="337" y="763" on="0"/>
        <pt x="258" y="763" on="1"/>
        <pt x="206" y="763" on="0"/>
      </contour>
      <contour>
        <pt x="362" y="160" on="0"/>
        <pt x="447" y="35" on="0"/>
        <pt x="474" y="4" on="0"/>
        <pt x="474" y="-6" on="0"/>
        <pt x="431" y="-42" on="0"/>
        <pt x="399" y="-42" on="0"/>
        <pt x="321" y="59" on="0"/>
        <pt x="279" y="136" on="1"/>
        <pt x="202" y="-8" on="0"/>
        <pt x="101" y="-8" on="1"/>
        <pt x="50" y="-8" on="0"/>
        <pt x="1" y="46" on="0"/>
        <pt x="1" y="90" on="1"/>
        <pt x="1" y="167" on="0"/>
        <pt x="120" y="318" on="0"/>
        <pt x="196" y="318" on="1"/>
        <pt x="197" y="318" on="1"/>
        <pt x="150" y="449" on="0"/>
        <pt x="150" y="651" on="0"/>
        <pt x="248" y="811" on="0"/>
        <pt x="303" y="811" on="1"/>
        <pt x="341" y="811" on="0"/>
        <pt x="390" y="718" on="0"/>
        <pt x="390" y="623" on="1"/>
        <pt x="390" y="425" on="0"/>
        <pt x="323" y="236" on="1"/>
      </contour>
    </TTGlyph>
    <TTGlyph name="dagger" xMin="52" yMin="-52" xMax="269" yMax="524">
      <contour>
        <pt x="59" y="356" on="1"/>
        <pt x="52" y="420" on="1"/>
        <pt x="63" y="420" on="0"/>
        <pt x="119" y="417" on="0"/>
        <pt x="138" y="417" on="1"/>
        <pt x="107" y="509" on="1"/>
        <pt x="184" y="524" on="1"/>
        <pt x="177" y="425" on="1"/>
        <pt x="258" y="461" on="1"/>
        <pt x="269" y="399" on="1"/>
        <pt x="179" y="395" on="1"/>
        <pt x="250" y="-37" on="1"/>
        <pt x="158" y="-52" on="1"/>
        <pt x="139" y="389" on="1"/>
      </contour>
    </TTGlyph>
    <TTGlyph name="degree" xMin="73" yMin="533" xMax="228" yMax="718">
      <contour>
        <pt x="105" y="616" on="0"/>
        <pt x="135" y="574" on="0"/>
        <pt x="155" y="574" on="1"/>
        <pt x="192" y="574" on="0"/>
        <pt x="192" y="616" on="1"/>
        <pt x="192" y="640" on="0"/>
        <pt x="161" y="676" on="0"/>
        <pt x="131" y="676" on="1"/>
        <pt x="105" y="676" on="0"/>
        <pt x="105" y="640" on="1"/>
      </contour>
      <contour>
        <pt x="73" y="646" on="0"/>
        <pt x="123" y="718" on="0"/>
        <pt x="194" y="718" on="0"/>
        <pt x="228" y="678" on="0"/>
        <pt x="228" y="605" on="0"/>
        <pt x="174" y="533" on="0"/>
        <pt x="104" y="533" on="0"/>
        <pt x="73" y="573" on="0"/>
      </contour>
    </TTGlyph>
    <TTGlyph name="dieresis" xMin="-76" yMin="340" xMax="192" yMax="456">
      <contour>
        <pt x="192" y="422" on="0"/>
        <pt x="192" y="374" on="0"/>
        <pt x="161" y="340" on="0"/>
        <pt x="118" y="340" on="0"/>
        <pt x="88" y="374" on="0"/>
        <pt x="88" y="422" on="0"/>
        <pt x="118" y="456" on="0"/>
        <pt x="161" y="456" on="0"/>
      </contour>
      <contour>
        <pt x="28" y="422" on="0"/>
        <pt x="28" y="374" on="0"/>
        <pt x="-3" y="340" on="0"/>
        <pt x="-46" y="340" on="0"/>
        <pt x="-76" y="374" on="0"/>
        <pt x="-76" y="422" on="0"/>
        <pt x="-46" y="456" on="0"/>
        <pt x="-3" y="456" on="0"/>
      </contour>
    </TTGlyph>
    <TTGlyph name="divide" xMin="47" yMin="162" xMax="379" yMax="543">
      <contour>
        <pt x="241" y="509" on="0"/>
        <pt x="241" y="461" on="0"/>
        <pt x="210" y="427" on="0"/>
        <pt x="167" y="427" on="0"/>
        <pt x="137" y="461" on="0"/>
        <pt x="137" y="509" on="0"/>
        <pt x="167" y="543" on="0"/>
        <pt x="210" y="543" on="0"/>
      </contour>
      <contour>
        <pt x="283" y="244" on="0"/>
        <pt x="283" y="196" on="0"/>
        <pt x="252" y="162" on="0"/>
        <pt x="209" y="162" on="0"/>
        <pt x="179" y="196" on="0"/>
        <pt x="179" y="244" on="0"/>
        <pt x="209" y="278" on="0"/>
        <pt x="252" y="278" on="0"/>
      </contour>
      <contour>
        <pt x="53" y="373" on="1"/>
        <pt x="47" y="323" on="1"/>
        <pt x="159" y="323" on="0"/>
        <pt x="321" y="333" on="0"/>
        <pt x="346" y="338" on="1"/>
        <pt x="371" y="343" on="1"/>
        <pt x="379" y="402" on="1"/>
        <pt x="371" y="399" on="0"/>
        <pt x="335" y="389" on="0"/>
        <pt x="168" y="373" on="0"/>
      </contour>
    </TTGlyph>
    <TTGlyph name="dollar" xMin="20" yMin="-185" xMax="492" yMax="935">
      <contour>
        <pt x="147" y="759" on="1"/>
        <pt x="109" y="731" on="0"/>
        <pt x="109" y="579" on="0"/>
        <pt x="182" y="516" on="1"/>
      </contour>
      <contour>
        <pt x="315" y="15" on="1"/>
        <pt x="353" y="15" on="0"/>
        <pt x="413" y="74" on="0"/>
        <pt x="413" y="171" on="0"/>
        <pt x="382" y="244" on="0"/>
        <pt x="352" y="274" on="1"/>
        <pt x="302" y="325" on="0"/>
        <pt x="238" y="368" on="1"/>
        <pt x="287" y="17" on="1"/>
        <pt x="297" y="15" on="0"/>
      </contour>
      <contour>
        <pt x="294" y="-26" on="1"/>
        <pt x="315" y="-177" on="1"/>
        <pt x="315" y="-185" on="0"/>
        <pt x="308" y="-185" on="1"/>
        <pt x="299" y="-185" on="0"/>
        <pt x="279" y="-160" on="0"/>
        <pt x="276" y="-137" on="1"/>
        <pt x="260" y="-29" on="1"/>
        <pt x="259" y="-29" on="1"/>
        <pt x="191" y="-29" on="0"/>
        <pt x="68" y="32" on="0"/>
        <pt x="31" y="90" on="1"/>
        <pt x="20" y="108" on="0"/>
        <pt x="20" y="126" on="0"/>
        <pt x="70" y="167" on="0"/>
        <pt x="88" y="167" on="0"/>
        <pt x="89" y="164" on="1"/>
        <pt x="101" y="126" on="0"/>
        <pt x="197" y="47" on="0"/>
        <pt x="252" y="27" on="1"/>
        <pt x="200" y="394" on="1"/>
        <pt x="186" y="403" on="0"/>
        <pt x="173" y="414" on="1"/>
        <pt x="30" y="509" on="0"/>
        <pt x="30" y="621" on="1"/>
        <pt x="30" y="674" on="0"/>
        <pt x="94" y="763" on="0"/>
        <pt x="143" y="789" on="1"/>
        <pt x="123" y="928" on="1"/>
        <pt x="123" y="935" on="0"/>
        <pt x="136" y="935" on="1"/>
        <pt x="158" y="935" on="0"/>
        <pt x="162" y="906" on="1"/>
        <pt x="176" y="803" on="1"/>
        <pt x="213" y="816" on="0"/>
        <pt x="245" y="816" on="1"/>
        <pt x="307" y="816" on="0"/>
        <pt x="367" y="755" on="0"/>
        <pt x="367" y="660" on="0"/>
        <pt x="308" y="570" on="0"/>
        <pt x="265" y="560" on="1"/>
        <pt x="260" y="560" on="0"/>
        <pt x="258" y="572" on="1"/>
        <pt x="299" y="599" on="0"/>
        <pt x="299" y="711" on="0"/>
        <pt x="247" y="769" on="0"/>
        <pt x="181" y="769" on="1"/>
        <pt x="221" y="485" on="1"/>
        <pt x="241" y="470" on="0"/>
        <pt x="318" y="421" on="0"/>
        <pt x="367" y="388" on="0"/>
        <pt x="429" y="335" on="0"/>
        <pt x="448" y="310" on="1"/>
        <pt x="492" y="252" on="0"/>
        <pt x="492" y="96" on="0"/>
        <pt x="377" y="-15" on="0"/>
      </contour>
    </TTGlyph>
    <TTGlyph name="dotaccent" xMin="15" yMin="340" xMax="119" yMax="456">
      <contour>
        <pt x="119" y="422" on="0"/>
        <pt x="119" y="374" on="0"/>
        <pt x="88" y="340" on="0"/>
        <pt x="45" y="340" on="0"/>
        <pt x="15" y="374" on="0"/>
        <pt x="15" y="422" on="0"/>
        <pt x="45" y="456" on="0"/>
        <pt x="88" y="456" on="0"/>
      </contour>
    </TTGlyph>
    <TTGlyph name="dotlessi" xMin="15" yMin="-45" xMax="342" yMax="260">
      <contour>
        <pt x="20" y="224" on="1"/>
        <pt x="20" y="233" on="0"/>
        <pt x="29" y="236" on="1"/>
        <pt x="89" y="260" on="0"/>
        <pt x="104" y="260" on="0"/>
        <pt x="104" y="251" on="1"/>
        <pt x="97" y="210" on="0"/>
        <pt x="97" y="170" on="1"/>
        <pt x="97" y="93" on="0"/>
        <pt x="149" y="3" on="0"/>
        <pt x="191" y="3" on="1"/>
        <pt x="257" y="3" on="0"/>
        <pt x="335" y="110" on="1"/>
        <pt x="342" y="98" on="1"/>
        <pt x="297" y="28" on="0"/>
        <pt x="193" y="-45" on="0"/>
        <pt x="88" y="-45" on="0"/>
        <pt x="15" y="60" on="0"/>
        <pt x="15" y="155" on="1"/>
        <pt x="15" y="182" on="0"/>
      </contour>
    </TTGlyph>
    <TTGlyph name="e" xMin="-39" yMin="-45" xMax="344" yMax="352">
      <contour>
        <pt x="127" y="296" on="1"/>
        <pt x="128" y="309" on="1"/>
        <pt x="128" y="321" on="0"/>
        <pt x="74" y="321" on="0"/>
        <pt x="31" y="289" on="0"/>
        <pt x="31" y="262" on="1"/>
        <pt x="31" y="214" on="0"/>
        <pt x="100" y="214" on="1"/>
        <pt x="111" y="214" on="0"/>
        <pt x="134" y="221" on="0"/>
        <pt x="158" y="221" on="0"/>
        <pt x="158" y="213" on="1"/>
        <pt x="158" y="212" on="0"/>
        <pt x="142" y="205" on="0"/>
        <pt x="119" y="191" on="0"/>
        <pt x="107" y="180" on="1"/>
        <pt x="79" y="154" on="0"/>
        <pt x="79" y="64" on="0"/>
        <pt x="133" y="17" on="0"/>
        <pt x="219" y="17" on="0"/>
        <pt x="309" y="67" on="0"/>
        <pt x="337" y="110" on="1"/>
        <pt x="344" y="98" on="1"/>
        <pt x="306" y="32" on="0"/>
        <pt x="171" y="-45" on="0"/>
        <pt x="60" y="-45" on="0"/>
        <pt x="1" y="1" on="0"/>
        <pt x="1" y="74" on="0"/>
        <pt x="37" y="136" on="0"/>
        <pt x="64" y="163" on="0"/>
        <pt x="77" y="174" on="0"/>
        <pt x="77" y="179" on="0"/>
        <pt x="76" y="179" on="1"/>
        <pt x="44" y="167" on="0"/>
        <pt x="14" y="167" on="1"/>
        <pt x="-39" y="167" on="0"/>
        <pt x="-39" y="210" on="1"/>
        <pt x="-39" y="268" on="0"/>
        <pt x="93" y="352" on="0"/>
        <pt x="192" y="352" on="0"/>
        <pt x="192" y="328" on="1"/>
        <pt x="192" y="313" on="0"/>
        <pt x="160" y="279" on="0"/>
        <pt x="147" y="279" on="1"/>
        <pt x="127" y="279" on="0"/>
      </contour>
    </TTGlyph>
    <TTGlyph name="eacute" xMin="-39" yMin="-45" xMax="344" yMax="503">
      <component glyphName="e" x="0" y="0" flags="0x1004"/>
      <component glyphName="acute" x="-144" y="44" flags="0x1004"/>
    </TTGlyph>
    <TTGlyph name="ecircumflex" xMin="-50" yMin="-45" xMax="344" yMax="505">
      <contour>
        <pt x="127" y="296" on="1"/>
        <pt x="128" y="309" on="1"/>
        <pt x="128" y="321" on="0"/>
        <pt x="74" y="321" on="0"/>
        <pt x="31" y="289" on="0"/>
        <pt x="31" y="262" on="1"/>
        <pt x="31" y="214" on="0"/>
        <pt x="100" y="214" on="1"/>
        <pt x="111" y="214" on="0"/>
        <pt x="134" y="221" on="0"/>
        <pt x="158" y="221" on="0"/>
        <pt x="158" y="213" on="1"/>
        <pt x="158" y="212" on="0"/>
        <pt x="142" y="205" on="0"/>
        <pt x="119" y="191" on="0"/>
        <pt x="107" y="180" on="1"/>
        <pt x="79" y="154" on="0"/>
        <pt x="79" y="64" on="0"/>
        <pt x="133" y="17" on="0"/>
        <pt x="219" y="17" on="0"/>
        <pt x="309" y="67" on="0"/>
        <pt x="337" y="110" on="1"/>
        <pt x="344" y="98" on="1"/>
        <pt x="306" y="32" on="0"/>
        <pt x="171" y="-45" on="0"/>
        <pt x="60" y="-45" on="0"/>
        <pt x="1" y="1" on="0"/>
        <pt x="1" y="74" on="0"/>
        <pt x="37" y="136" on="0"/>
        <pt x="64" y="163" on="0"/>
        <pt x="77" y="174" on="0"/>
        <pt x="77" y="179" on="0"/>
        <pt x="76" y="179" on="1"/>
        <pt x="44" y="167" on="0"/>
        <pt x="14" y="167" on="1"/>
        <pt x="-39" y="167" on="0"/>
        <pt x="-39" y="210" on="1"/>
        <pt x="-39" y="268" on="0"/>
        <pt x="93" y="352" on="0"/>
        <pt x="192" y="352" on="0"/>
        <pt x="192" y="328" on="1"/>
        <pt x="192" y="313" on="0"/>
        <pt x="160" y="279" on="0"/>
        <pt x="147" y="279" on="1"/>
        <pt x="127" y="279" on="0"/>
      </contour>
      <contour>
        <pt x="213" y="399" on="1"/>
        <pt x="213" y="386" on="0"/>
        <pt x="195" y="384" on="1"/>
        <pt x="145" y="384" on="0"/>
        <pt x="69" y="416" on="0"/>
        <pt x="51" y="439" on="1"/>
        <pt x="49" y="437" on="0"/>
        <pt x="38" y="423" on="1"/>
        <pt x="11" y="391" on="0"/>
        <pt x="-26" y="360" on="1"/>
        <pt x="-34" y="353" on="0"/>
        <pt x="-50" y="353" on="0"/>
        <pt x="-50" y="359" on="1"/>
        <pt x="-8" y="392" on="0"/>
        <pt x="4" y="409" on="1"/>
        <pt x="20" y="434" on="1"/>
        <pt x="25" y="440" on="0"/>
        <pt x="31" y="452" on="1"/>
        <pt x="38" y="466" on="1"/>
        <pt x="38" y="480" on="0"/>
        <pt x="89" y="505" on="0"/>
        <pt x="121" y="505" on="0"/>
        <pt x="121" y="491" on="1"/>
        <pt x="120" y="486" on="0"/>
        <pt x="120" y="477" on="1"/>
        <pt x="120" y="442" on="0"/>
        <pt x="175" y="403" on="0"/>
      </contour>
    </TTGlyph>
    <TTGlyph name="edieresis" xMin="-47" yMin="-45" xMax="344" yMax="491">
      <contour>
        <pt x="128" y="309" on="1"/>
        <pt x="127" y="296" on="1"/>
        <pt x="127" y="279" on="0"/>
        <pt x="147" y="279" on="1"/>
        <pt x="160" y="279" on="0"/>
        <pt x="192" y="313" on="0"/>
        <pt x="192" y="328" on="1"/>
        <pt x="192" y="352" on="0"/>
        <pt x="93" y="352" on="0"/>
        <pt x="-39" y="268" on="0"/>
        <pt x="-39" y="210" on="1"/>
        <pt x="-39" y="167" on="0"/>
        <pt x="14" y="167" on="1"/>
        <pt x="44" y="167" on="0"/>
        <pt x="76" y="179" on="1"/>
        <pt x="77" y="179" on="0"/>
        <pt x="77" y="174" on="0"/>
        <pt x="64" y="163" on="0"/>
        <pt x="37" y="136" on="0"/>
        <pt x="1" y="74" on="0"/>
        <pt x="1" y="1" on="0"/>
        <pt x="60" y="-45" on="0"/>
        <pt x="171" y="-45" on="0"/>
        <pt x="306" y="32" on="0"/>
        <pt x="344" y="98" on="1"/>
        <pt x="337" y="110" on="1"/>
        <pt x="309" y="67" on="0"/>
        <pt x="219" y="17" on="0"/>
        <pt x="133" y="17" on="0"/>
        <pt x="79" y="64" on="0"/>
        <pt x="79" y="109" on="1"/>
        <pt x="79" y="177" on="0"/>
        <pt x="150" y="208" on="1"/>
        <pt x="158" y="212" on="0"/>
        <pt x="158" y="213" on="1"/>
        <pt x="158" y="221" on="0"/>
        <pt x="134" y="221" on="0"/>
        <pt x="111" y="214" on="0"/>
        <pt x="100" y="214" on="1"/>
        <pt x="31" y="214" on="0"/>
        <pt x="31" y="262" on="1"/>
        <pt x="31" y="289" on="0"/>
        <pt x="74" y="321" on="0"/>
        <pt x="128" y="321" on="0"/>
      </contour>
      <contour>
        <pt x="221" y="457" on="0"/>
        <pt x="221" y="409" on="0"/>
        <pt x="190" y="375" on="0"/>
        <pt x="147" y="375" on="0"/>
        <pt x="117" y="409" on="0"/>
        <pt x="117" y="457" on="0"/>
        <pt x="147" y="491" on="0"/>
        <pt x="190" y="491" on="0"/>
      </contour>
      <contour>
        <pt x="57" y="457" on="0"/>
        <pt x="57" y="409" on="0"/>
        <pt x="26" y="375" on="0"/>
        <pt x="-17" y="375" on="0"/>
        <pt x="-47" y="409" on="0"/>
        <pt x="-47" y="457" on="0"/>
        <pt x="-17" y="491" on="0"/>
        <pt x="26" y="491" on="0"/>
      </contour>
    </TTGlyph>
    <TTGlyph name="egrave" xMin="-39" yMin="-45" xMax="344" yMax="500">
      <contour>
        <pt x="127" y="296" on="1"/>
        <pt x="128" y="309" on="1"/>
        <pt x="128" y="321" on="0"/>
        <pt x="74" y="321" on="0"/>
        <pt x="31" y="289" on="0"/>
        <pt x="31" y="262" on="1"/>
        <pt x="31" y="214" on="0"/>
        <pt x="100" y="214" on="1"/>
        <pt x="111" y="214" on="0"/>
        <pt x="134" y="221" on="0"/>
        <pt x="158" y="221" on="0"/>
        <pt x="158" y="213" on="1"/>
        <pt x="158" y="212" on="0"/>
        <pt x="142" y="205" on="0"/>
        <pt x="119" y="191" on="0"/>
        <pt x="107" y="180" on="1"/>
        <pt x="79" y="154" on="0"/>
        <pt x="79" y="64" on="0"/>
        <pt x="133" y="17" on="0"/>
        <pt x="219" y="17" on="0"/>
        <pt x="309" y="67" on="0"/>
        <pt x="337" y="110" on="1"/>
        <pt x="344" y="98" on="1"/>
        <pt x="306" y="32" on="0"/>
        <pt x="171" y="-45" on="0"/>
        <pt x="60" y="-45" on="0"/>
        <pt x="1" y="1" on="0"/>
        <pt x="1" y="74" on="0"/>
        <pt x="37" y="136" on="0"/>
        <pt x="64" y="163" on="0"/>
        <pt x="77" y="174" on="0"/>
        <pt x="77" y="179" on="0"/>
        <pt x="76" y="179" on="1"/>
        <pt x="44" y="167" on="0"/>
        <pt x="14" y="167" on="1"/>
        <pt x="-39" y="167" on="0"/>
        <pt x="-39" y="210" on="1"/>
        <pt x="-39" y="268" on="0"/>
        <pt x="93" y="352" on="0"/>
        <pt x="192" y="352" on="0"/>
        <pt x="192" y="328" on="1"/>
        <pt x="192" y="313" on="0"/>
        <pt x="160" y="279" on="0"/>
        <pt x="147" y="279" on="1"/>
        <pt x="127" y="279" on="0"/>
      </contour>
      <contour>
        <pt x="151" y="394" on="1"/>
        <pt x="151" y="381" on="0"/>
        <pt x="133" y="379" on="1"/>
        <pt x="67" y="379" on="0"/>
        <pt x="-24" y="436" on="0"/>
        <pt x="-24" y="461" on="1"/>
        <pt x="-24" y="475" on="0"/>
        <pt x="27" y="500" on="0"/>
        <pt x="59" y="500" on="0"/>
        <pt x="59" y="486" on="1"/>
        <pt x="58" y="481" on="0"/>
        <pt x="58" y="472" on="1"/>
        <pt x="58" y="437" on="0"/>
        <pt x="113" y="398" on="0"/>
      </contour>
    </TTGlyph>
    <TTGlyph name="eight" xMin="18" yMin="-47" xMax="480" yMax="798">
      <contour>
        <pt x="194" y="370" on="1"/>
        <pt x="110" y="321" on="0"/>
        <pt x="110" y="155" on="0"/>
        <pt x="254" y="-1" on="0"/>
        <pt x="322" y="-1" on="1"/>
        <pt x="401" y="-1" on="0"/>
        <pt x="401" y="113" on="1"/>
        <pt x="401" y="156" on="0"/>
        <pt x="360" y="240" on="0"/>
        <pt x="302" y="299" on="0"/>
        <pt x="271" y="322" on="1"/>
        <pt x="213" y="366" on="0"/>
      </contour>
      <contour>
        <pt x="161" y="396" on="1"/>
        <pt x="18" y="491" on="0"/>
        <pt x="18" y="603" on="1"/>
        <pt x="18" y="684" on="0"/>
        <pt x="155" y="798" on="0"/>
        <pt x="233" y="798" on="1"/>
        <pt x="287" y="798" on="0"/>
        <pt x="357" y="732" on="0"/>
        <pt x="357" y="606" on="0"/>
        <pt x="265" y="494" on="0"/>
        <pt x="242" y="494" on="1"/>
        <pt x="237" y="494" on="0"/>
        <pt x="235" y="506" on="1"/>
        <pt x="253" y="516" on="0"/>
        <pt x="282" y="588" on="0"/>
        <pt x="282" y="618" on="1"/>
        <pt x="282" y="670" on="0"/>
        <pt x="210" y="751" on="0"/>
        <pt x="138" y="751" on="0"/>
        <pt x="97" y="693" on="0"/>
        <pt x="97" y="592" on="0"/>
        <pt x="139" y="522" on="0"/>
        <pt x="207" y="468" on="0"/>
        <pt x="288" y="415" on="0"/>
        <pt x="370" y="359" on="0"/>
        <pt x="404" y="328" on="1"/>
        <pt x="480" y="259" on="0"/>
        <pt x="480" y="68" on="0"/>
        <pt x="339" y="-47" on="0"/>
        <pt x="149" y="-47" on="0"/>
        <pt x="25" y="74" on="0"/>
        <pt x="25" y="160" on="1"/>
        <pt x="25" y="290" on="0"/>
        <pt x="161" y="385" on="1"/>
        <pt x="166" y="390" on="0"/>
      </contour>
    </TTGlyph>
</ttFont>
